<?xml version="1.0" encoding="utf-8"?>
<!-- Generator: Adobe Illustrator 22.0.1, SVG Export Plug-In . SVG Version: 6.00 Build 0)  -->
<svg version="1.1" id="圖層_1" xmlns="http://www.w3.org/2000/svg" xmlns:xlink="http://www.w3.org/1999/xlink" x="0px" y="0px"
	 viewBox="0 0 2698.9 826.7" style="enable-background:new 0 0 2698.9 826.7;" xml:space="preserve">
<style type="text/css">
	.st0{display:none;}
	.st1{display:inline;fill:#FFFFFF;}
	.st2{fill:#FFFFFF;stroke:#14120F;stroke-width:3;stroke-linecap:round;stroke-linejoin:round;stroke-miterlimit:10;}
	.st3{fill:#14120F;stroke:#14120F;stroke-miterlimit:10;}
	.st4{fill:none;stroke:#14120F;stroke-width:3;stroke-linecap:round;stroke-linejoin:round;stroke-miterlimit:10;}
	.st5{fill:#14120F;}
	.st6{fill:none;stroke:#14120F;stroke-width:2;stroke-linecap:round;stroke-linejoin:round;stroke-miterlimit:10;}
	.st7{fill:#14120F;stroke:#14120F;stroke-width:3;stroke-linecap:round;stroke-linejoin:round;stroke-miterlimit:10;}
	.st8{fill:none;stroke:#FFFFFF;stroke-width:3;stroke-linecap:round;stroke-linejoin:round;stroke-miterlimit:10;}
	.st9{fill:#14120F;stroke:#14120F;stroke-width:3;stroke-miterlimit:10;}
	.st10{fill:#FFFFFF;stroke:#000000;stroke-miterlimit:10;}
</style>
<g id="圖層_2_1_" class="st0">
	<rect class="st1" width="3161.9" height="851.8"/>
</g>
<g>
	<g>
		<path class="st2" d="M144.4,448.2l12.4,4.2l-2.1,6.4c0,0,1.5,6.1,2.6,8c0,0,3.5,6.9,3.5,8.6c0,0-1.6,6.4-1.3,7.7
			c0,0,1.2,3.1,1.1,5.7c-0.1,2.1-2.8,2.9-4,1.2c-0.8-1.1-1.6-2.9-2.5-5.7c0,0,1.2-5.8,0.8-8.5c0,0,0.3,8-3.9,13.5
			c0,0-7.9,11-12.2,8.8l8.4-16.7c0,0-6.9,13.3-9.2,17.1c-0.4,0.7-1.2,1.2-2,1.4c-1,0.1-2.4-0.1-3-1.9c-0.2-0.8-0.1-1.6,0.2-2.3
			l8.2-15.9l-7.8,14c-0.7,1.3-2.2,2.2-3.7,2.2c-1.2-0.1-2.3-0.8-2.2-3.1c0-0.7,0.2-1.4,0.5-2.1l7.1-14.8l-5.8,10.3
			c-0.5,0.8-1.1,1.5-2,1.8c-0.7,0.3-1.5,0.3-2.2-0.3c-1-0.8-1.3-2.2-0.7-3.3l3.2-6.9c0,0,5.3-14.3,11.1-19.8L144.4,448.2z"/>
		<path class="st3" d="M171.2,155.3c6-0.9,11.6,4.9,11.9,10.9c0.3,6.1-3.8,11.7-8.9,14.9c7.2,0.9,13.7,6.1,16.2,12.8
			c2.6,6.8,1.1,14.9-3.7,20.3c8,2,14.6,8.7,16.5,16.6c1.9,8-0.9,16.9-7.1,22.3c4.7,14.3-5.4,31.7-20.2,34.6
			c4.8,7.9,4.2,18.6-1.4,25.9c-5.6,7.3-15.8,10.7-24.6,8.2c0.9,19.3-16.1,36.4-35.1,39.8c-11.4,2.1-24.1-0.3-32.2-8.6
			s-9.7-23-1.6-31.3c-15.1-12-16.1-37.8-1.9-50.9c-11.6-4.8-20.7-15.3-23.7-27.4c-3.1-12.2,0-25.7,8-35.4c-10-5-16.5-16.2-15.9-27.4
			s8.3-21.6,18.8-25.5c0-16.3,2.2-21.7,11.1-28.3c8.9-6.7,30.1-7.4,39.4-1.3c2.8-7.8,7.3-15.3,14.4-19.5c7.1-4.2,17.2-4,22.8,2
			c1-7.5,6.8-14.2,14.1-16.1c7.3-2,15.7,0.8,20.3,6.8c4.5-12.5,23-17,32.7-7.9c5.3-4.1,13.6-2.2,18.2,2.6s6.5,11.7,7.4,18.4
			c5.8,2.1,9.4,9,7.8,15s-8.1,10.2-14.2,9.2c-0.8-3.9-1.6-7.8-2.3-11.8c1.5,7.4-20.1,9.4-17.3-5.1c-4.4,9.1-16.3,3.8-22.8,10.7
			C188.6,139.7,184.9,149.8,171.2,155.3z"/>
		<path class="st2" d="M142.8,453.4c-2.6-18.2,0.3-52,11.3-64.6c43.1-49.2,30.2-70.7,32.9-121.5c0.4-6.6,0.7-13.3,3.1-19.6
			s7.7-11.2,13.8-15c2.7-1.7,6.7-3.4,12.7-0.5c26.4,12.7,31,53.9,26,86.9c-6.4,42.2-26.2,113.9-86.3,141.3L142.8,453.4z"/>
		<g>
			<path class="st2" d="M192.3,109.4c0,0-30.6,5.2-29.9,40.1c0,0,1.2,26.8,17,37.8l-5.8,37.8l33,7.1l-6.8-28.9
				c0,0-11.8-6.9-14.8-17.1c0,0,8.1,20.9,32.8,22.7c0,0,27.4,3.1,33.4-30.7c0,0,2.9-14.8-4.2-23.4c0,0-3.4-4.5,0.6-13.6
				c0,0,3.7-9.6-1.4-19.2c-2.4-4.5-6.5-8-11.2-10C227.8,108.8,213.4,104.9,192.3,109.4z"/>
			<path class="st4" d="M225.1,180.4c5.1,4.1,12.2,5.6,18.5,3.9"/>
			<path class="st4" d="M214.7,136.3c4.2-1,9,0.4,12,3.6"/>
			<g>
				<path class="st5" d="M223.7,152.9c0.3,3-1.2,3.4-2.4,3.3c-1.2-0.1-2-2.8-1.8-4.7c0.1-1.9,1.1-2.2,2.3-2.2S223.6,151,223.7,152.9
					z"/>
				<path class="st6" d="M222.7,147.8c-0.3,0.8-0.7,1.5-1,2.3"/>
			</g>
			<g>
				<path class="st5" d="M249.4,151.5c0.3,3-1.2,3.4-2.4,3.3c-1.2-0.1-2-2.8-1.8-4.7c0.1-1.9,1.1-2.2,2.3-2.2
					C248.7,148,249.2,149.6,249.4,151.5z"/>
				<path class="st6" d="M248.4,146.4c-0.3,0.8-0.7,1.5-1,2.3"/>
			</g>
			<path class="st4" d="M244,140.3c0.6-2.1,2.9-3.6,5-3.4"/>
			<path class="st2" d="M192.4,152.6l0.3,7.8c0,0-5.1-8.6-10.8-6.1c0,0-7.4,2.1-3.8,11.2c1.1,2.9,3,5.5,5.4,7.6
				c3.5,3.2,9.1,7,11.9,1.6"/>
			<polygon class="st2" points="190,171.2 198.1,173.2 193.8,183 198.6,184.6 193.8,212.7 193.1,188.7 188.1,185.5 			"/>
			<path class="st2" d="M239.9,144.4l18.9,27.8c0,0-4.8,1.4-14.2-2.1"/>
		</g>
		<path class="st7" d="M204.7,222.8l13.9,11.2l31.7,62.1l-16.7,19.7l4.1,56.5l-67.9,16.3c0,0-22.5-84.3-29.4-124.7l-2.2-22.2l10-5.8
			l16.4-14.4l10-2.5l-1.1,6.8l33,6.3L204.7,222.8z"/>
		<polygon class="st2" points="349.6,707.5 364.7,748.5 411.4,773.9 326.3,767.9 330.1,744.5 326.9,723.4 		"/>
		<polygon class="st2" points="102.4,740.4 84.6,765.6 141.5,784.7 40.6,784 55.6,767.9 72.7,739.9 		"/>
		<path class="st7" d="M239.8,419.8c-20-3.1-37.1,19.1-37.1,19.1c-15.3,17.6-4.7,47.2-4.7,47.2c24.4,41.7,63.7,59.7,82.2,104.3
			c15,36.1-11.4,86.6,39.3,147.6l32.4-24.2c-0.1-90.4-30.3-191.3-72.6-271.2C279.3,442.6,264.2,422.9,239.8,419.8z"/>
		<g>
			<path class="st7" d="M224.4,473c7.5-13.8,13.1-31.3,12.5-47c-23.3-15.9-48-38-48-38l-18.9,7c-23.9,45.4-40.4,94.7-48.7,145.3
				c-6.5,39.5,2.7,42.8-5.6,83.9c-2.9,14.3-36.2,52.6-43,65.5C65.1,704,51.1,726.5,48,755l46.1-1.2c36.8-36,83.6-96.5,102.9-142.5
				c19.3-45.9,31-96,26.3-145.6"/>
		</g>
		<path class="st8" d="M240.1,438.2c0.5,12.7-3.1,25.5-10.1,36.1c-1.2,1.8-2.6,3.7-3.1,5.8c-0.6,2.1-0.3,4.3-0.1,6.5
			c1.6,17-2.6,51.9-6,68.5"/>
		<path class="st2" d="M291.3,453.3c-3-20.6-16.9-56.4-32.9-66.6c-62.6-39.7-55.4-67.2-74.6-121.6c-2.5-7-5-14.2-9.6-20.3
			s-12-9.7-19.8-11.9c-3.5-1-8.3-1.6-14,3.5c-24.7,22.2-4.7,79.6,11.2,113.8c20.4,43.8,72.7,97.6,127.2,115.1L291.3,453.3z"/>
		<path class="st2" d="M278.8,465.3l12.3-11.4l5.9,6.3c0,0,7.8,2,10.6,2c0,0,9.9,0.2,11.8,1.3c0,0,6.3,5.7,7.9,6.1
			c0,0,4.3,0.5,7.1,2.2c2.3,1.4,1.6,5-1.1,5.3c-1.7,0.2-4.2,0.1-8-0.7c0,0-5.8-4.9-9.1-6.1c0,0,9.3,4.5,12.9,12.7
			c0,0,7.6,15.7,2.5,19.2l-13.7-19.7c0,0,10.9,15.9,13.8,20.8c0.6,1,0.7,2.1,0.3,3.1c-0.5,1.3-1.6,2.6-4,2.2c-1-0.2-1.9-0.8-2.4-1.7
			l-13-18.9l11.1,17.4c1.1,1.7,1.2,3.8,0.2,5.5c-0.8,1.3-2.2,2.1-4.8,0.6c-0.8-0.5-1.5-1.1-2.1-1.8l-12.4-17.1l8.2,12.8
			c0.6,1,1,2.2,0.8,3.4c-0.1,0.9-0.6,1.9-1.7,2.4c-1.5,0.7-3.3,0.1-4.2-1.2l-5.9-7.8c0,0-12.9-14.7-15.6-24.6L278.8,465.3z"/>
		<path class="st7" d="M216.4,100.3c4.7-1.5,10.2-1,14.2,2c4,3,6,8.6,4.2,13.2c-1.4,3.6-4.8,6.1-8.4,7.3c-3.6,1.3-7.5,1.5-11.3,1.7
			c0.7,0.2,1.3,0.4,2,0.6c2,4.5-0.3,10-4.1,13.1c-3.8,3.1-8.8,4.3-13.7,5c3.6,4.3,2.3,11.5-0.8,16.1c-3.2,4.6-9.5,6.7-14.8,4.9
			c6.6,3.8,10,12.4,7.9,19.8s-9.6,12.7-17.3,12.4c7.8-0.7,14.1,7.6,14.2,15.5s-4,15.1-8.1,21.8c5.2,5.7,6.4,14.7,1.8,20.9
			c-4.6,6.2-13.7,8.5-20.7,5.2c2.3,5.7,0.3,12.6-4.1,17c-4.3,4.4-10.5,6.5-16.7,7.1c-6.9,0.6-14.1-0.6-19.7-4.6
			c-5.6-4-9.2-11.1-8.1-17.8c-10.6-4.9-17.7-16.5-17.3-28.1c0.5-11.7,8.5-22.7,19.4-26.7c-8.3-6.6-12-18.4-9.2-28.6
			c2.9-10.2,12.3-18.2,22.8-19.5c-3.1-5.7-2.5-13.3,1.5-18.4s11.2-7.6,17.5-6c-0.5-7.8,4-15.6,11-19.1s15.9-2.5,21.9,2.5
			c0.4-4.8,4.1-9.2,8.7-10.6s10.1,0.4,13,4.3C204.3,105.5,210.9,102,216.4,100.3z"/>
	</g>
</g>
<g>
	<g>
		<path class="st2" d="M1043.8,448.2l12.4,4.2l-2.1,6.4c0,0,1.5,6.1,2.6,8c0,0,3.5,6.9,3.5,8.6c0,0-1.6,6.4-1.3,7.7
			c0,0,1.2,3.1,1.1,5.7c-0.1,2.1-2.8,2.9-4,1.2c-0.8-1.1-1.6-2.9-2.5-5.7c0,0,1.2-5.8,0.8-8.5c0,0,0.3,8-3.9,13.5
			c0,0-7.9,11-12.2,8.8l8.4-16.7c0,0-6.9,13.3-9.2,17.1c-0.4,0.7-1.2,1.2-2,1.4c-1,0.1-2.4-0.1-3-1.9c-0.2-0.8-0.1-1.6,0.2-2.3
			l8.2-15.9l-7.8,14c-0.7,1.3-2.2,2.2-3.7,2.2c-1.2-0.1-2.3-0.8-2.2-3.1c0-0.7,0.2-1.4,0.5-2.1l7.1-14.8l-5.8,10.3
			c-0.5,0.8-1.1,1.5-2,1.8c-0.7,0.3-1.5,0.3-2.2-0.3c-1-0.8-1.3-2.2-0.7-3.3l3.2-6.9c0,0,5.3-14.3,11.1-19.8L1043.8,448.2z"/>
		<path class="st3" d="M1070.6,155.3c6-0.9,11.6,4.9,11.9,10.9c0.3,6.1-3.8,11.7-8.9,14.9c7.2,0.9,13.7,6.1,16.2,12.8
			c2.6,6.8,1.1,14.9-3.7,20.3c8,2,14.6,8.7,16.5,16.6c1.9,8-0.9,16.9-7.1,22.3c4.7,14.3-5.4,31.7-20.2,34.6
			c4.8,7.9,4.2,18.6-1.4,25.9s-15.8,10.7-24.6,8.2c0.9,19.3-16.1,36.4-35.1,39.8c-11.4,2.1-24.1-0.3-32.2-8.6
			c-8.1-8.3-9.7-23-1.6-31.3c-15.1-12-16.1-37.8-1.9-50.9c-11.6-4.8-20.7-15.3-23.7-27.4c-3.1-12.2,0-25.7,8-35.4
			c-10-5-16.5-16.2-15.9-27.4s8.3-21.6,18.8-25.5c0-16.3,2.2-21.7,11.1-28.3c8.9-6.7,30.1-7.4,39.4-1.3c2.8-7.8,7.3-15.3,14.4-19.5
			s17.2-4,22.8,2c1-7.5,6.8-14.2,14.1-16.1c7.3-2,15.7,0.8,20.3,6.8c4.5-12.5,23-17,32.7-7.9c5.3-4.1,13.6-2.2,18.2,2.6
			c4.7,4.8,6.5,11.7,7.4,18.4c5.8,2.1,9.4,9,7.8,15s-8.1,10.2-14.2,9.2c-0.8-3.9-1.6-7.8-2.3-11.8c1.5,7.4-20.1,9.4-17.3-5.1
			c-4.4,9.1-16.3,3.8-22.8,10.7C1088,139.7,1084.2,149.8,1070.6,155.3z"/>
		<path class="st2" d="M1042.2,453.4c-2.6-18.2,0.3-52,11.3-64.6c43.1-49.2,30.2-70.7,32.9-121.5c0.4-6.6,0.7-13.3,3.1-19.6
			c2.4-6.3,7.7-11.2,13.8-15c2.7-1.7,6.7-3.4,12.7-0.5c26.4,12.7,31,53.9,26,86.9c-6.4,42.2-26.2,113.9-86.3,141.3L1042.2,453.4z"/>
		<g>
			<path class="st2" d="M1091.7,109.4c0,0-30.6,5.2-29.9,40.1c0,0,1.2,26.8,17,37.8l-5.8,37.8l33,7.1l-6.8-28.9
				c0,0-11.8-6.9-14.8-17.1c0,0,8.1,20.9,32.8,22.7c0,0,27.4,3.1,33.4-30.7c0,0,2.9-14.8-4.2-23.4c0,0-3.4-4.5,0.6-13.6
				c0,0,3.7-9.6-1.4-19.2c-2.4-4.5-6.5-8-11.2-10C1127.2,108.8,1112.8,104.9,1091.7,109.4z"/>
			<path class="st4" d="M1124.5,180.4c5.1,4.1,12.2,5.6,18.5,3.9"/>
			<path class="st4" d="M1114.1,136.3c4.2-1,9,0.4,12,3.6"/>
			<g>
				<path class="st5" d="M1123.1,152.9c0.3,3-1.2,3.4-2.4,3.3c-1.2-0.1-2-2.8-1.8-4.7c0.1-1.9,1.1-2.2,2.3-2.2
					C1122.4,149.4,1122.9,151,1123.1,152.9z"/>
				<path class="st6" d="M1122,147.8c-0.3,0.8-0.7,1.5-1,2.3"/>
			</g>
			<g>
				<path class="st5" d="M1148.8,151.5c0.3,3-1.2,3.4-2.4,3.3c-1.2-0.1-2-2.8-1.8-4.7c0.1-1.9,1.1-2.2,2.3-2.2
					S1148.6,149.6,1148.8,151.5z"/>
				<path class="st6" d="M1147.7,146.4c-0.3,0.8-0.7,1.5-1,2.3"/>
			</g>
			<path class="st4" d="M1143.4,140.3c0.6-2.1,2.9-3.6,5-3.4"/>
			<path class="st2" d="M1091.8,152.6l0.3,7.8c0,0-5.1-8.6-10.8-6.1c0,0-7.4,2.1-3.8,11.2c1.1,2.9,3,5.5,5.4,7.6
				c3.5,3.2,9.1,7,11.9,1.6"/>
			<polygon class="st2" points="1089.3,171.2 1097.5,173.2 1093.2,183 1098,184.6 1093.2,212.7 1092.5,188.7 1087.4,185.5 			"/>
			<path class="st2" d="M1139.3,144.4l18.9,27.8c0,0-4.8,1.4-14.2-2.1"/>
		</g>
		<path class="st7" d="M1104.1,222.8L1118,234l31.7,62.1l-16.7,19.7l4.1,56.5l-67.9,16.3c0,0-22.5-84.3-29.4-124.7l-2.2-22.2l10-5.8
			l16.4-14.4l10-2.5l-1.1,6.8l33,6.3L1104.1,222.8z"/>
		<polygon class="st2" points="1249,707.5 1264,748.5 1310.8,773.9 1225.7,767.9 1229.5,744.5 1226.3,723.4 		"/>
		<polygon class="st2" points="1001.7,740.4 983.9,765.6 1040.9,784.7 940,784 955,767.9 972,739.9 		"/>
		<path class="st7" d="M1139.2,419.8c-20-3.1-37.1,19.1-37.1,19.1c-15.3,17.6-4.7,47.2-4.7,47.2c24.4,41.7,63.7,59.7,82.2,104.3
			c15,36.1-11.4,86.6,39.3,147.6l32.4-24.2c-0.1-90.4-30.3-191.3-72.6-271.2C1178.7,442.6,1163.5,422.9,1139.2,419.8z"/>
		<g>
			<path class="st7" d="M1123.8,473c7.5-13.8,13.1-31.3,12.5-47c-23.3-15.9-48-38-48-38l-18.9,7c-23.9,45.4-40.4,94.7-48.7,145.3
				c-6.5,39.5,2.7,42.8-5.6,83.9c-2.9,14.3-36.2,52.6-43,65.5c-7.5,14.2-21.6,36.7-24.6,65.1l46.1-1.2
				c36.8-36,83.6-96.5,102.9-142.5c19.3-45.9,31-96,26.3-145.6"/>
		</g>
		<path class="st8" d="M1139.5,438.2c0.5,12.7-3.1,25.5-10.1,36.1c-1.2,1.8-2.6,3.7-3.1,5.8c-0.6,2.1-0.3,4.3-0.1,6.5
			c1.6,17-2.6,51.9-6,68.5"/>
		<path class="st2" d="M1190.7,453.3c-3-20.6-16.9-56.4-32.9-66.6c-62.6-39.7-55.4-67.2-74.6-121.6c-2.5-7-5-14.2-9.6-20.3
			s-12-9.7-19.8-11.9c-3.5-1-8.3-1.6-14,3.5c-24.7,22.2-4.7,79.6,11.2,113.8c20.4,43.8,72.7,97.6,127.2,115.1L1190.7,453.3z"/>
		<path class="st2" d="M1178.2,465.3l12.3-11.4l5.9,6.3c0,0,7.8,2,10.6,2c0,0,9.9,0.2,11.8,1.3c0,0,6.3,5.7,7.9,6.1
			c0,0,4.3,0.5,7.1,2.2c2.3,1.4,1.6,5-1.1,5.3c-1.7,0.2-4.2,0.1-8-0.7c0,0-5.8-4.9-9.1-6.1c0,0,9.3,4.5,12.9,12.7
			c0,0,7.6,15.7,2.5,19.2l-13.7-19.7c0,0,10.9,15.9,13.8,20.8c0.6,1,0.7,2.1,0.3,3.1c-0.5,1.3-1.6,2.6-4,2.2c-1-0.2-1.9-0.8-2.4-1.7
			l-13-18.9l11.1,17.4c1.1,1.7,1.2,3.8,0.2,5.5c-0.8,1.3-2.2,2.1-4.8,0.6c-0.8-0.5-1.5-1.1-2.1-1.8l-12.4-17.1l8.2,12.8
			c0.6,1,1,2.2,0.8,3.4c-0.1,0.9-0.6,1.9-1.7,2.4c-1.5,0.7-3.3,0.1-4.2-1.2l-5.9-7.8c0,0-12.9-14.7-15.6-24.6L1178.2,465.3z"/>
		<path class="st7" d="M1115.8,100.3c4.7-1.5,10.2-1,14.2,2s6,8.6,4.2,13.2c-1.4,3.6-4.8,6.1-8.4,7.3c-3.6,1.3-7.5,1.5-11.3,1.7
			c0.7,0.2,1.3,0.4,2,0.6c2,4.5-0.3,10-4.1,13.1c-3.8,3.1-8.8,4.3-13.7,5c3.6,4.3,2.3,11.5-0.8,16.1s-9.5,6.7-14.8,4.9
			c6.6,3.8,10,12.4,7.9,19.8s-9.6,12.7-17.3,12.4c7.8-0.7,14.1,7.6,14.2,15.5s-4,15.1-8.1,21.8c5.2,5.7,6.4,14.7,1.8,20.9
			s-13.7,8.5-20.7,5.2c2.3,5.7,0.3,12.6-4.1,17c-4.3,4.4-10.5,6.5-16.7,7.1c-6.9,0.6-14.1-0.6-19.7-4.6c-5.6-4-9.2-11.1-8.1-17.8
			c-10.6-4.9-17.7-16.5-17.3-28.1c0.5-11.7,8.5-22.7,19.4-26.7c-8.3-6.6-12-18.4-9.2-28.6c2.9-10.2,12.3-18.2,22.8-19.5
			c-3.1-5.7-2.5-13.3,1.5-18.4s11.2-7.6,17.5-6c-0.5-7.8,4-15.6,11-19.1s15.9-2.5,21.9,2.5c0.4-4.8,4.1-9.2,8.7-10.6
			c4.6-1.4,10.1,0.4,13,4.3C1103.7,105.5,1110.3,102,1115.8,100.3z"/>
	</g>
</g>
<g>
	<g>
		<path class="st2" d="M1943,448.2l12.4,4.2l-2.1,6.4c0,0,1.5,6.1,2.6,8c0,0,3.5,6.9,3.5,8.6c0,0-1.6,6.4-1.3,7.7
			c0,0,1.2,3.1,1.1,5.7c-0.1,2.1-2.8,2.9-4,1.2c-0.8-1.1-1.6-2.9-2.5-5.7c0,0,1.2-5.8,0.8-8.5c0,0,0.3,8-3.9,13.5
			c0,0-7.9,11-12.2,8.8l8.4-16.7c0,0-6.9,13.3-9.2,17.1c-0.4,0.7-1.2,1.2-2,1.4c-1,0.1-2.4-0.1-3-1.9c-0.2-0.8-0.1-1.6,0.2-2.3
			l8.2-15.9l-7.8,14c-0.7,1.3-2.2,2.2-3.7,2.2c-1.2-0.1-2.3-0.8-2.2-3.1c0-0.7,0.2-1.4,0.5-2.1l7.1-14.8l-5.8,10.3
			c-0.5,0.8-1.1,1.5-2,1.8c-0.7,0.3-1.5,0.3-2.2-0.3c-1-0.8-1.3-2.2-0.7-3.3l3.2-6.9c0,0,5.3-14.3,11.1-19.8L1943,448.2z"/>
		<path class="st3" d="M1969.8,155.3c6-0.9,11.6,4.9,11.9,10.9c0.3,6.1-3.8,11.7-8.9,14.9c7.2,0.9,13.7,6.1,16.2,12.8
			c2.6,6.8,1.1,14.9-3.7,20.3c8,2,14.6,8.7,16.5,16.6c1.9,8-0.9,16.9-7.1,22.3c4.7,14.3-5.4,31.7-20.2,34.6
			c4.8,7.9,4.2,18.6-1.4,25.9c-5.6,7.3-15.8,10.7-24.6,8.2c0.9,19.3-16.1,36.4-35.1,39.8c-11.4,2.1-24.1-0.3-32.2-8.6
			c-8.1-8.3-9.7-23-1.6-31.3c-15.1-12-16.1-37.8-1.9-50.9c-11.6-4.8-20.7-15.3-23.7-27.4c-3.1-12.2,0-25.7,8-35.4
			c-10-5-16.5-16.2-15.9-27.4s8.3-21.6,18.8-25.5c0-16.3,2.2-21.7,11.1-28.3c8.9-6.7,30.1-7.4,39.4-1.3c2.8-7.8,7.3-15.3,14.4-19.5
			c7.1-4.2,17.2-4,22.8,2c1-7.5,6.8-14.2,14.1-16.1c7.3-2,15.7,0.8,20.3,6.8c4.5-12.5,23-17,32.7-7.9c5.3-4.1,13.6-2.2,18.2,2.6
			c4.7,4.8,6.5,11.7,7.4,18.4c5.8,2.1,9.4,9,7.8,15c-1.6,6-8.1,10.2-14.2,9.2c-0.8-3.9-1.6-7.8-2.3-11.8c1.5,7.4-20.1,9.4-17.3-5.1
			c-4.4,9.1-16.3,3.8-22.8,10.7C1987.2,139.7,1983.4,149.8,1969.8,155.3z"/>
		<path class="st2" d="M1941.4,453.4c-2.6-18.2,0.3-52,11.3-64.6c43.1-49.2,30.2-70.7,32.9-121.5c0.4-6.6,0.7-13.3,3.1-19.6
			c2.4-6.3,7.7-11.2,13.8-15c2.7-1.7,6.7-3.4,12.7-0.5c26.4,12.7,31,53.9,26,86.9c-6.4,42.2-26.2,113.9-86.3,141.3L1941.4,453.4z"/>
		<g>
			<path class="st2" d="M1990.9,109.4c0,0-30.6,5.2-29.9,40.1c0,0,1.2,26.8,17,37.8l-5.8,37.8l33,7.1l-6.8-28.9
				c0,0-11.8-6.9-14.8-17.1c0,0,8.1,20.9,32.8,22.7c0,0,27.4,3.1,33.4-30.7c0,0,2.9-14.8-4.2-23.4c0,0-3.4-4.5,0.6-13.6
				c0,0,3.7-9.6-1.4-19.2c-2.4-4.5-6.5-8-11.2-10C2026.4,108.8,2012,104.9,1990.9,109.4z"/>
			<path class="st4" d="M2023.7,180.4c5.1,4.1,12.2,5.6,18.5,3.9"/>
			<path class="st4" d="M2013.3,136.3c4.2-1,9,0.4,12,3.6"/>
			<g>
				<path class="st5" d="M2022.3,152.9c0.3,3-1.2,3.4-2.4,3.3c-1.2-0.1-2-2.8-1.8-4.7c0.1-1.9,1.1-2.2,2.3-2.2
					C2021.6,149.4,2022.1,151,2022.3,152.9z"/>
				<path class="st6" d="M2021.2,147.8c-0.3,0.8-0.7,1.5-1,2.3"/>
			</g>
			<g>
				<path class="st5" d="M2048,151.5c0.3,3-1.2,3.4-2.4,3.3c-1.2-0.1-2-2.8-1.8-4.7c0.1-1.9,1.1-2.2,2.3-2.2
					S2047.8,149.6,2048,151.5z"/>
				<path class="st6" d="M2046.9,146.4c-0.3,0.8-0.7,1.5-1,2.3"/>
			</g>
			<path class="st4" d="M2042.6,140.3c0.6-2.1,2.9-3.6,5-3.4"/>
			<path class="st2" d="M1991,152.6l0.3,7.8c0,0-5.1-8.6-10.8-6.1c0,0-7.4,2.1-3.8,11.2c1.1,2.9,3,5.5,5.4,7.6
				c3.5,3.2,9.1,7,11.9,1.6"/>
			<polygon class="st2" points="1988.5,171.2 1996.7,173.2 1992.4,183 1997.2,184.6 1992.4,212.7 1991.7,188.7 1986.6,185.5 			"/>
			<path class="st2" d="M2038.5,144.4l18.9,27.8c0,0-4.8,1.4-14.2-2.1"/>
		</g>
		<path class="st7" d="M2003.3,222.8l13.9,11.2l31.7,62.1l-16.7,19.7l4.1,56.5l-67.9,16.3c0,0-22.5-84.3-29.4-124.7l-2.2-22.2
			l10-5.8l16.4-14.4l10-2.5l-1.1,6.8l33,6.3L2003.3,222.8z"/>
		<polygon class="st2" points="2148.2,707.5 2163.2,748.5 2210,773.9 2124.9,767.9 2128.7,744.5 2125.5,723.4 		"/>
		<polygon class="st2" points="1900.9,740.4 1883.1,765.6 1940.1,784.7 1839.2,784 1854.2,767.9 1871.2,739.9 		"/>
		<path class="st7" d="M2038.4,419.8c-20-3.1-37.1,19.1-37.1,19.1c-15.3,17.6-4.7,47.2-4.7,47.2c24.4,41.7,63.7,59.7,82.2,104.3
			c15,36.1-11.4,86.6,39.3,147.6l32.4-24.2c-0.1-90.4-30.3-191.3-72.6-271.2C2077.9,442.6,2062.7,422.9,2038.4,419.8z"/>
		<g>
			<path class="st7" d="M2023,473c7.5-13.8,13.1-31.3,12.5-47c-23.3-15.9-48-38-48-38l-18.9,7c-23.9,45.4-40.4,94.7-48.7,145.3
				c-6.5,39.5,2.7,42.8-5.6,83.9c-2.9,14.3-36.2,52.6-43,65.5c-7.5,14.2-21.6,36.7-24.6,65.1l46.1-1.2
				c36.8-36,83.6-96.5,102.9-142.5c19.3-45.9,31-96,26.3-145.6"/>
		</g>
		<path class="st8" d="M2038.7,438.2c0.5,12.7-3.1,25.5-10.1,36.1c-1.2,1.8-2.6,3.7-3.1,5.8c-0.6,2.1-0.3,4.3-0.1,6.5
			c1.6,17-2.6,51.9-6,68.5"/>
		<path class="st2" d="M2089.9,453.3c-3-20.6-16.9-56.4-32.9-66.6c-62.6-39.7-55.4-67.2-74.6-121.6c-2.5-7-5-14.2-9.6-20.3
			s-12-9.7-19.8-11.9c-3.5-1-8.3-1.6-14,3.5c-24.7,22.2-4.7,79.6,11.2,113.8c20.4,43.8,72.7,97.6,127.2,115.1L2089.9,453.3z"/>
		<path class="st2" d="M2077.4,465.3l12.3-11.4l5.9,6.3c0,0,7.8,2,10.6,2c0,0,9.9,0.2,11.8,1.3c0,0,6.3,5.7,7.9,6.1
			c0,0,4.3,0.5,7.1,2.2c2.3,1.4,1.6,5-1.1,5.3c-1.7,0.2-4.2,0.1-8-0.7c0,0-5.8-4.9-9.1-6.1c0,0,9.3,4.5,12.9,12.7
			c0,0,7.6,15.7,2.5,19.2l-13.7-19.7c0,0,10.9,15.9,13.8,20.8c0.6,1,0.7,2.1,0.3,3.1c-0.5,1.3-1.6,2.6-4,2.2c-1-0.2-1.9-0.8-2.4-1.7
			l-13-18.9l11.1,17.4c1.1,1.7,1.2,3.8,0.2,5.5c-0.8,1.3-2.2,2.1-4.8,0.6c-0.8-0.5-1.5-1.1-2.1-1.8l-12.4-17.1l8.2,12.8
			c0.6,1,1,2.2,0.8,3.4c-0.1,0.9-0.6,1.9-1.7,2.4c-1.5,0.7-3.3,0.1-4.2-1.2l-5.9-7.8c0,0-12.9-14.7-15.6-24.6L2077.4,465.3z"/>
		<path class="st7" d="M2015,100.3c4.7-1.5,10.2-1,14.2,2s6,8.6,4.2,13.2c-1.4,3.6-4.8,6.1-8.4,7.3c-3.6,1.3-7.5,1.5-11.3,1.7
			c0.7,0.2,1.3,0.4,2,0.6c2,4.5-0.3,10-4.1,13.1c-3.8,3.1-8.8,4.3-13.7,5c3.6,4.3,2.3,11.5-0.8,16.1s-9.5,6.7-14.8,4.9
			c6.6,3.8,10,12.4,7.9,19.8s-9.6,12.7-17.3,12.4c7.8-0.7,14.1,7.6,14.2,15.5c0.1,7.9-4,15.1-8.1,21.8c5.2,5.7,6.4,14.7,1.8,20.9
			c-4.6,6.2-13.7,8.5-20.7,5.2c2.3,5.7,0.3,12.6-4.1,17c-4.3,4.4-10.5,6.5-16.7,7.1c-6.9,0.6-14.1-0.6-19.7-4.6s-9.2-11.1-8.1-17.8
			c-10.6-4.9-17.7-16.5-17.3-28.1c0.5-11.7,8.5-22.7,19.4-26.7c-8.3-6.6-12-18.4-9.2-28.6c2.9-10.2,12.3-18.2,22.8-19.5
			c-3.1-5.7-2.5-13.3,1.5-18.4s11.2-7.6,17.5-6c-0.5-7.8,4-15.6,11-19.1s15.9-2.5,21.9,2.5c0.4-4.8,4.1-9.2,8.7-10.6
			c4.6-1.4,10.1,0.4,13,4.3C2002.9,105.5,2009.5,102,2015,100.3z"/>
	</g>
</g>
<g>
	<g>
		<g>
			<g>
				<g>
					<path class="st2" d="M798,493.4c3.6,0.9,11.8,3.5,13.5,3.4c2.6-0.2,3.5-3.6,1.3-5.1c-2.6-1.7-11.1-7.7-11.1-7.7
						c-1.5-0.5-7.4-6.3-7.4-6.3c-1.8-1.1-11.3-1.8-11.3-1.8c-2.7-0.1-11.6,0.5-11.6,0.5l-5.4-6.3l-12.4,10.5l6.5,12
						c2.2,9.7,14,24.4,14,24.4l5.3,7.8c0.9,1.3,2.6,1.9,4,1.4c1.1-0.4,1.6-1.3,1.7-2.2c0.2-1.1-0.1-2.3-0.6-3.3l-7.3-12.7l11.2,17
						c0.5,0.7,1.1,1.4,1.9,1.9c2.4,1.5,3.9,0.8,4.7-0.4c1.1-1.6,1-3.6,0.1-5.3l-9.9-17.3l11.6,18.8c0.5,0.8,1.3,1.5,2.3,1.7
						c2.3,0.6,3.4-0.7,3.9-1.9c0.4-1,0.4-2.1-0.1-3c-2.5-4.9-12.3-20.6-12.3-20.6l12.4,19.5c10.7,4.5-1.5-18.6-1.5-18.6
						C800.1,498.2,799,495.1,798,493.4z"/>
					<path class="st4" d="M777.3,486.1c3.2,3.4,8.3,4.8,12.7,3.5"/>
				</g>
				<g>
					<path class="st2" d="M765.1,471.3c-0.4-20.1-9.4-56-23.5-67.6c-55.1-45.5-44.8-70.9-56.7-125.2c-1.5-7-3.1-14.2-6.7-20.6
						s-10.3-10.7-17.5-13.8c-3.2-1.3-7.8-2.5-13.8,1.7c-26.3,18.3-14.1,75.5-3,110.2c14.2,44.4,57.8,102,107.8,125.3L765.1,471.3z"
						/>
				</g>
				<path class="st3" d="M620.2,145.3c6-0.9,11.6,4.9,11.9,10.9c0.3,6.1-3.8,11.7-8.9,14.9c7.2,0.9,13.7,6.1,16.2,12.8
					c2.6,6.8,1.1,14.9-3.7,20.3c8,2,14.6,8.7,16.5,16.6c1.9,8-0.9,16.9-7.1,22.3c4.7,14.3-5.4,31.7-20.2,34.6
					c4.8,7.9,4.2,18.6-1.4,25.9c-5.6,7.3-15.8,10.7-24.6,8.2c0.9,19.3-16.1,36.4-35.1,39.8c-11.4,2.1-24.1-0.3-32.2-8.6
					c-8.1-8.3-9.7-23-1.6-31.3c-15.1-12-16.1-37.8-1.9-50.9c-11.6-4.8-20.7-15.3-23.7-27.4c-3.1-12.2,0-25.7,8-35.4
					c-10-5-16.5-16.2-15.9-27.4s8.3-21.6,18.8-25.5c0-16.3,2.2-21.7,11.1-28.3s30.1-7.4,39.4-1.3c2.8-7.8,7.3-15.3,14.4-19.5
					c7.1-4.2,17.2-4,22.8,2c1-7.5,6.8-14.2,14.1-16.1c7.3-2,15.7,0.8,20.3,6.8c4.5-12.5,23-17,32.7-7.9c5.3-4.1,13.6-2.2,18.2,2.6
					s6.5,11.7,7.4,18.4c5.8,2.1,9.4,9,7.8,15c-1.6,6-8.1,10.2-14.2,9.2c-0.8-3.9-1.6-7.8-2.3-11.8c1.5,7.4-20.1,9.4-17.3-5.1
					c-4.4,9.1-16.3,3.8-22.8,10.7C637.6,129.7,633.8,139.8,620.2,145.3z"/>
				<g>
					<path class="st2" d="M641.3,109.4c0,0-30.6,5.2-29.9,40.1c0,0,1.2,26.8,17,37.8l-5.8,37.8l33,7.1l-6.8-28.9
						c0,0-11.8-6.9-14.8-17.1c0,0,8.1,20.9,32.8,22.7c0,0,27.4,3.1,33.4-30.7c0,0,2.9-14.8-4.2-23.4c0,0-3.4-4.5,0.6-13.6
						c0,0,3.7-9.6-1.4-19.2c-2.4-4.5-6.5-8-11.2-10C676.8,108.8,662.4,104.9,641.3,109.4z"/>
					<path class="st4" d="M674.1,180.4c5.1,4.1,12.2,5.6,18.5,3.9"/>
					<path class="st4" d="M663.7,136.3c4.2-1,9,0.4,12,3.6"/>
					<g>
						<path class="st5" d="M672.7,152.9c0.3,3-1.2,3.4-2.4,3.3c-1.2-0.1-2-2.8-1.8-4.7c0.1-1.9,1.1-2.2,2.3-2.2
							C672,149.4,672.5,151,672.7,152.9z"/>
						<path class="st6" d="M671.6,147.8c-0.3,0.8-0.7,1.5-1,2.3"/>
					</g>
					<g>
						<path class="st5" d="M698.4,151.5c0.3,3-1.2,3.4-2.4,3.3c-1.2-0.1-2-2.8-1.8-4.7c0.1-1.9,1.1-2.2,2.3-2.2
							S698.2,149.6,698.4,151.5z"/>
						<path class="st6" d="M697.3,146.4c-0.3,0.8-0.7,1.5-1,2.3"/>
					</g>
					<path class="st4" d="M693,140.3c0.6-2.1,2.9-3.6,5-3.4"/>
					<path class="st2" d="M641.4,152.6l0.3,7.8c0,0-5.1-8.6-10.8-6.1c0,0-7.4,2.1-3.8,11.2c1.1,2.9,3,5.5,5.4,7.6
						c3.5,3.2,9.1,7,11.9,1.6"/>
					<polygon class="st2" points="638.9,171.2 647.1,173.2 642.8,183 647.6,184.6 642.8,212.7 642.1,188.7 637,185.5 					"/>
					<path class="st2" d="M688.9,144.4l18.9,27.8c0,0-4.8,1.4-14.2-2.1"/>
				</g>
				<path class="st7" d="M653.7,222.8l13.9,11.2l31.7,62.1l-16.7,19.7l4.1,56.5l-67.9,16.3c0,0-22.5-84.3-29.4-124.7l-2.2-22.2
					l10-5.8l16.4-14.4l10-2.5l-1.1,6.8l33,6.3L653.7,222.8z"/>
				<polygon class="st2" points="551.3,740.4 533.5,765.6 590.5,784.7 489.6,784 504.6,767.9 521.6,739.9 				"/>
				<path class="st8" d="M688.1,431.5c0.5,12.7-3.1,25.5-10.1,36.1c-1.2,1.8-2.6,3.7-3.1,5.8c-0.6,2.1-0.3,4.3-0.1,6.5
					c1.6,17-2.6,51.9-6,68.5"/>
				<path class="st7" d="M665.4,100.3c4.7-1.5,10.2-1,14.2,2s6,8.6,4.2,13.2c-1.4,3.6-4.8,6.1-8.4,7.3c-3.6,1.3-7.5,1.5-11.3,1.7
					c0.7,0.2,1.3,0.4,2,0.6c2,4.5-0.3,10-4.1,13.1s-8.8,4.3-13.7,5c3.6,4.3,2.3,11.5-0.8,16.1s-9.5,6.7-14.8,4.9
					c6.6,3.8,10,12.4,7.9,19.8c-2.1,7.3-9.6,12.7-17.3,12.4c7.8-0.7,14.1,7.6,14.2,15.5c0.1,7.9-4,15.1-8.1,21.8
					c5.2,5.7,6.4,14.7,1.8,20.9c-4.6,6.2-13.7,8.5-20.7,5.2c2.3,5.7,0.3,12.6-4.1,17c-4.3,4.4-10.5,6.5-16.7,7.1
					c-6.9,0.6-14.1-0.6-19.7-4.6c-5.6-4-9.2-11.1-8.1-17.8c-10.6-4.9-17.7-16.5-17.3-28.1c0.5-11.7,8.5-22.7,19.4-26.7
					c-8.3-6.6-12-18.4-9.2-28.6c2.9-10.2,12.3-18.2,22.8-19.5c-3.1-5.7-2.5-13.3,1.5-18.4c4-5.1,11.2-7.6,17.5-6
					c-0.5-7.8,4-15.6,11-19.1s15.9-2.5,21.9,2.5c0.4-4.8,4.1-9.2,8.7-10.6c4.7-1.4,10.1,0.4,13,4.3
					C653.3,105.5,659.9,102,665.4,100.3z"/>
				<path class="st9" d="M637.9,388.1l49.3-11.4l-0.1,31.1l-1.2,22.5c-0.4,14.5-5.7,30.2-12.5,42.7l-1-7.2
					c4.6,49.6-7,99.7-26.3,145.6S580,717.9,543.2,753.9L497,755c3.1-28.5,17.1-51,24.6-65.2c6.9-12.9,40.1-51.2,43-65.5
					c8.3-41.1-0.8-44.4,5.6-83.9c8.3-50.6,24.8-99.9,48.7-145.3l16.2-6L637.9,388.1z"/>
				<polygon class="st2" points="686.7,372.4 618.8,388.7 619,395.1 687.2,376.7 				"/>
			</g>
		</g>
		<g>
			<polygon class="st2" points="788,727.7 805.1,758.3 862.4,784 766.6,780.5 773.6,765.3 763.1,743.1 			"/>
			<path class="st7" d="M620.8,390c-8.5-10.3-13.9,26.9-19.6,39c-4.9,10.6-9.9,21.8-9.4,33.6c0.3,6.4,2.2,12.5,4.5,18.4
				c18.4,47.3,59.6,81,84,125.3c13.4,24.4,21.4,51.4,31.6,77.4c10.1,26,23,51.8,43.7,70l34.5-26c0,0,6.9-113.2-105.1-280.2
				C685.1,447.6,643.4,417.2,620.8,390z"/>
		</g>
		<path class="st8" d="M593.6,455.5c-0.4,9.6-0.8,19.4,2.4,28.5c3.1,8.7,9.2,16,15,23.2c18,22.3,34.1,46.2,48.1,71.1"/>
	</g>
	<g>
		<path class="st2" d="M582.3,500.4c12.2-16.9,27-52.3,22.6-70.7c-17.4-72.1,6.9-86.8,30.9-139.2c3.1-6.8,6.3-13.7,7.2-21.3
			c1-7.6-1.9-15.3-6-22.3c-1.8-3.1-4.9-6.9-12.5-7.2c-33.2-1.2-58.7,53.9-71,89.6C537.7,375,538,450,565,500.4L582.3,500.4z"/>
		<path class="st2" d="M564.9,500.3l16.8,0.3l-0.1,8.6c0,0,4.2,6.8,6.2,8.8c0,0,7,7.1,7.6,9.1c0,0,0.6,8.5,1.4,9.9
			c0,0,2.7,3.4,3.6,6.5c0.7,2.6-2.3,4.7-4.5,3c-1.4-1.1-3.1-2.9-5.3-6c0,0-0.7-7.6-2.3-10.8c0,0,3.5,9.7,0.5,18.1
			c0,0-5.4,16.5-11.5,15.5l3.8-23.7c0,0-3.2,19-4.6,24.5c-0.3,1.1-1,2-2,2.5c-1.2,0.6-2.9,0.8-4.4-1.2c-0.6-0.8-0.8-1.9-0.6-2.9
			l3.8-22.6l-4.1,20.2c-0.4,1.9-1.8,3.6-3.7,4.1c-1.5,0.4-3.1-0.1-3.9-2.9c-0.3-0.9-0.3-1.8-0.2-2.8l3-20.9l-3,14.9
			c-0.2,1.2-0.8,2.3-1.8,3c-0.7,0.6-1.7,1-2.9,0.6c-1.5-0.6-2.4-2.2-2.2-3.8l1.2-9.7c0,0,0.9-19.6,5.9-28.6L564.9,500.3z"/>
	</g>
</g>
<g>
	<g>
		<g>
			<g>
				<g>
					<path class="st2" d="M1699.8,493.4c3.6,0.9,11.8,3.5,13.5,3.4c2.6-0.2,3.5-3.6,1.3-5.1c-2.6-1.7-11.1-7.7-11.1-7.7
						c-1.5-0.5-7.4-6.3-7.4-6.3c-1.8-1.1-11.3-1.8-11.3-1.8c-2.7-0.1-11.6,0.5-11.6,0.5l-5.4-6.3l-12.4,10.5l6.5,12
						c2.2,9.7,14,24.4,14,24.4l5.3,7.8c0.9,1.3,2.6,1.9,4,1.4c1.1-0.4,1.6-1.3,1.7-2.2c0.2-1.1-0.1-2.3-0.6-3.3L1679,508l11.2,17
						c0.5,0.7,1.1,1.4,1.9,1.9c2.4,1.5,3.9,0.8,4.7-0.4c1.1-1.6,1-3.6,0.1-5.3l-9.9-17.3l11.6,18.8c0.5,0.8,1.3,1.5,2.3,1.7
						c2.3,0.6,3.4-0.7,3.9-1.9c0.4-1,0.4-2.1-0.1-3c-2.5-4.9-12.3-20.6-12.3-20.6l12.4,19.5c10.7,4.5-1.5-18.6-1.5-18.6
						C1701.9,498.2,1700.8,495.1,1699.8,493.4z"/>
					<path class="st4" d="M1679.1,486.1c3.2,3.4,8.3,4.8,12.7,3.5"/>
				</g>
				<g>
					<path class="st2" d="M1666.9,471.3c-0.4-20.1-9.4-56-23.5-67.6c-55.1-45.5-44.8-70.9-56.7-125.2c-1.5-7-3.1-14.2-6.7-20.6
						c-3.6-6.4-10.3-10.7-17.5-13.8c-3.2-1.3-7.8-2.5-13.8,1.7c-26.3,18.3-14.1,75.5-3,110.2c14.2,44.4,57.8,102,107.8,125.3
						L1666.9,471.3z"/>
				</g>
				<path class="st3" d="M1522,145.3c6-0.9,11.6,4.9,11.9,10.9c0.3,6.1-3.8,11.7-8.9,14.9c7.2,0.9,13.7,6.1,16.2,12.8
					c2.6,6.8,1.1,14.9-3.7,20.3c8,2,14.6,8.7,16.5,16.6c1.9,8-0.9,16.9-7.1,22.3c4.7,14.3-5.4,31.7-20.2,34.6
					c4.8,7.9,4.2,18.6-1.4,25.9s-15.8,10.7-24.6,8.2c0.9,19.3-16.1,36.4-35.1,39.8c-11.4,2.1-24.1-0.3-32.2-8.6
					c-8.1-8.3-9.7-23-1.6-31.3c-15.1-12-16.1-37.8-1.9-50.9c-11.6-4.8-20.7-15.3-23.7-27.4c-3.1-12.2,0-25.7,8-35.4
					c-10-5-16.5-16.2-15.9-27.4s8.3-21.6,18.8-25.5c0-16.3,2.2-21.7,11.1-28.3s30.1-7.4,39.4-1.3c2.8-7.8,7.3-15.3,14.4-19.5
					c7.1-4.2,17.2-4,22.8,2c1-7.5,6.8-14.2,14.1-16.1c7.3-2,15.7,0.8,20.3,6.8c4.5-12.5,23-17,32.7-7.9c5.3-4.1,13.6-2.2,18.2,2.6
					c4.6,4.8,6.5,11.7,7.4,18.4c5.8,2.1,9.4,9,7.8,15c-1.6,6-8.1,10.2-14.2,9.2c-0.8-3.9-1.6-7.8-2.3-11.8
					c1.5,7.4-20.1,9.4-17.3-5.1c-4.4,9.1-16.3,3.8-22.8,10.7C1539.4,129.7,1535.6,139.8,1522,145.3z"/>
				<g>
					<path class="st2" d="M1543.1,109.4c0,0-30.6,5.2-29.9,40.1c0,0,1.2,26.8,17,37.8l-5.8,37.8l33,7.1l-6.8-28.9
						c0,0-11.8-6.9-14.8-17.1c0,0,8.1,20.9,32.8,22.7c0,0,27.4,3.1,33.4-30.7c0,0,2.9-14.8-4.2-23.4c0,0-3.4-4.5,0.6-13.6
						c0,0,3.7-9.6-1.4-19.2c-2.4-4.5-6.5-8-11.2-10C1578.6,108.8,1564.2,104.9,1543.1,109.4z"/>
					<path class="st4" d="M1575.9,180.4c5.1,4.1,12.2,5.6,18.5,3.9"/>
					<path class="st4" d="M1565.5,136.3c4.2-1,9,0.4,12,3.6"/>
					<g>
						<path class="st5" d="M1574.5,152.9c0.3,3-1.2,3.4-2.4,3.3c-1.2-0.1-2-2.8-1.8-4.7c0.1-1.9,1.1-2.2,2.3-2.2
							C1573.8,149.4,1574.3,151,1574.5,152.9z"/>
						<path class="st6" d="M1573.4,147.8c-0.3,0.8-0.7,1.5-1,2.3"/>
					</g>
					<g>
						<path class="st5" d="M1600.2,151.5c0.3,3-1.2,3.4-2.4,3.3c-1.2-0.1-2-2.8-1.8-4.7c0.1-1.9,1.1-2.2,2.3-2.2
							C1599.5,147.9,1600,149.6,1600.2,151.5z"/>
						<path class="st6" d="M1599.1,146.4c-0.3,0.8-0.7,1.5-1,2.3"/>
					</g>
					<path class="st4" d="M1594.8,140.3c0.6-2.1,2.9-3.6,5-3.4"/>
					<path class="st2" d="M1543.2,152.6l0.3,7.8c0,0-5.1-8.6-10.8-6.1c0,0-7.4,2.1-3.8,11.2c1.1,2.9,3,5.5,5.4,7.6
						c3.5,3.2,9.1,7,11.9,1.6"/>
					<polygon class="st2" points="1540.7,171.2 1548.9,173.2 1544.6,183 1549.4,184.6 1544.6,212.7 1543.9,188.7 1538.8,185.5 					
						"/>
					<path class="st2" d="M1590.7,144.4l18.9,27.8c0,0-4.8,1.4-14.2-2.1"/>
				</g>
				<path class="st7" d="M1555.5,222.8l13.9,11.2l31.7,62.1l-16.7,19.7l4.1,56.5l-67.9,16.3c0,0-22.5-84.3-29.4-124.7l-2.2-22.2
					l10-5.8l16.4-14.4l10-2.5l-1.1,6.8l33,6.3L1555.5,222.8z"/>
				<polygon class="st2" points="1453.1,740.4 1435.3,765.6 1492.3,784.7 1391.4,784 1406.4,767.9 1423.4,739.9 				"/>
				<path class="st8" d="M1589.9,431.5c0.5,12.7-3.1,25.5-10.1,36.1c-1.2,1.8-2.6,3.7-3.1,5.8c-0.6,2.1-0.3,4.3-0.1,6.5
					c1.6,17-2.6,51.9-6,68.5"/>
				<path class="st7" d="M1567.2,100.3c4.7-1.5,10.2-1,14.2,2s6,8.6,4.2,13.2c-1.4,3.6-4.8,6.1-8.4,7.3c-3.6,1.3-7.5,1.5-11.3,1.7
					c0.7,0.2,1.3,0.4,2,0.6c2,4.5-0.3,10-4.1,13.1c-3.8,3.1-8.8,4.3-13.7,5c3.6,4.3,2.3,11.5-0.8,16.1s-9.5,6.7-14.8,4.9
					c6.6,3.8,10,12.4,7.9,19.8c-2.1,7.3-9.6,12.7-17.3,12.4c7.8-0.7,14.1,7.6,14.2,15.5c0.1,7.9-4,15.1-8.1,21.8
					c5.2,5.7,6.4,14.7,1.8,20.9c-4.6,6.2-13.7,8.5-20.7,5.2c2.3,5.7,0.3,12.6-4.1,17c-4.3,4.4-10.5,6.5-16.7,7.1
					c-6.9,0.6-14.1-0.6-19.7-4.6s-9.2-11.1-8.1-17.8c-10.6-4.9-17.7-16.5-17.3-28.1c0.5-11.7,8.5-22.7,19.4-26.7
					c-8.3-6.6-12-18.4-9.2-28.6c2.9-10.2,12.3-18.2,22.8-19.5c-3.1-5.7-2.5-13.3,1.5-18.4c4-5.1,11.2-7.6,17.5-6
					c-0.5-7.8,4-15.6,11-19.1s15.9-2.5,21.9,2.5c0.4-4.8,4.1-9.2,8.7-10.6c4.7-1.4,10.1,0.4,13,4.3
					C1555.1,105.5,1561.7,102,1567.2,100.3z"/>
				<path class="st9" d="M1539.7,388.1l49.3-11.4l-0.1,31.1l-1.2,22.5c-0.4,14.5-5.7,30.2-12.5,42.7l-1-7.2
					c4.6,49.6-7,99.7-26.3,145.6c-19.3,45.9-66.1,106.5-102.9,142.5l-46.2,1.1c3.1-28.5,17.1-51,24.6-65.2
					c6.9-12.9,40.1-51.2,43-65.5c8.3-41.1-0.8-44.4,5.6-83.9c8.3-50.6,24.8-99.9,48.7-145.3l16.2-6L1539.7,388.1z"/>
				<polygon class="st2" points="1588.5,372.4 1520.6,388.7 1520.8,395.1 1589,376.7 				"/>
			</g>
		</g>
		<g>
			<polygon class="st2" points="1689.8,727.7 1706.9,758.3 1764.2,784 1668.4,780.5 1675.4,765.3 1664.9,743.1 			"/>
			<path class="st7" d="M1522.6,390c-8.5-10.3-13.9,26.9-19.6,39c-4.9,10.6-9.9,21.8-9.4,33.6c0.3,6.4,2.2,12.5,4.5,18.4
				c18.4,47.3,59.6,81,84,125.3c13.4,24.4,21.4,51.4,31.6,77.4c10.1,26,23,51.8,43.7,70l34.5-26c0,0,6.9-113.2-105.1-280.2
				C1586.9,447.6,1545.2,417.2,1522.6,390z"/>
		</g>
		<path class="st8" d="M1495.4,455.5c-0.4,9.6-0.8,19.4,2.4,28.5c3.1,8.7,9.2,16,15,23.2c18,22.3,34.1,46.2,48.1,71.1"/>
	</g>
	<g>
		<path class="st2" d="M1484.1,500.4c12.2-16.9,27-52.3,22.6-70.7c-17.4-72.1,6.9-86.8,30.9-139.2c3.1-6.8,6.3-13.7,7.2-21.3
			c1-7.6-1.9-15.3-6-22.3c-1.8-3.1-4.9-6.9-12.5-7.2c-33.2-1.2-58.7,53.9-71,89.6c-15.8,45.7-15.5,120.7,11.5,171.1L1484.1,500.4z"
			/>
		<path class="st2" d="M1466.7,500.3l16.8,0.3l-0.1,8.6c0,0,4.2,6.8,6.2,8.8c0,0,7,7.1,7.6,9.1c0,0,0.6,8.5,1.4,9.9
			c0,0,2.7,3.4,3.6,6.5c0.7,2.6-2.3,4.7-4.5,3c-1.4-1.1-3.1-2.9-5.3-6c0,0-0.7-7.6-2.3-10.8c0,0,3.5,9.7,0.5,18.1
			c0,0-5.4,16.5-11.5,15.5l3.8-23.7c0,0-3.2,19-4.6,24.5c-0.3,1.1-1,2-2,2.5c-1.2,0.6-2.9,0.8-4.4-1.2c-0.6-0.8-0.8-1.9-0.6-2.9
			l3.8-22.6l-4.1,20.2c-0.4,1.9-1.8,3.6-3.7,4.1c-1.5,0.4-3.1-0.1-3.9-2.9c-0.3-0.9-0.3-1.8-0.2-2.8l3-20.9l-3,14.9
			c-0.2,1.2-0.8,2.3-1.8,3c-0.7,0.6-1.7,1-2.9,0.6c-1.5-0.6-2.4-2.2-2.2-3.8l1.2-9.7c0,0,0.9-19.6,5.9-28.6L1466.7,500.3z"/>
	</g>
</g>
<g>
	<g>
		<g>
			<g>
				<g>
					<path class="st2" d="M2598.7,493.4c3.6,0.9,11.8,3.5,13.5,3.4c2.6-0.2,3.5-3.6,1.3-5.1c-2.6-1.7-11.1-7.7-11.1-7.7
						c-1.5-0.5-7.4-6.3-7.4-6.3c-1.8-1.1-11.3-1.8-11.3-1.8c-2.7-0.1-11.6,0.5-11.6,0.5l-5.4-6.3l-12.4,10.5l6.5,12
						c2.2,9.7,14,24.4,14,24.4l5.3,7.8c0.9,1.3,2.6,1.9,4,1.4c1.1-0.4,1.6-1.3,1.7-2.2c0.2-1.1-0.1-2.3-0.6-3.3l-7.3-12.7l11.2,17
						c0.5,0.7,1.1,1.4,1.9,1.9c2.4,1.5,3.9,0.8,4.7-0.4c1.1-1.6,1-3.6,0.1-5.3l-9.9-17.3l11.6,18.8c0.5,0.8,1.3,1.5,2.3,1.7
						c2.3,0.6,3.4-0.7,3.9-1.9c0.4-1,0.4-2.1-0.1-3c-2.5-4.9-12.3-20.6-12.3-20.6l12.4,19.5c10.7,4.5-1.5-18.6-1.5-18.6
						C2600.8,498.2,2599.7,495.1,2598.7,493.4z"/>
					<path class="st4" d="M2578,486.1c3.2,3.4,8.3,4.8,12.7,3.5"/>
				</g>
				<g>
					<path class="st2" d="M2565.8,471.3c-0.4-20.1-9.4-56-23.5-67.6c-55.1-45.5-44.8-70.9-56.7-125.2c-1.5-7-3.1-14.2-6.7-20.6
						s-10.3-10.7-17.5-13.8c-3.2-1.3-7.8-2.5-13.8,1.7c-26.3,18.3-14.1,75.5-3,110.2c14.2,44.4,57.8,102,107.8,125.3L2565.8,471.3z"
						/>
				</g>
				<path class="st3" d="M2420.9,145.3c6-0.9,11.6,4.9,11.9,10.9c0.3,6.1-3.8,11.7-8.9,14.9c7.2,0.9,13.7,6.1,16.2,12.8
					c2.6,6.8,1.1,14.9-3.7,20.3c8,2,14.6,8.7,16.5,16.6c1.9,8-0.9,16.9-7.1,22.3c4.7,14.3-5.4,31.7-20.2,34.6
					c4.8,7.9,4.2,18.6-1.4,25.9s-15.8,10.7-24.6,8.2c0.9,19.3-16.1,36.4-35.1,39.8c-11.4,2.1-24.1-0.3-32.2-8.6
					c-8.1-8.3-9.7-23-1.6-31.3c-15.1-12-16.1-37.8-1.9-50.9c-11.6-4.8-20.7-15.3-23.7-27.4c-3.1-12.2,0-25.7,8-35.4
					c-10-5-16.5-16.2-15.9-27.4s8.3-21.6,18.8-25.5c0-16.3,2.2-21.7,11.1-28.3c8.9-6.6,30.1-7.4,39.4-1.3
					c2.8-7.8,7.3-15.3,14.4-19.5c7.1-4.2,17.2-4,22.8,2c1-7.5,6.8-14.2,14.1-16.1c7.3-2,15.7,0.8,20.3,6.8c4.5-12.5,23-17,32.7-7.9
					c5.3-4.1,13.6-2.2,18.2,2.6s6.5,11.7,7.4,18.4c5.8,2.1,9.4,9,7.8,15c-1.6,6-8.1,10.2-14.2,9.2c-0.8-3.9-1.6-7.8-2.3-11.8
					c1.5,7.4-20.1,9.4-17.3-5.1c-4.4,9.1-16.3,3.8-22.8,10.7C2438.3,129.7,2434.5,139.8,2420.9,145.3z"/>
				<g>
					<path class="st2" d="M2442,109.4c0,0-30.6,5.2-29.9,40.1c0,0,1.2,26.8,17,37.8l-5.8,37.8l33,7.1l-6.8-28.9
						c0,0-11.8-6.9-14.8-17.1c0,0,8.1,20.9,32.8,22.7c0,0,27.4,3.1,33.4-30.7c0,0,2.9-14.8-4.2-23.4c0,0-3.4-4.5,0.6-13.6
						c0,0,3.7-9.6-1.4-19.2c-2.4-4.5-6.5-8-11.2-10C2477.5,108.8,2463.1,104.9,2442,109.4z"/>
					<path class="st4" d="M2474.8,180.4c5.1,4.1,12.2,5.6,18.5,3.9"/>
					<path class="st4" d="M2464.4,136.3c4.2-1,9,0.4,12,3.6"/>
					<g>
						<path class="st5" d="M2473.4,152.9c0.3,3-1.2,3.4-2.4,3.3c-1.2-0.1-2-2.8-1.8-4.7c0.1-1.9,1.1-2.2,2.3-2.2
							C2472.7,149.4,2473.2,151,2473.4,152.9z"/>
						<path class="st6" d="M2472.3,147.8c-0.3,0.8-0.7,1.5-1,2.3"/>
					</g>
					<g>
						<path class="st5" d="M2499.1,151.5c0.3,3-1.2,3.4-2.4,3.3c-1.2-0.1-2-2.8-1.8-4.7c0.1-1.9,1.1-2.2,2.3-2.2
							S2498.9,149.6,2499.1,151.5z"/>
						<path class="st6" d="M2498,146.4c-0.3,0.8-0.7,1.5-1,2.3"/>
					</g>
					<path class="st4" d="M2493.7,140.3c0.6-2.1,2.9-3.6,5-3.4"/>
					<path class="st2" d="M2442.1,152.6l0.3,7.8c0,0-5.1-8.6-10.8-6.1c0,0-7.4,2.1-3.8,11.2c1.1,2.9,3,5.5,5.4,7.6
						c3.5,3.2,9.1,7,11.9,1.6"/>
					<polygon class="st2" points="2439.6,171.2 2447.8,173.2 2443.5,183 2448.3,184.6 2443.5,212.7 2442.8,188.7 2437.7,185.5 					
						"/>
					<path class="st2" d="M2489.6,144.4l18.9,27.8c0,0-4.8,1.4-14.2-2.1"/>
				</g>
				<path class="st7" d="M2454.4,222.8l13.9,11.2l31.7,62.1l-16.7,19.7l4.1,56.5l-67.9,16.3c0,0-22.5-84.3-29.4-124.7l-2.2-22.2
					l10-5.8l16.4-14.4l10-2.5l-1.1,6.8l33,6.3L2454.4,222.8z"/>
				<polygon class="st2" points="2352,740.4 2334.2,765.6 2391.2,784.7 2290.3,784 2305.3,767.9 2322.3,739.9 				"/>
				<path class="st8" d="M2488.8,431.5c0.5,12.7-3.1,25.5-10.1,36.1c-1.2,1.8-2.6,3.7-3.1,5.8c-0.6,2.1-0.3,4.3-0.1,6.5
					c1.6,17-2.6,51.9-6,68.5"/>
				<path class="st7" d="M2466.1,100.3c4.7-1.5,10.2-1,14.2,2s6,8.6,4.2,13.2c-1.4,3.6-4.8,6.1-8.4,7.3c-3.6,1.3-7.5,1.5-11.3,1.7
					c0.7,0.2,1.3,0.4,2,0.6c2,4.5-0.3,10-4.1,13.1s-8.8,4.3-13.7,5c3.6,4.3,2.3,11.5-0.8,16.1c-3.1,4.6-9.5,6.7-14.8,4.9
					c6.6,3.8,10,12.4,7.9,19.8c-2.1,7.3-9.6,12.7-17.3,12.4c7.8-0.7,14.1,7.6,14.2,15.5c0.1,7.9-4,15.1-8.1,21.8
					c5.2,5.7,6.4,14.7,1.8,20.9c-4.6,6.2-13.7,8.5-20.7,5.2c2.3,5.7,0.3,12.6-4.1,17c-4.3,4.4-10.5,6.5-16.7,7.1
					c-6.9,0.6-14.1-0.6-19.7-4.6c-5.6-4-9.2-11.1-8.1-17.8c-10.6-4.9-17.7-16.5-17.3-28.1c0.5-11.7,8.5-22.7,19.4-26.7
					c-8.3-6.6-12-18.4-9.2-28.6c2.9-10.2,12.3-18.2,22.8-19.5c-3.1-5.7-2.5-13.3,1.5-18.4c4-5.1,11.2-7.6,17.5-6
					c-0.5-7.8,4-15.6,11-19.1s15.9-2.5,21.9,2.5c0.4-4.8,4.1-9.2,8.7-10.6c4.7-1.4,10.1,0.4,13,4.3
					C2454,105.5,2460.6,102,2466.1,100.3z"/>
				<path class="st9" d="M2438.6,388.1l49.3-11.4l-0.1,31.1l-1.2,22.5c-0.4,14.5-5.7,30.2-12.5,42.7l-1-7.2
					c4.6,49.6-7,99.7-26.3,145.6c-19.3,45.9-66.1,106.5-102.9,142.5l-46.2,1.1c3.1-28.5,17.1-51,24.6-65.2
					c6.9-12.9,40.1-51.2,43-65.5c8.3-41.1-0.8-44.4,5.6-83.9c8.3-50.6,24.8-99.9,48.7-145.3l16.2-6L2438.6,388.1z"/>
				<polygon class="st2" points="2487.4,372.4 2419.5,388.7 2419.7,395.1 2487.9,376.7 				"/>
			</g>
		</g>
		<g>
			<polygon class="st2" points="2588.7,727.7 2605.8,758.3 2663.1,784 2567.3,780.5 2574.3,765.3 2563.8,743.1 			"/>
			<path class="st7" d="M2421.5,390c-8.5-10.3-13.9,26.9-19.6,39c-4.9,10.6-9.9,21.8-9.4,33.6c0.3,6.4,2.2,12.5,4.5,18.4
				c18.4,47.3,59.6,81,84,125.3c13.4,24.4,21.4,51.4,31.6,77.4c10.1,26,23,51.8,43.7,70l34.5-26c0,0,6.9-113.2-105.1-280.2
				C2485.8,447.6,2444.1,417.2,2421.5,390z"/>
		</g>
		<path class="st8" d="M2394.4,455.5c-0.4,9.6-0.8,19.4,2.4,28.5c3.1,8.7,9.2,16,15,23.2c18,22.3,34.1,46.2,48.1,71.1"/>
	</g>
	<g>
		<path class="st2" d="M2383,500.4c12.2-16.9,27-52.3,22.6-70.7c-17.4-72.1,6.9-86.8,30.9-139.2c3.1-6.8,6.3-13.7,7.2-21.3
			c1-7.6-1.9-15.3-6-22.3c-1.8-3.1-4.9-6.9-12.5-7.2c-33.2-1.2-58.7,53.9-71,89.6c-15.8,45.7-15.5,120.7,11.5,171.1L2383,500.4z"/>
		<path class="st2" d="M2365.6,500.3l16.8,0.3l-0.1,8.6c0,0,4.2,6.8,6.2,8.8c0,0,7,7.1,7.6,9.1c0,0,0.6,8.5,1.4,9.9
			c0,0,2.7,3.4,3.6,6.5c0.7,2.6-2.3,4.7-4.5,3c-1.4-1.1-3.1-2.9-5.3-6c0,0-0.7-7.6-2.3-10.8c0,0,3.5,9.7,0.5,18.1
			c0,0-5.4,16.5-11.5,15.5l3.8-23.7c0,0-3.2,19-4.6,24.5c-0.3,1.1-1,2-2,2.5c-1.2,0.6-2.9,0.8-4.4-1.2c-0.6-0.8-0.8-1.9-0.6-2.9
			l3.8-22.6l-4.1,20.2c-0.4,1.9-1.8,3.6-3.7,4.1c-1.5,0.4-3.1-0.1-3.9-2.9c-0.3-0.9-0.3-1.8-0.2-2.8l3-20.9l-3,14.9
			c-0.2,1.2-0.8,2.3-1.8,3c-0.7,0.6-1.7,1-2.9,0.6c-1.5-0.6-2.4-2.2-2.2-3.8l1.2-9.7c0,0,0.9-19.6,5.9-28.6L2365.6,500.3z"/>
	</g>
</g>
</svg>
