<?xml version="1.0" encoding="utf-8"?>
<!-- Generator: Adobe Illustrator 22.0.1, SVG Export Plug-In . SVG Version: 6.00 Build 0)  -->
<svg version="1.1" id="圖層_1" xmlns="http://www.w3.org/2000/svg" xmlns:xlink="http://www.w3.org/1999/xlink" x="0px" y="0px"
	 viewBox="0 0 994.6 935.2" style="enable-background:new 0 0 994.6 935.2;" xml:space="preserve">
<style type="text/css">
	.st0{fill:#000;}
</style>
<path class="st0" d="M784.2,114.4c7,31.1,4.2,63.9,11.9,94.8c23.1,92.4,129.3,139.4,171.7,224.7c32.5,65.5,22,146.3-12.8,210.7
	c-16.7,31-39.3,60.8-42,96c-1.2,15.9,1.8,32-0.8,47.8c-4.4,26.1-24.2,47.8-47.8,59.8s-50.6,15.5-77.1,16
	c-72.9,1.5-146.9-17.7-218-1.4c-39.9,9.1-76.3,28.9-114.6,43.5s-80.9,23.9-119.8,11.2c-39.5-12.9-69.8-46.8-109.9-57.8
	c-31.9-8.7-67.2-2.1-97.5-15.4c-34.2-15-53.6-52.5-59.3-89.4s-0.2-74.5,1.3-111.8c1.4-37.3-1.8-76.7-22.4-107.8
	c-7.4-11.1-16.9-21-22.7-33C1,454.5,42.7,399.8,40.8,346.6c-1-28.6-14.8-55.7-15.4-84.3c-0.7-35.8,20.3-70,49.9-90.3
	s66.6-27.5,102.4-25.9c17.7,0.8,35.5,3.7,52.9,0.5C275,138.6,305,94,348.8,82.7c59.7-15.4,121.4,35.8,181.3,21.1
	c33.3-8.1,58.2-34.9,84.2-57.3C643.1,21.8,682.9-1.1,718.9,20C751.9,39.2,776,77.9,784.2,114.4z"/>
</svg>
