<?xml version="1.0" encoding="utf-8"?>
<!-- Generator: Adobe Illustrator 22.0.1, SVG Export Plug-In . SVG Version: 6.00 Build 0)  -->
<svg version="1.1" xmlns="http://www.w3.org/2000/svg" xmlns:xlink="http://www.w3.org/1999/xlink" x="0px" y="0px"
	 viewBox="0 0 593.9 509.1" style="enable-background:new 0 0 593.9 509.1;" xml:space="preserve">
<g id="works-web">
	<path class="st44" d="M263.5,43.2c13,16.3,20.9,36.2,34.5,52c54.8,63.3,165.5,28.4,234,76.5c44.9,31.5,60.4,92,56.3,146.7
		c-2.1,28.9-9,57.9-24.1,82.5c-33.8,55.1-101.4,78.2-164.6,91.6c-40.8,8.7-83.2,15-124.1,7s-80.7-32.5-97.2-70.8
		c-9.3-21.6-10.9-46.3-22.4-66.8c-23.5-41.7-79.4-53-110.8-89.1c-20.4-23.4-32.5-52-37.6-82.5c-3.9-23.5-2.3-50.6,3.1-73.8
		c5.4-23.2,19.9-45.3,41.8-54.6c21.5-9.1,45.6-3.1,67.1-10.6c22.4-7.8,22-21.5,37.6-33.8C189.2-8.1,239,12.6,263.5,43.2z"/>
</g>
</svg>
