<?xml version="1.0" encoding="utf-8"?>
<!-- Generator: Adobe Illustrator 22.0.1, SVG Export Plug-In . SVG Version: 6.00 Build 0)  -->
<svg version="1.1" id="圖層_1" xmlns="http://www.w3.org/2000/svg" xmlns:xlink="http://www.w3.org/1999/xlink" x="0px" y="0px"
	 viewBox="0 0 1442.2 846.5" style="enable-background:new 0 0 1442.2 846.5;" xml:space="preserve">
<style type="text/css">
	.st0{fill:#FFFFFF;stroke:#14120F;stroke-width:3;stroke-linecap:round;stroke-linejoin:round;stroke-miterlimit:10;}
	.st1{fill:#14120F;stroke:#14120F;stroke-miterlimit:10;}
	.st2{fill:none;stroke:#14120F;stroke-width:3;stroke-linecap:round;stroke-linejoin:round;stroke-miterlimit:10;}
	.st3{fill:#14120F;}
	.st4{fill:none;stroke:#14120F;stroke-width:2;stroke-linecap:round;stroke-linejoin:round;stroke-miterlimit:10;}
	.st5{fill:#14120F;stroke:#14120F;stroke-width:3;stroke-linecap:round;stroke-linejoin:round;stroke-miterlimit:10;}
	.st6{fill:none;stroke:#FFFFFF;stroke-width:3;stroke-linecap:round;stroke-linejoin:round;stroke-miterlimit:10;}
	.st7{fill:#FFFFFF;}
	.st8{fill:#FFFFFF;stroke:#14120F;stroke-width:2;stroke-linecap:round;stroke-linejoin:round;stroke-miterlimit:10;}
</style>
<g>
	<polygon class="st0" points="308.1,736.8 328.5,755.3 385.7,764.1 287.6,784.4 291,767.7 288.1,748.9 	"/>
	<polygon class="st0" points="77.6,753.8 109.4,756.8 96.9,785.2 170.5,809 130.5,816 56.3,811 67.3,784.9 	"/>
	<path class="st0" d="M82.4,462.9l1,12.7c0,0-5.7,17.7-3.7,25.3c0,0,1,7,4.7,7.3l2-18c0,0-3,20-0.7,24c0,0,0.7,5.3,10,5.3l0.3-23.7
		c0,0-1.3,24.7,1.7,28.7c0,0,1.6,4.1,9.7,6.7c0,0,4.2,1.8,11.5,1.4c0,0,4.4-6.9-2-10.3c0,0-3.4-2.7-5.1-5.1c-0.5-0.7-0.8-1.4-0.9-2
		l-0.2-15.9c0,0-2.8,21.2,8.3,22.8l7.3-41.4c0,0-6.1-8.5-11.1-9.1c0,0,0-12.9-3.4-14.3C112,457.3,117.5,462.7,82.4,462.9z"/>
	<path class="st5" d="M217.4,453.5c0.3,18.8,0.6,37.5,0.9,56.3c0.3,18.9,0.6,37.9-3.7,56.3c-4.1,17.7-12.3,34.2-21.1,50.1
		c-31.1,56-51.7,94.1-91.5,153.4L58.6,773c16.3-45.8,39.2-91.7,48.4-139.5c16.8-87.7,10.3-183.4,56.3-259.9c0,0,6.9-12.3,14.2-20.1
		l57.2-7.9c31.3,30.6,66.6,62.4,90.6,99c12.9,19.7,24.8,40.7,28.5,64c2.8,18,0.5,36.4-2.1,54.5c-8.7,61.5-20.4,122.5-34.9,182.9
		l-31.2,14.2c-3.8-47.8-8.5-95.5-13.9-143.2c-2.2-19.3-4.5-38.6-9.9-57.3c-4.8-16.9-12.1-32.9-19.3-48.9
		c-8.2-18.2-16.5-36.5-24.7-54.7"/>
	<path class="st6" d="M236.2,430.6c-6.5,13-17.7,23.5-31.1,29.2"/>
	<g>
		<path class="st3" d="M244.5,124.2c10.2,3,16.4,15.6,12.5,25.6c10.6-1.2,21.1,8.8,20.4,19.5c4.5-1.8,9.7,0.2,13.4,3.3
			c9,7.6,11.5,21.9,5.4,32.1c7.4,3.3,13,10.2,14.8,18.1c1.8,7.9-0.4,16.5-5.7,22.6c8.9,5,14.8,15.1,14.7,25.3s-6.1,20.2-15.1,25.1
			c3.4,5.2,2.5,11.8-0.3,17.3s-8,9.6-13.7,12c-10.2,4.4-22.9,3.7-31.7-3.1c-8.8-6.8-12.7-19.9-7.7-29.9c-9.7,5.6-23.1-0.5-27.9-10.7
			c-4.8-10.1-2.5-22.4,2.9-32.2c-5.7,4-13.9,3.1-19.3-1.2c-5.4-4.3-8-11.5-7.9-18.4c0.2-6.9,2.9-13.6,6.6-19.4
			c-4.3,2.1-9.1,4.3-13.8,3.3c-4.7-1-8.2-5-10.2-9.3c-2.8-5.8-3.4-12.7-1.4-18.9c2-6.1,6.8-11.4,12.9-13.6
			c-2.8-5.2-3.6-12.7-3.2-18.6c0.4-5.9,3.9-11.9,9.5-14c-0.7-0.8,1.4-3.1,2.2-3.9c3.8-3.7,8.3-6.9,13.4-8.2
			c5.1-1.4,10.9-0.8,15.2,2.3C232.5,125.8,240.5,123.1,244.5,124.2z"/>
		<path class="st3" d="M101.3,157c-13.1,2.2-24.9,10.8-31,22.6c-3.8,7.4-5.2,16.8-0.6,23.7c-6.5-0.5-12.5,3.5-16.8,8.3
			c-6.5,7.5-10,17.5-9.5,27.4c0.5,9.9,5,19.6,12.2,26.4c-5.6,9.4-3.1,22.4,5,29.9s21.3,8.3,30.2,1.9c-2.4,8.4,0.8,18.3,8.2,22.9
			c7.3,4.7,18.3,3,23.3-4.1c3.1,5.8,9.8,9.4,16.4,8.8s12.5-5.4,14.5-11.6c7.9,2.3,17.4-2.5,21.7-9.6c4.2-7.1,3-17-2.8-22.8
			c5.1-0.6,9.6-4.9,10.5-10c0.9-5.1-1.9-10.6-6.5-13c6.6-2.8,11.3-9.7,11.4-16.9s-4.5-14.2-11.1-17.1c7.7-2.6,14.4-8.7,16.6-16.6
			c2.2-7.9-0.9-17.2-7.9-21.4c6.5-2.3,12.5-6.5,15.5-12.7c3-6.2,2.3-14.4-2.8-18.9c3.2,0.1,5.6-3.6,5-6.7c-0.6-3.1-3.5-5.5-6.6-6.3
			s-6.4-0.5-9.5,0c-3.1-7.1-13.6-10.6-21-8.3c-7.4,2.3-12.9,8.5-16.6,15.2c-1.4-8.4-12.1-12.9-20.1-10s-13.2,11.1-15.2,19.4
			C110.4,156.3,104.7,156.5,101.3,157z"/>
		<path class="st3" d="M269.8,55.9c-0.8-3.6-1.9-7.3-3.5-10.7C259,29.2,239.5,18.5,221,20.7c-12.8,1.5-24.2,9.1-30.7,19.4
			c-5.8-2.8-12.6-4-17.9-2.7c-9.2,2.3-16.9,10-19.3,19.2c-1.2,4.6-1,9.5,0.3,14.1c1.1,3.8,3.1,8.9,6.1,13c-5.9,0.3-11.6,1.6-15.9,6
			c-1.7,1.7-3.1,3.7-4.2,5.8c-2.8,5-4.4,10.7-4.4,16.4c0.1,5.7,1.9,11.5,5.6,15.9c-4.9-0.9-10.2,0.8-14.2,3.9c-4,3-6.9,7.3-9.1,11.8
			c-2.6,5.5-4.1,11.5-3.7,17.5c0.3,6,2.6,12,6.9,16.3c8.3-4.6,19.1-4,27,1.4c15.6,0.1,31.2,0,46.8-0.5c4.8-11.5,8.8-23.9,11.3-36.1
			c0.3-1.4-0.8-2.8-1.9-3.7c-4-3.1-7.9-6.5-11-10.6c-3.1-4-5.5-8.7-6.3-13.8c-1.8-11.5-6.3-23.2-2.1-34.1c2.2-5.6,6-10.3,9.4-15.3
			c1.6-2.3,3-4.8,4.1-7.4c0.4-0.3,0.8-0.6,1.1-0.9c2-1.8,2.9-5,4.4-7.2c8.8,15.2,26.6,25.6,45.1,26.3c4.7,0.2,9.5-0.3,13.7-2.2
			s7.7-5.4,8.5-9.7C270.8,61.1,270.3,58.5,269.8,55.9z"/>
		<path class="st3" d="M203.2,49.2c0.2,14.6-8.5,29-21.5,35.7c-0.6-7.3,2.3-14.1,5.7-20.6C190.8,58,196.3,51.1,203.2,49.2z"/>
	</g>
	<path class="st0" d="M144.3,243.1c-2.9-21.8,2.6-65,2.6-65c-15.8-8.3-36.4-2.3-40.1,24.4c-2,14.9-5.5,30.7-9.1,45.2
		c-7.6,31.2-14,62.8-19.2,94.5c-5.9,35.9-8.8,85.2,0.5,120.3c0,0,13.8,2.3,31.5-2c18.2-54.7,32.7-117.7,42-174.7
		C152.5,285.8,148.2,264.5,144.3,243.1z"/>
	<g id="_x31_">
		<g>
			<path class="st0" d="M360.3,199.8c-1-0.8-1.9-0.7-3.2-0.9c-16.2-2.4-17,79.7-36.7,112.6c-0.6,1-1.3,2-2.3,2.5
				c-3.1,1.3-5.4-3-6-6.3c-5.3-32.1,7.7-67.1-0.8-92.4c-2.7-8-12.6-24.5-30-18.4c0,0,3.2,24.3,2.9,31.3c0,0,1.6,25.4-10.4,45.6
				l-17.8,34.4c1.6,11.3,6.7,21.7,12,31.8c6.6,12.5,14,25.1,24.8,34.2c10.9,9.1,26,14.4,39.5,10.2c17.2-5.3,26.7-23.2,33.6-39.9
				c14.8-36.1,23.2-71.8,31.2-112.5c0.7-3.5,0.4-6.5,0.5-10.1c0.1-2.6,0.3-5.2-0.4-7.7c-0.7-2.5-2.3-4.9-4.7-5.8"/>
		</g>
		<g>
			<path class="st7" d="M381.9,128.8c2.8-1.7,5.7-3.5,9-3.7c1.5-0.1,3.1,0.2,4.7,0.1c7.8-0.2,13.5-7.3,20.7-10.4
				c1.8-0.8,3.7-1.3,5.6-1c1.9,0.3,3.7,1.7,4.1,3.6c0.3,1.2-0.1,2.5-0.4,3.7c-3.4,11.3-9.6,21.5-15.8,31.6c-0.7,1.2-1.4,2.4-2.5,3.2
				c-1.2,1-2.8,1.4-4.3,1.7c-12.2,2.2-24.1-4.3-36.4-6.1c-1-0.1-2.1-0.3-2.6-1.2c-0.4-0.7-0.2-1.7,0.1-2.5
				C367,140.3,375.3,133,381.9,128.8z"/>
			<g>
				<path class="st0" d="M370,143.9c-3.3-21.6-15.6-30.6-15.6-30.6c-6.8-3.2-9.8,1.7-9.8,1.7c-3.2,3.6,1.6,11.7,1.6,11.7
					c5.1,9.5,9.6,27.2,9.6,27.2c-1,20.2,7.3,26.1,7.3,26.1c0.8,7.5-1,15.2-2.2,19.2c-0.6,2,0,4.2,1.5,5.7c3.1,2.9,9.8,6.9,23,7.6
					c2.8,0.1,5.3-1.6,6.1-4.2c2.9-9.4,7-16.1,15-21.8c6.7-4.9,9.5-14.7,12.3-17.5c9.7-9.7,12.1-16.3,19.1-28.1
					c1.5-2.6,3.1-5.8,1.3-8.5c-1.2-1.7-3.3-2.3-5.4-2c-3.6,0.6-6,3.3-8.2,6c-4.7,5.5-9.4,11.1-14.1,16.6"/>
				<path class="st0" d="M369.6,140.5c2.3-9.1,5.4-18,8.3-26.9c2.8-8.4,5-17.3,8.5-25.5c0.8-1.9,1.8-3.9,3.4-5.1
					c2.2-1.6,5.8-1.3,7.5,0.7c2.3,2.7,1.3,7.3,0.5,10.4c-3.9,15.3-7.8,30.5-11.7,45.8"/>
				<path class="st0" d="M380.4,140.9c3.5-0.5,7.1,0.4,10,2.4"/>
				<path class="st0" d="M394.6,144.2c2.8-0.1,5.5,1,7.4,3.1"/>
				<path class="st0" d="M405.7,151.2c3.2,1.3,5.9,3.7,7.5,6.6"/>
				<path class="st0" d="M389.6,127.9c6.4-11.6,13.6-23.7,20.6-35c1.7-2.7,3.4-5.5,5.8-7.6c1.7-1.5,4.1-2.8,6.5-2.3
					c2.8,0.6,4.5,3.5,4.5,6.2c0,2.7-1.4,5.2-2.6,7.6c-8.3,15.5-16.6,30.9-25,46.4"/>
				<path class="st0" d="M413.6,118.5c1.6-2.1,10.5-17.4,12.7-18.9c1.3-0.9,2.8-1.7,4.4-1.6c2.2,0,4.2,1.8,4.9,3.8s0.5,4.3-0.1,6.3
					c-0.9,3-2.6,5.7-4.2,8.3c-7.2,11.7-14.4,23.4-21.7,35.2"/>
				<path class="st0" d="M374,151.5c4,5.2,4.3,13,0.7,18.5"/>
			</g>
		</g>
	</g>
	<polygon class="st0" points="173.5,345.3 177.6,353.5 234.5,344.5 238.3,336.9 	"/>
	<g>
		<path class="st0" d="M207.7,135.8l-12.2,41.6l-48.5,1.1c0,0-10.4,64.1,8.1,115.4l18.5,51.3l64.8-8.4l27.2-47.1
			c0,0,18.3-27,19.3-56.9l-3.3-36.8l-45.6-17.4l-1.6-38.6C234.2,140.1,222.9,127.7,207.7,135.8z"/>
		<path class="st3" d="M168.5,179l93.5,10l19.4,7.8c0,0,10.5,44.6-7.5,76.9l-35.6,63.2l-64.8,8.4l-22-63.8c0,0-8-33-8.5-58l4.3-44.6
			L168.5,179z"/>
	</g>
	<g>
		<path class="st0" d="M265.9,111.8c3.2-2.7,6.6-5.6,7.8-9.7c0.3-1.1,0.5-2.2,0.5-3.4c0.1-2.2,0-4.4-0.9-6.3
			c-0.9-1.9-2.7-3.5-4.7-3.5c-2,0-3.3,1.3-3.9,4c0,0,0.5,5.5,0.7,7.9C265.5,100.7,266.2,107.6,265.9,111.8z"/>
		<path class="st8" d="M265.4,106.9c1.4,0,4.7-0.3,4.7-0.3l-2.2,6l4.6,0.3c0,0-5.8,23.3-6.2,21.4c-0.4-2,1.8-16.4,1.8-16.4l-4.2-0.6
			L265.4,106.9z"/>
		<path class="st0" d="M251.4,52.3c5.5,3.5,8.7,9.8,10.1,16.2s1.4,13,2.1,19.5c0.7,7,2,14,1.5,21.1c-1,14.8-11.1,28.5-24.8,34.1
			c-13.7,5.5-30.5,2.5-41.5-7.5c-8.7-7.9-13.5-19.4-15.9-31c-2.3-11.1-2.9-23.3,1.1-33.9s12.3-19.7,22.8-23.8
			c4.1-1.6,8.4-2.4,12.8-2.9C229.8,42.9,242.9,46.8,251.4,52.3z"/>
		<path class="st2" d="M206.6,68.3c2.1-1.4,4.9-1.8,7.3-1s4.4,2.7,5.3,5.1"/>
		<path class="st2" d="M212.4,105.6c5.8,8.7,16.4,14.1,26.9,13.7"/>
		<path class="st2" d="M242.3,75.5c-1.2,1.7-2.2,3.4-3.2,5.3"/>
		<path class="st2" d="M237.8,80.6c3.2,8.6,6.7,17.1,10.3,25.5c-4-1.3-7.9-3.1-11.4-5.4"/>
		<path class="st3" d="M213.5,85.9c0.3,3.4-1.4,3.8-2.7,3.7c-1.3-0.1-2.2-3.2-2.1-5.3c0.2-2.2,1.3-2.6,2.6-2.5
			C212.7,81.9,213.3,83.7,213.5,85.9z"/>
		<path class="st3" d="M255.8,85.6c0.2,2.8-1.2,3.2-2.3,3.1c-1.1-0.1-1.9-2.7-1.7-4.5c0.1-1.8,1.1-2.1,2.2-2.1
			S255.6,83.8,255.8,85.6z"/>
		<path class="st2" d="M252.1,75.4c0.7-1.3,1.8-2.4,3.2-3c1.4-0.6,2.9-0.7,4.4-0.3c0.7,0.2,1.4,0.5,1.8,1.1"/>
		<path class="st4" d="M212.3,80.1c-0.4,0.9-0.8,1.8-1.2,2.6"/>
		<path class="st4" d="M255.3,80.7c-0.4,0.9-0.8,1.8-1.2,2.6"/>
		<path class="st0" d="M185,115.1c2.1,4.5-10-4.2-13.8-7.7c-1.4-1.3-2.8-2.7-3.6-4.3c-1.8-3.6-1.2-7.9,1.4-11.1
			c1.2-1.4,2.7-2.7,4.7-3.2c2.2-0.6,4.8,0,6.5,1.3C180.1,90.1,181.4,107.3,185,115.1z"/>
		<path class="st8" d="M178.7,108.5c2,0,6.9-0.4,6.9-0.4l-3.2,8.1l6.8,0.5c0,0-8.3,31.6-9,28.9c-0.7-2.7,2.5-22.2,2.5-22.2l-6.2-0.8
			L178.7,108.5z"/>
	</g>
</g>
<g>
	<polygon class="st0" points="791.6,736.8 812,755.3 869.2,764.1 771.1,784.4 774.5,767.7 771.6,748.9 	"/>
	<polygon class="st0" points="561.1,753.8 592.9,756.8 580.4,785.2 654,809 614,816 539.8,811 550.8,784.9 	"/>
	<path class="st0" d="M565.9,462.9l1,12.7c0,0-5.7,17.7-3.7,25.3c0,0,1,7,4.7,7.3l2-18c0,0-3,20-0.7,24c0,0,0.7,5.3,10,5.3l0.3-23.7
		c0,0-1.3,24.7,1.7,28.7c0,0,1.6,4.1,9.7,6.7c0,0,4.2,1.8,11.5,1.4c0,0,4.4-6.9-2-10.3c0,0-3.4-2.7-5.1-5.1c-0.5-0.7-0.8-1.4-0.9-2
		l-0.2-15.9c0,0-2.8,21.2,8.3,22.8l7.3-41.4c0,0-6.1-8.5-11.1-9.1c0,0,0-12.9-3.4-14.3C595.5,457.3,601,462.7,565.9,462.9z"/>
	<path class="st5" d="M700.9,453.5c0.3,18.8,0.6,37.5,0.9,56.3c0.3,18.9,0.6,37.9-3.7,56.3c-4.1,17.7-12.3,34.2-21.1,50.1
		c-31.1,56-51.7,94.1-91.5,153.4l-43.4,3.3c16.3-45.8,39.2-91.7,48.4-139.5c16.8-87.7,10.3-183.4,56.3-259.9c0,0,6.9-12.3,14.2-20.1
		l57.2-7.9c31.3,30.6,66.6,62.4,90.6,99c12.9,19.7,24.8,40.7,28.5,64c2.8,18,0.5,36.4-2.1,54.5c-8.7,61.5-20.4,122.5-34.9,182.9
		l-31.2,14.2c-3.8-47.8-8.5-95.5-13.9-143.2c-2.2-19.3-4.5-38.6-9.9-57.3c-4.8-16.9-12.1-32.9-19.3-48.9
		c-8.2-18.2-16.5-36.5-24.7-54.7"/>
	<path class="st6" d="M719.7,430.6c-6.5,13-17.7,23.5-31.1,29.2"/>
	<g>
		<path class="st3" d="M728,124.2c10.2,3,16.4,15.6,12.5,25.6c10.6-1.2,21.1,8.8,20.4,19.5c4.5-1.8,9.7,0.2,13.4,3.3
			c9,7.6,11.5,21.9,5.4,32.1c7.4,3.3,13,10.2,14.8,18.1c1.8,7.9-0.4,16.5-5.7,22.6c8.9,5,14.8,15.1,14.7,25.3s-6.1,20.2-15.1,25.1
			c3.4,5.2,2.5,11.8-0.3,17.3s-8,9.6-13.7,12c-10.2,4.4-22.9,3.7-31.7-3.1s-12.7-19.9-7.7-29.9c-9.7,5.6-23.1-0.5-27.9-10.7
			s-2.5-22.4,2.9-32.2c-5.7,4-13.9,3.1-19.3-1.2c-5.4-4.3-8-11.5-7.9-18.4c0.2-6.9,2.9-13.6,6.6-19.4c-4.3,2.1-9.1,4.3-13.8,3.3
			c-4.7-1-8.2-5-10.2-9.3c-2.8-5.8-3.4-12.7-1.4-18.9c2-6.1,6.8-11.4,12.9-13.6c-2.8-5.2-3.6-12.7-3.2-18.6c0.4-5.9,3.9-11.9,9.5-14
			c-0.7-0.8,1.4-3.1,2.2-3.9c3.8-3.7,8.3-6.9,13.4-8.2c5.1-1.4,10.9-0.8,15.2,2.3C716,125.8,724,123.1,728,124.2z"/>
		<path class="st3" d="M584.8,157c-13.1,2.2-24.9,10.8-31,22.6c-3.8,7.4-5.2,16.8-0.6,23.7c-6.5-0.5-12.5,3.5-16.8,8.3
			c-6.5,7.5-10,17.5-9.5,27.4c0.5,9.9,5,19.6,12.2,26.4c-5.6,9.4-3.1,22.4,5,29.9c8,7.4,21.3,8.3,30.2,1.9
			c-2.4,8.4,0.8,18.3,8.2,22.9c7.3,4.7,18.3,3,23.3-4.1c3.1,5.8,9.8,9.4,16.4,8.8c6.5-0.6,12.5-5.4,14.5-11.6
			c7.9,2.3,17.4-2.5,21.7-9.6c4.2-7.1,3-17-2.8-22.8c5.1-0.6,9.6-4.9,10.5-10c0.9-5.1-1.9-10.6-6.5-13c6.6-2.8,11.3-9.7,11.4-16.9
			s-4.5-14.2-11.1-17.1c7.7-2.6,14.4-8.7,16.6-16.6c2.2-7.9-0.9-17.2-7.9-21.4c6.5-2.3,12.5-6.5,15.5-12.7c3-6.2,2.3-14.4-2.8-18.9
			c3.2,0.1,5.6-3.6,5-6.7c-0.6-3.1-3.5-5.5-6.6-6.3s-6.4-0.5-9.5,0c-3.1-7.1-13.6-10.6-21-8.3c-7.4,2.3-12.9,8.5-16.6,15.2
			c-1.4-8.4-12.1-12.9-20.1-10s-13.2,11.1-15.2,19.4C593.9,156.3,588.2,156.5,584.8,157z"/>
		<path class="st3" d="M753.3,55.9c-0.8-3.6-1.9-7.3-3.5-10.7c-7.3-16.1-26.8-26.7-45.3-24.5c-12.8,1.5-24.2,9.1-30.7,19.4
			c-5.8-2.8-12.6-4-17.9-2.7c-9.2,2.3-16.9,10-19.3,19.2c-1.2,4.6-1,9.5,0.3,14.1c1.1,3.8,3.1,8.9,6.1,13c-5.9,0.3-11.6,1.6-15.9,6
			c-1.7,1.7-3.1,3.7-4.2,5.8c-2.8,5-4.4,10.7-4.4,16.4c0.1,5.7,1.9,11.5,5.6,15.9c-4.9-0.9-10.2,0.8-14.2,3.9c-4,3-6.9,7.3-9.1,11.8
			c-2.6,5.5-4.1,11.5-3.7,17.5c0.3,6,2.6,12,6.9,16.3c8.3-4.6,19.1-4,27,1.4c15.6,0.1,31.2,0,46.8-0.5c4.8-11.5,8.8-23.9,11.3-36.1
			c0.3-1.4-0.8-2.8-1.9-3.7c-4-3.1-7.9-6.5-11-10.6c-3.1-4-5.5-8.7-6.3-13.8c-1.8-11.5-6.3-23.2-2.1-34.1c2.2-5.6,6-10.3,9.4-15.3
			c1.6-2.3,3-4.8,4.1-7.4c0.4-0.3,0.8-0.6,1.1-0.9c2-1.8,2.9-5,4.4-7.2c8.8,15.2,26.6,25.6,45.1,26.3c4.7,0.2,9.5-0.3,13.7-2.2
			s7.7-5.4,8.5-9.7C754.3,61.1,753.8,58.5,753.3,55.9z"/>
		<path class="st3" d="M686.7,49.2c0.2,14.6-8.5,29-21.5,35.7c-0.6-7.3,2.3-14.1,5.7-20.6C674.3,58,679.8,51.1,686.7,49.2z"/>
	</g>
	<path class="st0" d="M627.8,243.1c-2.9-21.8,2.6-65,2.6-65c-15.8-8.3-36.4-2.3-40.1,24.4c-2,14.9-5.5,30.7-9.1,45.2
		c-7.6,31.2-14,62.8-19.2,94.5c-5.9,35.9-8.8,85.2,0.5,120.3c0,0,13.8,2.3,31.5-2c18.2-54.7,32.7-117.7,42-174.7
		C636,285.8,631.7,264.5,627.8,243.1z"/>
	<g id="_x31__1_">
		<g>
			<path class="st0" d="M843.8,199.8c-1-0.8-1.9-0.7-3.2-0.9c-16.2-2.4-17,79.7-36.7,112.6c-0.6,1-1.3,2-2.3,2.5
				c-3.1,1.3-5.4-3-6-6.3c-5.3-32.1,7.7-67.1-0.8-92.4c-2.7-8-12.6-24.5-30-18.4c0,0,3.2,24.3,2.9,31.3c0,0,1.6,25.4-10.4,45.6
				l-17.8,34.4c1.6,11.3,6.7,21.7,12,31.8c6.6,12.5,14,25.1,24.8,34.2c10.9,9.1,26,14.4,39.5,10.2c17.2-5.3,26.7-23.2,33.6-39.9
				c14.8-36.1,23.2-71.8,31.2-112.5c0.7-3.5,0.4-6.5,0.5-10.1c0.1-2.6,0.3-5.2-0.4-7.7c-0.7-2.5-2.3-4.9-4.7-5.8"/>
		</g>
		<g>
			<path class="st7" d="M861,128.8c2.7-1.9,5.5-3.8,8.7-4.3c1.5-0.2,3.1,0,4.7-0.2c7.8-0.7,13-8.1,20-11.7c1.7-0.9,3.6-1.5,5.5-1.3
				c1.9,0.2,3.8,1.4,4.3,3.3c0.3,1.2,0.1,2.5-0.2,3.7c-2.7,11.5-8.2,22.1-13.7,32.5c-0.6,1.2-1.3,2.5-2.3,3.4
				c-1.2,1-2.7,1.6-4.2,1.9c-12,3-24.3-2.8-36.7-3.7c-1-0.1-2.1-0.2-2.7-1c-0.5-0.7-0.3-1.7,0-2.5
				C846.9,141.2,854.7,133.4,861,128.8z"/>
			<g>
				<path class="st0" d="M850.1,144.7c-4.7-21.3-17.6-29.5-17.6-29.5c-7-2.7-9.6,2.3-9.6,2.3c-2.9,3.8,2.3,11.6,2.3,11.6
					c5.7,9.2,11.3,26.6,11.3,26.6c0.3,20.2,8.9,25.6,8.9,25.6c1.3,7.4,0,15.3-0.9,19.3c-0.5,2.1,0.3,4.2,1.9,5.6
					c3.3,2.6,10.2,6.2,23.4,6c2.8,0,5.2-1.9,5.8-4.6c2.2-9.6,6-16.5,13.5-22.7c6.4-5.3,8.5-15.3,11.2-18.2c9.1-10.3,11-17,17.2-29.3
					c1.4-2.7,2.8-6,0.7-8.6c-1.3-1.6-3.5-2.1-5.5-1.7c-3.6,0.8-5.8,3.7-7.8,6.5c-4.3,5.8-8.6,11.6-13,17.5"/>
				<path class="st0" d="M849.5,141.3c1.7-9.3,4.2-18.3,6.6-27.4c2.3-8.6,3.8-17.6,6.8-26c0.7-2,1.5-4,3.1-5.3
					c2.1-1.7,5.7-1.7,7.5,0.2c2.5,2.6,1.8,7.2,1.2,10.4c-2.9,15.5-5.8,31-8.7,46.4"/>
				<path class="st0" d="M860.3,141c3.4-0.7,7.2-0.1,10.1,1.8"/>
				<path class="st0" d="M874.7,143.4c2.7-0.3,5.6,0.7,7.5,2.6"/>
				<path class="st0" d="M886.2,149.6c3.2,1.1,6.1,3.3,7.9,6.1"/>
				<path class="st0" d="M868.7,127.4c5.6-12,12-24.6,18.3-36.3c1.5-2.8,3-5.7,5.3-8c1.6-1.7,3.9-3.1,6.3-2.7
					c2.8,0.4,4.7,3.2,4.9,5.9s-1,5.3-2.1,7.8c-7.3,16-14.6,31.9-21.9,47.9"/>
				<path class="st0" d="M892,116.5c1.5-2.2,9.4-18,11.5-19.7c1.2-1,2.7-1.8,4.2-1.9c2.2-0.1,4.3,1.5,5.1,3.5c0.9,2,0.8,4.2,0.3,6.3
					c-0.7,3-2.2,5.8-3.7,8.6c-6.4,12.2-12.9,24.3-19.3,36.5"/>
				<path class="st0" d="M854.6,152c4.3,5,5.1,12.7,1.9,18.4"/>
			</g>
		</g>
	</g>
	<polygon class="st0" points="657,345.3 661.1,353.5 718,344.5 721.8,336.9 	"/>
	<g>
		<path class="st0" d="M691.2,135.8L679,177.4l-48.5,1.1c0,0-10.4,64.1,8.1,115.4l18.5,51.3l64.8-8.4l27.2-47.1
			c0,0,18.3-27,19.3-56.9l-3.3-36.8l-45.6-17.4l-1.6-38.6C717.7,140.1,706.4,127.7,691.2,135.8z"/>
		<path class="st3" d="M652,179l93.5,10l19.4,7.8c0,0,10.5,44.6-7.5,76.9l-35.6,63.2l-64.8,8.4l-22-63.8c0,0-8-33-8.5-58l4.3-44.6
			L652,179z"/>
	</g>
	<g>
		<path class="st0" d="M749.4,111.8c3.2-2.7,6.6-5.6,7.8-9.7c0.3-1.1,0.5-2.2,0.5-3.4c0.1-2.2,0-4.4-0.9-6.3s-2.7-3.5-4.7-3.5
			c-2,0-3.3,1.3-3.9,4c0,0,0.5,5.5,0.7,7.9C749,100.7,749.7,107.6,749.4,111.8z"/>
		<path class="st8" d="M748.9,106.9c1.4,0,4.7-0.3,4.7-0.3l-2.2,6l4.6,0.3c0,0-5.8,23.3-6.2,21.4c-0.4-2,1.8-16.4,1.8-16.4l-4.2-0.6
			L748.9,106.9z"/>
		<path class="st0" d="M734.9,52.3c5.5,3.5,8.7,9.8,10.1,16.2c1.5,6.4,1.4,13,2.1,19.5c0.7,7,2,14,1.5,21.1
			c-1,14.8-11.1,28.5-24.8,34.1s-30.5,2.5-41.5-7.5c-8.7-7.9-13.5-19.4-15.9-31c-2.3-11.1-2.9-23.3,1.1-33.9
			c4.1-10.6,12.3-19.7,22.8-23.8c4.1-1.6,8.4-2.4,12.8-2.9C713.3,42.9,726.4,46.8,734.9,52.3z"/>
		<path class="st2" d="M690.1,68.3c2.1-1.4,4.9-1.8,7.3-1s4.4,2.7,5.3,5.1"/>
		<path class="st2" d="M695.9,105.6c5.8,8.7,16.4,14.1,26.9,13.7"/>
		<path class="st2" d="M725.8,75.5c-1.2,1.7-2.2,3.4-3.2,5.3"/>
		<path class="st2" d="M721.3,80.6c3.2,8.6,6.7,17.1,10.3,25.5c-4-1.3-7.9-3.1-11.4-5.4"/>
		<path class="st3" d="M697,85.9c0.3,3.4-1.4,3.8-2.7,3.7c-1.3-0.1-2.2-3.2-2.1-5.3c0.2-2.2,1.3-2.6,2.6-2.5
			C696.2,81.9,696.8,83.7,697,85.9z"/>
		<path class="st3" d="M739.3,85.6c0.2,2.8-1.2,3.2-2.3,3.1c-1.1-0.1-1.9-2.7-1.7-4.5c0.1-1.8,1.1-2.1,2.2-2.1
			C738.6,82.3,739.2,83.8,739.3,85.6z"/>
		<path class="st2" d="M735.6,75.4c0.7-1.3,1.8-2.4,3.2-3c1.4-0.6,2.9-0.7,4.4-0.3c0.7,0.2,1.4,0.5,1.8,1.1"/>
		<path class="st4" d="M695.8,80.1c-0.4,0.9-0.8,1.8-1.2,2.6"/>
		<path class="st4" d="M738.8,80.7c-0.4,0.9-0.8,1.8-1.2,2.6"/>
		<path class="st0" d="M668.5,115.1c2.1,4.5-10-4.2-13.8-7.7c-1.4-1.3-2.8-2.7-3.6-4.3c-1.8-3.6-1.2-7.9,1.4-11.1
			c1.2-1.4,2.7-2.7,4.7-3.2c2.2-0.6,4.8,0,6.5,1.3C663.6,90.1,664.9,107.3,668.5,115.1z"/>
		<path class="st8" d="M662.2,108.5c2,0,6.9-0.4,6.9-0.4l-3.2,8.1l6.8,0.5c0,0-8.3,31.6-9,28.9c-0.7-2.7,2.5-22.2,2.5-22.2l-6.2-0.8
			L662.2,108.5z"/>
	</g>
</g>
<g>
	<polygon class="st0" points="1267.3,736.8 1287.7,755.3 1344.9,764.1 1246.7,784.4 1250.2,767.7 1247.3,748.9 	"/>
	<polygon class="st0" points="1036.8,753.8 1068.6,756.8 1056,785.2 1129.7,809 1089.7,816 1015.4,811 1026.5,784.9 	"/>
	<path class="st0" d="M1041.5,462.9l1,12.7c0,0-5.7,17.7-3.7,25.3c0,0,1,7,4.7,7.3l2-18c0,0-3,20-0.7,24c0,0,0.7,5.3,10,5.3
		l0.3-23.7c0,0-1.3,24.7,1.7,28.7c0,0,1.6,4.1,9.7,6.7c0,0,4.2,1.8,11.5,1.4c0,0,4.4-6.9-2-10.3c0,0-3.4-2.7-5.1-5.1
		c-0.5-0.7-0.8-1.4-0.9-2l-0.2-15.9c0,0-2.8,21.2,8.3,22.8l7.3-41.4c0,0-6.1-8.5-11.1-9.1c0,0,0-12.9-3.4-14.3
		C1071.2,457.3,1076.7,462.7,1041.5,462.9z"/>
	<path class="st5" d="M1176.6,453.5c0.3,18.8,0.6,37.5,0.9,56.3c0.3,18.9,0.6,37.9-3.7,56.3c-4.1,17.7-12.3,34.2-21.1,50.1
		c-31.1,56-51.7,94.1-91.5,153.4l-43.4,3.3c16.3-45.8,39.2-91.7,48.4-139.5c16.8-87.7,10.3-183.4,56.3-259.9c0,0,6.9-12.3,14.2-20.1
		l57.2-7.9c31.3,30.6,66.6,62.4,90.6,99c12.9,19.7,24.8,40.7,28.5,64c2.8,18,0.5,36.4-2.1,54.5c-8.8,61.5-20.4,122.5-34.9,182.9
		l-31.2,14.2c-3.8-47.8-8.5-95.5-13.9-143.2c-2.2-19.3-4.5-38.6-9.9-57.3c-4.8-16.9-12.1-32.9-19.3-48.9
		c-8.2-18.2-16.5-36.5-24.7-54.7"/>
	<path class="st6" d="M1195.3,430.6c-6.5,13-17.7,23.5-31.1,29.2"/>
	<g>
		<path class="st3" d="M1203.6,124.2c10.2,3,16.4,15.6,12.5,25.6c10.6-1.2,21.1,8.8,20.4,19.5c4.5-1.8,9.7,0.2,13.4,3.3
			c9,7.6,11.5,21.9,5.4,32.1c7.4,3.3,13,10.2,14.8,18.1s-0.4,16.5-5.7,22.6c8.9,5,14.8,15.1,14.7,25.3s-6.1,20.2-15.1,25.1
			c3.4,5.2,2.5,11.8-0.3,17.3s-8,9.6-13.7,12c-10.2,4.4-22.9,3.7-31.7-3.1s-12.7-19.9-7.7-29.9c-9.7,5.6-23.1-0.5-27.9-10.7
			c-4.8-10.1-2.5-22.4,2.9-32.2c-5.7,4-13.9,3.1-19.3-1.2c-5.4-4.3-8-11.5-7.9-18.4c0.2-6.9,2.9-13.6,6.6-19.4
			c-4.3,2.1-9.1,4.3-13.8,3.3c-4.7-1-8.2-5-10.2-9.3c-2.8-5.8-3.4-12.7-1.4-18.9c2-6.1,6.8-11.4,12.9-13.6
			c-2.8-5.2-3.6-12.7-3.2-18.6c0.4-5.9,3.9-11.9,9.5-14c-0.7-0.8,1.4-3.1,2.2-3.9c3.8-3.7,8.3-6.9,13.4-8.2
			c5.1-1.4,10.9-0.8,15.2,2.3C1191.7,125.8,1199.7,123.1,1203.6,124.2z"/>
		<path class="st3" d="M1060.5,157c-13.1,2.2-24.9,10.8-31,22.6c-3.8,7.4-5.2,16.8-0.6,23.7c-6.5-0.5-12.5,3.5-16.8,8.3
			c-6.5,7.5-10,17.5-9.5,27.4c0.5,9.9,5,19.6,12.2,26.4c-5.6,9.4-3.1,22.4,5,29.9c8,7.4,21.3,8.3,30.2,1.9
			c-2.4,8.4,0.8,18.3,8.2,22.9c7.3,4.7,18.3,3,23.3-4.1c3.1,5.8,9.8,9.4,16.4,8.8s12.5-5.4,14.5-11.6c7.9,2.3,17.4-2.5,21.7-9.6
			c4.2-7.1,3-17-2.8-22.8c5.1-0.6,9.6-4.9,10.5-10c0.9-5.1-1.9-10.6-6.5-13c6.6-2.8,11.3-9.7,11.4-16.9c0.1-7.2-4.5-14.2-11.1-17.1
			c7.7-2.6,14.4-8.7,16.6-16.6c2.2-7.9-0.9-17.2-7.9-21.4c6.5-2.3,12.5-6.5,15.5-12.7c3-6.2,2.3-14.4-2.8-18.9
			c3.2,0.1,5.6-3.6,5-6.7c-0.6-3.1-3.5-5.5-6.6-6.3s-6.4-0.5-9.5,0c-3.1-7.1-13.6-10.6-21-8.3c-7.4,2.3-12.9,8.5-16.6,15.2
			c-1.4-8.4-12.1-12.9-20.1-10c-8,2.9-13.2,11.1-15.2,19.4C1069.6,156.3,1063.9,156.5,1060.5,157z"/>
		<path class="st3" d="M1228.9,55.9c-0.8-3.6-1.9-7.3-3.5-10.7c-7.3-16.1-26.8-26.7-45.3-24.5c-12.8,1.5-24.2,9.1-30.7,19.4
			c-5.8-2.8-12.6-4-17.9-2.7c-9.2,2.3-16.9,10-19.3,19.2c-1.2,4.6-1,9.5,0.3,14.1c1.1,3.8,3.1,8.9,6.1,13c-5.9,0.3-11.6,1.6-15.9,6
			c-1.7,1.7-3.1,3.7-4.2,5.8c-2.8,5-4.4,10.7-4.4,16.4c0.1,5.7,1.9,11.5,5.6,15.9c-4.9-0.9-10.2,0.8-14.2,3.9c-4,3-6.9,7.3-9.1,11.8
			c-2.6,5.5-4.1,11.5-3.7,17.5c0.3,6,2.6,12,6.9,16.3c8.3-4.6,19.1-4,27,1.4c15.6,0.1,31.2,0,46.8-0.5c4.8-11.5,8.8-23.9,11.3-36.1
			c0.3-1.4-0.8-2.8-1.9-3.7c-4-3.1-7.9-6.5-11-10.6c-3.1-4-5.5-8.7-6.3-13.8c-1.8-11.5-6.3-23.2-2.1-34.1c2.2-5.6,6-10.3,9.4-15.3
			c1.6-2.3,3-4.8,4.1-7.4c0.4-0.3,0.8-0.6,1.1-0.9c2-1.8,2.9-5,4.4-7.2c8.8,15.2,26.6,25.6,45.1,26.3c4.7,0.2,9.5-0.3,13.7-2.2
			s7.7-5.4,8.5-9.7C1230,61.1,1229.5,58.5,1228.9,55.9z"/>
		<path class="st3" d="M1162.4,49.2c0.2,14.6-8.5,29-21.5,35.7c-0.6-7.3,2.3-14.1,5.7-20.6C1149.9,58,1155.5,51.1,1162.4,49.2z"/>
	</g>
	<path class="st0" d="M1103.5,243.1c-2.9-21.8,2.6-65,2.6-65c-15.8-8.3-36.4-2.3-40.1,24.4c-2,14.9-5.5,30.7-9.1,45.2
		c-7.6,31.2-14,62.8-19.2,94.5c-5.9,35.9-8.8,85.2,0.5,120.3c0,0,13.8,2.3,31.5-2c18.2-54.7,32.7-117.7,42-174.7
		C1111.7,285.8,1107.4,264.5,1103.5,243.1z"/>
	<g id="_x31__2_">
		<g>
			<path class="st0" d="M1319.4,199.8c-1-0.8-1.9-0.7-3.2-0.9c-16.2-2.4-17,79.7-36.7,112.6c-0.6,1-1.3,2-2.3,2.5
				c-3.1,1.3-5.4-3-6-6.3c-5.3-32.1,7.7-67.1-0.8-92.4c-2.7-8-12.6-24.5-30-18.4c0,0,3.2,24.3,2.9,31.3c0,0,1.6,25.4-10.4,45.6
				l-17.8,34.4c1.6,11.3,6.7,21.7,12,31.8c6.6,12.5,14,25.1,24.8,34.2c10.9,9.1,26,14.4,39.5,10.2c17.2-5.3,26.7-23.2,33.6-39.9
				c14.8-36.1,23.2-71.8,31.2-112.5c0.7-3.5,0.4-6.5,0.5-10.1c0.1-2.6,0.3-5.2-0.4-7.7c-0.7-2.5-2.3-4.9-4.7-5.8"/>
		</g>
		<g>
			<path class="st7" d="M1345.5,129.2c2.9-1.6,5.9-3.1,9.2-3.1c1.6,0,3.1,0.4,4.6,0.4c7.8,0.3,14-6.4,21.4-9c1.8-0.6,3.8-1,5.7-0.6
				c1.9,0.4,3.6,1.9,3.9,3.8c0.2,1.2-0.2,2.5-0.7,3.6c-4.2,11-11,20.8-17.8,30.5c-0.8,1.1-1.6,2.3-2.7,3c-1.3,0.9-2.9,1.2-4.4,1.4
				c-12.3,1.4-23.8-5.9-35.9-8.4c-1-0.2-2.1-0.5-2.5-1.4c-0.4-0.8-0.1-1.7,0.3-2.5C1329.9,139.7,1338.6,133,1345.5,129.2z"/>
			<g>
				<path class="st0" d="M1332.6,143.5c-1.9-21.7-13.6-31.5-13.6-31.5c-6.6-3.6-9.9,1.1-9.9,1.1c-3.4,3.4,0.8,11.8,0.8,11.8
					c4.5,9.8,7.8,27.8,7.8,27.8c-2.3,20.1,5.6,26.5,5.6,26.5c0.3,7.5-2,15.1-3.4,19c-0.7,2-0.3,4.2,1.2,5.8c2.9,3,9.3,7.5,22.5,9
					c2.7,0.3,5.4-1.2,6.3-3.8c3.5-9.2,8.1-15.6,16.4-20.8c7-4.4,10.4-14,13.4-16.7c10.3-9.1,13.1-15.5,20.8-26.8
					c1.7-2.5,3.5-5.6,1.8-8.4c-1.1-1.8-3.2-2.6-5.2-2.4c-3.6,0.3-6.2,2.9-8.6,5.4c-5,5.2-10.1,10.4-15.1,15.7"/>
				<path class="st0" d="M1332.4,140.2c2.9-9,6.5-17.6,10.1-26.4c3.4-8.2,6.1-17,10.1-24.9c0.9-1.9,2-3.8,3.8-4.9
					c2.3-1.5,5.9-1,7.5,1.2c2.1,2.9,0.8,7.4-0.2,10.4c-4.9,15-9.7,30-14.6,44.9"/>
				<path class="st0" d="M1343.1,141.2c3.5-0.3,7.1,0.8,9.8,3.1"/>
				<path class="st0" d="M1357.1,145.5c2.8,0,5.5,1.4,7.1,3.6"/>
				<path class="st0" d="M1367.8,153.1c3.1,1.5,5.6,4,7.1,7.1"/>
				<path class="st0" d="M1353.2,128.8c7.1-11.2,15.1-22.8,22.8-33.6c1.8-2.6,3.7-5.2,6.3-7.2c1.8-1.4,4.3-2.5,6.6-1.9
					c2.8,0.8,4.3,3.8,4,6.5s-1.7,5.1-3.1,7.4c-9.3,14.9-18.6,29.8-27.9,44.7"/>
				<path class="st0" d="M1377.8,121c1.8-2,11.6-16.7,13.9-18c1.4-0.8,2.9-1.5,4.5-1.4c2.2,0.2,4,2,4.7,4.1c0.6,2.1,0.2,4.3-0.6,6.3
					c-1.1,2.9-2.9,5.5-4.7,8c-8,11.2-15.9,22.5-23.9,33.7"/>
				<path class="st0" d="M1336.1,151.4c3.6,5.5,3.5,13.2-0.5,18.5"/>
			</g>
		</g>
	</g>
	<polygon class="st0" points="1132.7,345.3 1136.7,353.5 1193.7,344.5 1197.5,336.9 	"/>
	<g>
		<path class="st0" d="M1166.9,135.8l-12.2,41.6l-48.5,1.1c0,0-10.4,64.1,8.1,115.4l18.5,51.3l64.8-8.4l27.2-47.1
			c0,0,18.3-27,19.3-56.9l-3.3-36.8l-45.6-17.4l-1.6-38.6C1193.4,140.1,1182.1,127.7,1166.9,135.8z"/>
		<path class="st3" d="M1127.7,179l93.5,10l19.4,7.8c0,0,10.5,44.6-7.5,76.9l-35.6,63.2l-64.8,8.4l-22-63.8c0,0-8-33-8.5-58
			l4.3-44.6L1127.7,179z"/>
	</g>
	<g>
		<path class="st0" d="M1225,111.8c3.2-2.7,6.6-5.6,7.8-9.7c0.3-1.1,0.5-2.2,0.5-3.4c0.1-2.2,0-4.4-0.9-6.3s-2.7-3.5-4.7-3.5
			c-2,0-3.3,1.3-3.9,4c0,0,0.5,5.5,0.7,7.9C1224.7,100.7,1225.3,107.6,1225,111.8z"/>
		<path class="st8" d="M1224.6,106.9c1.4,0,4.7-0.3,4.7-0.3l-2.2,6l4.6,0.3c0,0-5.8,23.3-6.2,21.4s1.8-16.4,1.8-16.4l-4.2-0.6
			L1224.6,106.9z"/>
		<path class="st0" d="M1210.6,52.3c5.5,3.5,8.7,9.8,10.1,16.2c1.5,6.4,1.4,13,2.1,19.5c0.7,7,2,14,1.5,21.1
			c-1,14.8-11.1,28.5-24.8,34.1c-13.7,5.5-30.5,2.5-41.5-7.5c-8.7-7.9-13.5-19.4-15.9-31c-2.3-11.1-2.9-23.3,1.1-33.9
			s12.3-19.7,22.8-23.8c4.1-1.6,8.4-2.4,12.8-2.9C1188.9,42.9,1202,46.8,1210.6,52.3z"/>
		<path class="st2" d="M1165.8,68.3c2.1-1.4,4.9-1.8,7.3-1s4.4,2.7,5.3,5.1"/>
		<path class="st2" d="M1171.6,105.6c5.8,8.7,16.4,14.1,26.9,13.7"/>
		<path class="st2" d="M1201.5,75.5c-1.2,1.7-2.2,3.4-3.2,5.3"/>
		<path class="st2" d="M1197,80.6c3.2,8.6,6.7,17.1,10.3,25.5c-4-1.3-7.9-3.1-11.4-5.4"/>
		<path class="st3" d="M1172.7,85.9c0.3,3.4-1.4,3.8-2.7,3.7c-1.3-0.1-2.2-3.2-2.1-5.3c0.2-2.2,1.3-2.6,2.6-2.5
			C1171.9,81.9,1172.5,83.7,1172.7,85.9z"/>
		<path class="st3" d="M1215,85.6c0.2,2.8-1.2,3.2-2.3,3.1s-1.9-2.7-1.7-4.5c0.1-1.8,1.1-2.1,2.2-2.1S1214.8,83.8,1215,85.6z"/>
		<path class="st2" d="M1211.3,75.4c0.7-1.3,1.8-2.4,3.2-3c1.4-0.6,2.9-0.7,4.4-0.3c0.7,0.2,1.4,0.5,1.8,1.1"/>
		<path class="st4" d="M1171.5,80.1c-0.4,0.9-0.8,1.8-1.2,2.6"/>
		<path class="st4" d="M1214.5,80.7c-0.4,0.9-0.8,1.8-1.2,2.6"/>
		<path class="st0" d="M1144.2,115.1c2.1,4.5-10-4.2-13.8-7.7c-1.4-1.3-2.8-2.7-3.6-4.3c-1.8-3.6-1.2-7.9,1.4-11.1
			c1.2-1.4,2.7-2.7,4.7-3.2c2.2-0.6,4.8,0,6.5,1.3C1139.3,90.1,1140.6,107.3,1144.2,115.1z"/>
		<path class="st8" d="M1137.9,108.5c2,0,6.9-0.4,6.9-0.4l-3.2,8.1l6.8,0.5c0,0-8.3,31.6-9,28.9c-0.7-2.7,2.5-22.2,2.5-22.2
			l-6.2-0.8L1137.9,108.5z"/>
	</g>
</g>
</svg>
