<?xml version="1.0" encoding="utf-8"?>
<!-- Generator: Adobe Illustrator 22.0.1, SVG Export Plug-In . SVG Version: 6.00 Build 0)  -->
<svg version="1.1" xmlns="http://www.w3.org/2000/svg" xmlns:xlink="http://www.w3.org/1999/xlink" x="0px" y="0px"
	 viewBox="0 0 3255.6 826.7" style="enable-background:new 0 0 3255.6 826.7;" xml:space="preserve">
<style type="text/css">
	.st0{display:none;}
	.st1{display:inline;fill:#FFFFFF;}
	.st2{fill:#FFFFFF;stroke:#14120F;stroke-width:3;stroke-linecap:round;stroke-linejoin:round;stroke-miterlimit:10;}
	.st3{fill:#14120F;stroke:#14120F;stroke-miterlimit:10;}
	.st4{fill:none;stroke:#14120F;stroke-width:3;stroke-linecap:round;stroke-linejoin:round;stroke-miterlimit:10;}
	.st5{fill:#14120F;}
	.st6{fill:none;stroke:#14120F;stroke-width:2;stroke-linecap:round;stroke-linejoin:round;stroke-miterlimit:10;}
	.st7{fill:#14120F;stroke:#14120F;stroke-width:3;stroke-linecap:round;stroke-linejoin:round;stroke-miterlimit:10;}
	.st8{fill:none;stroke:#FFFFFF;stroke-width:3;stroke-linecap:round;stroke-linejoin:round;stroke-miterlimit:10;}
	.st9{fill:#FFFFFF;}
	.st10{fill:#FFFFFF;stroke:#14120F;stroke-width:2;stroke-linecap:round;stroke-linejoin:round;stroke-miterlimit:10;}
	.st11{fill:none;stroke:#231815;stroke-miterlimit:10;}
	.st12{fill:#14120F;stroke:#14120F;stroke-width:3;stroke-miterlimit:10;}
</style>
<g id="圖層_2" class="st0">
	<rect class="st1" width="3161.9" height="851.8"/>
</g>
<g id="圖層_1">
	<g>
		<g>
			<path class="st2" d="M167.4,448.2l12.4,4.2l-2.1,6.4c0,0,1.5,6.1,2.6,8c0,0,3.5,6.9,3.5,8.6c0,0-1.6,6.4-1.3,7.7
				c0,0,1.2,3.1,1.1,5.7c-0.1,2.1-2.8,2.9-4,1.2c-0.8-1.1-1.6-2.9-2.5-5.7c0,0,1.2-5.8,0.8-8.5c0,0,0.3,8-3.9,13.5
				c0,0-7.9,11-12.2,8.8l8.4-16.7c0,0-6.9,13.3-9.2,17.1c-0.4,0.7-1.2,1.2-2,1.4c-1,0.1-2.4-0.1-3-1.9c-0.2-0.8-0.1-1.6,0.2-2.3
				l8.2-15.9l-7.8,14c-0.7,1.3-2.2,2.2-3.7,2.2c-1.2-0.1-2.3-0.8-2.2-3.1c0-0.7,0.2-1.4,0.5-2.1l7.1-14.8l-5.8,10.3
				c-0.5,0.8-1.1,1.5-2,1.8c-0.7,0.3-1.5,0.3-2.2-0.3c-1-0.8-1.3-2.2-0.7-3.3l3.2-6.9c0,0,5.3-14.3,11.1-19.8L167.4,448.2z"/>
			<path class="st3" d="M194.2,155.3c6-0.9,11.6,4.9,11.9,10.9c0.3,6.1-3.8,11.7-8.9,14.9c7.2,0.9,13.7,6.1,16.2,12.8
				c2.6,6.8,1.1,14.9-3.7,20.3c8,2,14.6,8.7,16.5,16.6c1.9,8-0.9,16.9-7.1,22.3c4.7,14.3-5.4,31.7-20.2,34.6
				c4.8,7.9,4.2,18.6-1.4,25.9c-5.6,7.3-15.8,10.7-24.6,8.2c0.9,19.3-16.1,36.4-35.1,39.8c-11.4,2.1-24.1-0.3-32.2-8.6
				s-9.7-23-1.6-31.3c-15.1-12-16.1-37.8-1.9-50.9c-11.6-4.8-20.7-15.3-23.7-27.4c-3.1-12.2,0-25.7,8-35.4
				c-10-5-16.5-16.2-15.9-27.4c0.6-11.2,8.3-21.6,18.8-25.5c0-16.3,2.2-21.7,11.1-28.3c8.9-6.7,30.1-7.4,39.4-1.3
				c2.8-7.8,7.3-15.3,14.4-19.5c7.1-4.2,17.2-4,22.8,2c1-7.5,6.8-14.2,14.1-16.1c7.3-2,15.7,0.8,20.3,6.8c4.5-12.5,23-17,32.7-7.9
				c5.3-4.1,13.6-2.2,18.2,2.6s6.5,11.7,7.4,18.4c5.8,2.1,9.4,9,7.8,15c-1.6,6-8.1,10.2-14.2,9.2c-0.8-3.9-1.6-7.8-2.3-11.8
				c1.5,7.4-20.1,9.4-17.3-5.1c-4.4,9.1-16.3,3.8-22.8,10.7C211.6,139.7,207.9,149.8,194.2,155.3z"/>
			<path class="st2" d="M165.8,453.4c-2.6-18.2,0.3-52,11.3-64.6c43.1-49.2,30.2-70.7,32.9-121.5c0.4-6.6,0.7-13.3,3.1-19.6
				s7.7-11.2,13.8-15c2.7-1.7,6.7-3.4,12.7-0.5c26.4,12.7,31,53.9,26,86.9c-6.4,42.2-26.2,113.9-86.3,141.3L165.8,453.4z"/>
			<g>
				<path class="st2" d="M215.3,109.4c0,0-30.6,5.2-29.9,40.1c0,0,1.2,26.8,17,37.8l-5.8,37.8l33,7.1l-6.8-28.9
					c0,0-11.8-6.9-14.8-17.1c0,0,8.1,20.9,32.8,22.7c0,0,27.4,3.1,33.4-30.7c0,0,2.9-14.8-4.2-23.4c0,0-3.4-4.5,0.6-13.6
					c0,0,3.7-9.6-1.4-19.2c-2.4-4.5-6.5-8-11.2-10C250.8,108.8,236.4,104.9,215.3,109.4z"/>
				<path class="st4" d="M248.1,180.4c5.1,4.1,12.2,5.6,18.5,3.9"/>
				<path class="st4" d="M237.7,136.3c4.2-1,9,0.4,12,3.6"/>
				<g>
					<path class="st5" d="M246.7,152.9c0.3,3-1.2,3.4-2.4,3.3c-1.2-0.1-2-2.8-1.8-4.7c0.1-1.9,1.1-2.2,2.3-2.2
						S246.6,151,246.7,152.9z"/>
					<path class="st6" d="M245.7,147.8c-0.3,0.8-0.7,1.5-1,2.3"/>
				</g>
				<g>
					<path class="st5" d="M272.4,151.5c0.3,3-1.2,3.4-2.4,3.3c-1.2-0.1-2-2.8-1.8-4.7c0.1-1.9,1.1-2.2,2.3-2.2
						C271.7,148,272.2,149.6,272.4,151.5z"/>
					<path class="st6" d="M271.4,146.4c-0.3,0.8-0.7,1.5-1,2.3"/>
				</g>
				<path class="st4" d="M267,140.3c0.6-2.1,2.9-3.6,5-3.4"/>
				<path class="st2" d="M215.4,152.6l0.3,7.8c0,0-5.1-8.6-10.8-6.1c0,0-7.4,2.1-3.8,11.2c1.1,2.9,3,5.5,5.4,7.6
					c3.5,3.2,9.1,7,11.9,1.6"/>
				<polygon class="st2" points="213,171.2 221.1,173.2 216.8,183 221.6,184.6 216.8,212.7 216.1,188.7 211.1,185.5 				"/>
				<path class="st2" d="M262.9,144.4l18.9,27.8c0,0-4.8,1.4-14.2-2.1"/>
			</g>
			<path class="st7" d="M227.7,222.8l13.9,11.2l31.7,62.1l-16.7,19.7l4.1,56.5l-67.9,16.3c0,0-22.5-84.3-29.4-124.7l-2.2-22.2
				l10-5.8l16.4-14.4l10-2.5l-1.1,6.8l33,6.3L227.7,222.8z"/>
			<polygon class="st2" points="372.6,707.5 387.7,748.5 434.4,773.9 349.3,767.9 353.1,744.5 349.9,723.4 			"/>
			<polygon class="st2" points="125.4,740.4 107.6,765.6 164.5,784.7 63.6,784 78.6,767.9 95.7,739.9 			"/>
			<path class="st7" d="M262.8,419.8c-20-3.1-37.1,19.1-37.1,19.1c-15.3,17.6-4.7,47.2-4.7,47.2c24.4,41.7,63.7,59.7,82.2,104.3
				c15,36.1-11.4,86.6,39.3,147.6l32.4-24.2c-0.1-90.4-30.3-191.3-72.6-271.2C302.3,442.6,287.2,422.9,262.8,419.8z"/>
			<g>
				<path class="st7" d="M247.4,473c7.5-13.8,13.1-31.3,12.5-47c-23.3-15.9-48-38-48-38l-18.9,7c-23.9,45.4-40.4,94.7-48.7,145.3
					c-6.5,39.5,2.7,42.8-5.6,83.9c-2.9,14.3-36.2,52.6-43,65.5C88.1,704,74.1,726.5,71,755l46.1-1.2c36.8-36,83.6-96.5,102.9-142.5
					c19.3-45.9,31-96,26.3-145.6"/>
			</g>
			<path class="st8" d="M263.1,438.2c0.5,12.7-3.1,25.5-10.1,36.1c-1.2,1.8-2.6,3.7-3.1,5.8c-0.6,2.1-0.3,4.3-0.1,6.5
				c1.6,17-2.6,51.9-6,68.5"/>
			<path class="st2" d="M314.3,453.3c-3-20.6-16.9-56.4-32.9-66.6c-62.6-39.7-55.4-67.2-74.6-121.6c-2.5-7-5-14.2-9.6-20.3
				c-4.6-6.1-12-9.7-19.8-11.9c-3.5-1-8.3-1.6-14,3.5c-24.7,22.2-4.7,79.6,11.2,113.8c20.4,43.8,72.7,97.6,127.2,115.1L314.3,453.3z
				"/>
			<path class="st2" d="M301.8,465.3l12.3-11.4l5.9,6.3c0,0,7.8,2,10.6,2c0,0,9.9,0.2,11.8,1.3c0,0,6.3,5.7,7.9,6.1
				c0,0,4.3,0.5,7.1,2.2c2.3,1.4,1.6,5-1.1,5.3c-1.7,0.2-4.2,0.1-8-0.7c0,0-5.8-4.9-9.1-6.1c0,0,9.3,4.5,12.9,12.7
				c0,0,7.6,15.7,2.5,19.2l-13.7-19.7c0,0,10.9,15.9,13.8,20.8c0.6,1,0.7,2.1,0.3,3.1c-0.5,1.3-1.6,2.6-4,2.2
				c-1-0.2-1.9-0.8-2.4-1.7l-13-18.9l11.1,17.4c1.1,1.7,1.2,3.8,0.2,5.5c-0.8,1.3-2.2,2.1-4.8,0.6c-0.8-0.5-1.5-1.1-2.1-1.8
				l-12.4-17.1l8.2,12.8c0.6,1,1,2.2,0.8,3.4c-0.1,0.9-0.6,1.9-1.7,2.4c-1.5,0.7-3.3,0.1-4.2-1.2l-5.9-7.8c0,0-12.9-14.7-15.6-24.6
				L301.8,465.3z"/>
			<path class="st7" d="M239.4,100.3c4.7-1.5,10.2-1,14.2,2c4,3,6,8.6,4.2,13.2c-1.4,3.6-4.8,6.1-8.4,7.3c-3.6,1.3-7.5,1.5-11.3,1.7
				c0.7,0.2,1.3,0.4,2,0.6c2,4.5-0.3,10-4.1,13.1c-3.8,3.1-8.8,4.3-13.7,5c3.6,4.3,2.3,11.5-0.8,16.1c-3.2,4.6-9.5,6.7-14.8,4.9
				c6.6,3.8,10,12.4,7.9,19.8s-9.6,12.7-17.3,12.4c7.8-0.7,14.1,7.6,14.2,15.5s-4,15.1-8.1,21.8c5.2,5.7,6.4,14.7,1.8,20.9
				c-4.6,6.2-13.7,8.5-20.7,5.2c2.3,5.7,0.3,12.6-4.1,17c-4.3,4.4-10.5,6.5-16.7,7.1c-6.9,0.6-14.1-0.6-19.7-4.6
				c-5.6-4-9.2-11.1-8.1-17.8c-10.6-4.9-17.7-16.5-17.3-28.1c0.5-11.7,8.5-22.7,19.4-26.7c-8.3-6.6-12-18.4-9.2-28.6
				c2.9-10.2,12.3-18.2,22.8-19.5c-3.1-5.7-2.5-13.3,1.5-18.4s11.2-7.6,17.5-6c-0.5-7.8,4-15.6,11-19.1s15.9-2.5,21.9,2.5
				c0.4-4.8,4.1-9.2,8.7-10.6s10.1,0.4,13,4.3C227.3,105.5,233.9,102,239.4,100.3z"/>
		</g>
	</g>
	<g>
		<g>
			<path class="st2" d="M962.5,448.2l12.4,4.2l-2.1,6.4c0,0,1.5,6.1,2.6,8c0,0,3.5,6.9,3.5,8.6c0,0-1.6,6.4-1.3,7.7
				c0,0,1.2,3.1,1.1,5.7c-0.1,2.1-2.8,2.9-4,1.2c-0.8-1.1-1.6-2.9-2.5-5.7c0,0,1.2-5.8,0.8-8.5c0,0,0.3,8-3.9,13.5
				c0,0-7.9,11-12.2,8.8l8.4-16.7c0,0-6.9,13.3-9.2,17.1c-0.4,0.7-1.2,1.2-2,1.4c-1,0.1-2.4-0.1-3-1.9c-0.2-0.8-0.1-1.6,0.2-2.3
				l8.2-15.9l-7.8,14c-0.7,1.3-2.2,2.2-3.7,2.2c-1.2-0.1-2.3-0.8-2.2-3.1c0-0.7,0.2-1.4,0.5-2.1l7.1-14.8l-5.8,10.3
				c-0.5,0.8-1.1,1.5-2,1.8c-0.7,0.3-1.5,0.3-2.2-0.3c-1-0.8-1.3-2.2-0.7-3.3l3.2-6.9c0,0,5.3-14.3,11.1-19.8L962.5,448.2z"/>
			<path class="st3" d="M989.3,155.3c6-0.9,11.6,4.9,11.9,10.9c0.3,6.1-3.8,11.7-8.9,14.9c7.2,0.9,13.7,6.1,16.2,12.8
				c2.6,6.8,1.1,14.9-3.7,20.3c8,2,14.6,8.7,16.5,16.6c1.9,8-0.9,16.9-7.1,22.3c4.7,14.3-5.4,31.7-20.2,34.6
				c4.8,7.9,4.2,18.6-1.4,25.9c-5.6,7.3-15.8,10.7-24.6,8.2c0.9,19.3-16.1,36.4-35.1,39.8c-11.4,2.1-24.1-0.3-32.2-8.6
				c-8.1-8.3-9.7-23-1.6-31.3c-15.1-12-16.1-37.8-1.9-50.9c-11.6-4.8-20.7-15.3-23.7-27.4c-3.1-12.2,0-25.7,8-35.4
				c-10-5-16.5-16.2-15.9-27.4c0.6-11.2,8.3-21.6,18.8-25.5c0-16.3,2.2-21.7,11.1-28.3c8.9-6.7,30.1-7.4,39.4-1.3
				c2.8-7.8,7.3-15.3,14.4-19.5c7.1-4.2,17.2-4,22.8,2c1-7.5,6.8-14.2,14.1-16.1c7.3-2,15.7,0.8,20.3,6.8c4.5-12.5,23-17,32.7-7.9
				c5.3-4.1,13.6-2.2,18.2,2.6c4.7,4.8,6.5,11.7,7.4,18.4c5.8,2.1,9.4,9,7.8,15c-1.6,6-8.1,10.2-14.2,9.2c-0.8-3.9-1.6-7.8-2.3-11.8
				c1.5,7.4-20.1,9.4-17.3-5.1c-4.4,9.1-16.3,3.8-22.8,10.7C1006.7,139.7,1002.9,149.8,989.3,155.3z"/>
			<path class="st2" d="M960.9,453.4c-2.6-18.2,0.3-52,11.3-64.6c43.1-49.2,30.2-70.7,32.9-121.5c0.4-6.6,0.7-13.3,3.1-19.6
				s7.7-11.2,13.8-15c2.7-1.7,6.7-3.4,12.7-0.5c26.4,12.7,31,53.9,26,86.9c-6.4,42.2-26.2,113.9-86.3,141.3L960.9,453.4z"/>
			<g>
				<path class="st2" d="M1010.4,109.4c0,0-30.6,5.2-29.9,40.1c0,0,1.2,26.8,17,37.8l-5.8,37.8l33,7.1l-6.8-28.9
					c0,0-11.8-6.9-14.8-17.1c0,0,8.1,20.9,32.8,22.7c0,0,27.4,3.1,33.4-30.7c0,0,2.9-14.8-4.2-23.4c0,0-3.4-4.5,0.6-13.6
					c0,0,3.7-9.6-1.4-19.2c-2.4-4.5-6.5-8-11.2-10C1045.9,108.8,1031.5,104.9,1010.4,109.4z"/>
				<path class="st4" d="M1043.2,180.4c5.1,4.1,12.2,5.6,18.5,3.9"/>
				<path class="st4" d="M1032.8,136.3c4.2-1,9,0.4,12,3.6"/>
				<g>
					<path class="st5" d="M1041.8,152.9c0.3,3-1.2,3.4-2.4,3.3c-1.2-0.1-2-2.8-1.8-4.7c0.1-1.9,1.1-2.2,2.3-2.2
						C1041.1,149.4,1041.6,151,1041.8,152.9z"/>
					<path class="st6" d="M1040.7,147.8c-0.3,0.8-0.7,1.5-1,2.3"/>
				</g>
				<g>
					<path class="st5" d="M1067.5,151.5c0.3,3-1.2,3.4-2.4,3.3c-1.2-0.1-2-2.8-1.8-4.7c0.1-1.9,1.1-2.2,2.3-2.2
						S1067.3,149.6,1067.5,151.5z"/>
					<path class="st6" d="M1066.4,146.4c-0.3,0.8-0.7,1.5-1,2.3"/>
				</g>
				<path class="st4" d="M1062.1,140.3c0.6-2.1,2.9-3.6,5-3.4"/>
				<path class="st2" d="M1010.5,152.6l0.3,7.8c0,0-5.1-8.6-10.8-6.1c0,0-7.4,2.1-3.8,11.2c1.1,2.9,3,5.5,5.4,7.6
					c3.5,3.2,9.1,7,11.9,1.6"/>
				<polygon class="st2" points="1008,171.2 1016.2,173.2 1011.9,183 1016.7,184.6 1011.9,212.7 1011.2,188.7 1006.1,185.5 				"/>
				<path class="st2" d="M1058,144.4l18.9,27.8c0,0-4.8,1.4-14.2-2.1"/>
			</g>
			<path class="st7" d="M1022.8,222.8l13.9,11.2l31.7,62.1l-16.7,19.7l4.1,56.5l-67.9,16.3c0,0-22.5-84.3-29.4-124.7l-2.2-22.2
				l10-5.8l16.4-14.4l10-2.5l-1.1,6.8l33,6.3L1022.8,222.8z"/>
			<polygon class="st2" points="1167.7,707.5 1182.7,748.5 1229.5,773.9 1144.4,767.9 1148.2,744.5 1145,723.4 			"/>
			<polygon class="st2" points="920.4,740.4 902.6,765.6 959.6,784.7 858.7,784 873.7,767.9 890.7,739.9 			"/>
			<path class="st7" d="M1057.9,419.8c-20-3.1-37.1,19.1-37.1,19.1c-15.3,17.6-4.7,47.2-4.7,47.2c24.4,41.7,63.7,59.7,82.2,104.3
				c15,36.1-11.4,86.6,39.3,147.6l32.4-24.2c-0.1-90.4-30.3-191.3-72.6-271.2C1097.4,442.6,1082.2,422.9,1057.9,419.8z"/>
			<g>
				<path class="st7" d="M1042.5,473c7.5-13.8,13.1-31.3,12.5-47c-23.3-15.9-48-38-48-38l-18.9,7c-23.9,45.4-40.4,94.7-48.7,145.3
					c-6.5,39.5,2.7,42.8-5.6,83.9c-2.9,14.3-36.2,52.6-43,65.5c-7.5,14.2-21.6,36.7-24.6,65.1l46.1-1.2
					c36.8-36,83.6-96.5,102.9-142.5c19.3-45.9,31-96,26.3-145.6"/>
			</g>
			<path class="st8" d="M1058.2,438.2c0.5,12.7-3.1,25.5-10.1,36.1c-1.2,1.8-2.6,3.7-3.1,5.8c-0.6,2.1-0.3,4.3-0.1,6.5
				c1.6,17-2.6,51.9-6,68.5"/>
			<path class="st2" d="M1109.4,453.3c-3-20.6-16.9-56.4-32.9-66.6c-62.6-39.7-55.4-67.2-74.6-121.6c-2.5-7-5-14.2-9.6-20.3
				c-4.6-6.1-12-9.7-19.8-11.9c-3.5-1-8.3-1.6-14,3.5c-24.7,22.2-4.7,79.6,11.2,113.8c20.4,43.8,72.7,97.6,127.2,115.1L1109.4,453.3
				z"/>
			<path class="st2" d="M1096.9,465.3l12.3-11.4l5.9,6.3c0,0,7.8,2,10.6,2c0,0,9.9,0.2,11.8,1.3c0,0,6.3,5.7,7.9,6.1
				c0,0,4.3,0.5,7.1,2.2c2.3,1.4,1.6,5-1.1,5.3c-1.7,0.2-4.2,0.1-8-0.7c0,0-5.8-4.9-9.1-6.1c0,0,9.3,4.5,12.9,12.7
				c0,0,7.6,15.7,2.5,19.2l-13.7-19.7c0,0,10.9,15.9,13.8,20.8c0.6,1,0.7,2.1,0.3,3.1c-0.5,1.3-1.6,2.6-4,2.2
				c-1-0.2-1.9-0.8-2.4-1.7l-13-18.9l11.1,17.4c1.1,1.7,1.2,3.8,0.2,5.5c-0.8,1.3-2.2,2.1-4.8,0.6c-0.8-0.5-1.5-1.1-2.1-1.8
				l-12.4-17.1l8.2,12.8c0.6,1,1,2.2,0.8,3.4c-0.1,0.9-0.6,1.9-1.7,2.4c-1.5,0.7-3.3,0.1-4.2-1.2l-5.9-7.8c0,0-12.9-14.7-15.6-24.6
				L1096.9,465.3z"/>
			<path class="st7" d="M1034.5,100.3c4.7-1.5,10.2-1,14.2,2s6,8.6,4.2,13.2c-1.4,3.6-4.8,6.1-8.4,7.3c-3.6,1.3-7.5,1.5-11.3,1.7
				c0.7,0.2,1.3,0.4,2,0.6c2,4.5-0.3,10-4.1,13.1c-3.8,3.1-8.8,4.3-13.7,5c3.6,4.3,2.3,11.5-0.8,16.1s-9.5,6.7-14.8,4.9
				c6.6,3.8,10,12.4,7.9,19.8s-9.6,12.7-17.3,12.4c7.8-0.7,14.1,7.6,14.2,15.5c0.1,7.9-4,15.1-8.1,21.8c5.2,5.7,6.4,14.7,1.8,20.9
				c-4.6,6.2-13.7,8.5-20.7,5.2c2.3,5.7,0.3,12.6-4.1,17c-4.3,4.4-10.5,6.5-16.7,7.1c-6.9,0.6-14.1-0.6-19.7-4.6
				c-5.6-4-9.2-11.1-8.1-17.8c-10.6-4.9-17.7-16.5-17.3-28.1c0.5-11.7,8.5-22.7,19.4-26.7c-8.3-6.6-12-18.4-9.2-28.6
				c2.9-10.2,12.3-18.2,22.8-19.5c-3.1-5.7-2.5-13.3,1.5-18.4s11.2-7.6,17.5-6c-0.5-7.8,4-15.6,11-19.1s15.9-2.5,21.9,2.5
				c0.4-4.8,4.1-9.2,8.7-10.6s10.1,0.4,13,4.3C1022.4,105.5,1029,102,1034.5,100.3z"/>
		</g>
	</g>
	<g>
		<g>
			<path class="st2" d="M1753.6,448.2l12.4,4.2l-2.1,6.4c0,0,1.5,6.1,2.6,8c0,0,3.5,6.9,3.5,8.6c0,0-1.6,6.4-1.3,7.7
				c0,0,1.2,3.1,1.1,5.7c-0.1,2.1-2.8,2.9-4,1.2c-0.8-1.1-1.6-2.9-2.5-5.7c0,0,1.2-5.8,0.8-8.5c0,0,0.3,8-3.9,13.5
				c0,0-7.9,11-12.2,8.8l8.4-16.7c0,0-6.9,13.3-9.2,17.1c-0.4,0.7-1.2,1.2-2,1.4c-1,0.1-2.4-0.1-3-1.9c-0.2-0.8-0.1-1.6,0.2-2.3
				l8.2-15.9l-7.8,14c-0.7,1.3-2.2,2.2-3.7,2.2c-1.2-0.1-2.3-0.8-2.2-3.1c0-0.7,0.2-1.4,0.5-2.1l7.1-14.8l-5.8,10.3
				c-0.5,0.8-1.1,1.5-2,1.8c-0.7,0.3-1.5,0.3-2.2-0.3c-1-0.8-1.3-2.2-0.7-3.3l3.2-6.9c0,0,5.3-14.3,11.1-19.8L1753.6,448.2z"/>
			<path class="st3" d="M1780.3,155.3c6-0.9,11.6,4.9,11.9,10.9c0.3,6.1-3.8,11.7-8.9,14.9c7.2,0.9,13.7,6.1,16.2,12.8
				c2.6,6.8,1.1,14.9-3.7,20.3c8,2,14.6,8.7,16.5,16.6c1.9,8-0.9,16.9-7.1,22.3c4.7,14.3-5.4,31.7-20.2,34.6
				c4.8,7.9,4.2,18.6-1.4,25.9c-5.6,7.3-15.8,10.7-24.6,8.2c0.9,19.3-16.1,36.4-35.1,39.8c-11.4,2.1-24.1-0.3-32.2-8.6
				c-8.1-8.3-9.7-23-1.6-31.3c-15.1-12-16.1-37.8-1.9-50.9c-11.6-4.8-20.7-15.3-23.7-27.4c-3.1-12.2,0-25.7,8-35.4
				c-10-5-16.5-16.2-15.9-27.4c0.6-11.2,8.3-21.6,18.8-25.5c0-16.3,2.2-21.7,11.1-28.3c8.9-6.7,30.1-7.4,39.4-1.3
				c2.8-7.8,7.3-15.3,14.4-19.5c7.1-4.2,17.2-4,22.8,2c1-7.5,6.8-14.2,14.1-16.1c7.3-2,15.7,0.8,20.3,6.8c4.5-12.5,23-17,32.7-7.9
				c5.3-4.1,13.6-2.2,18.2,2.6c4.7,4.8,6.5,11.7,7.4,18.4c5.8,2.1,9.4,9,7.8,15s-8.1,10.2-14.2,9.2c-0.8-3.9-1.6-7.8-2.3-11.8
				c1.5,7.4-20.1,9.4-17.3-5.1c-4.4,9.1-16.3,3.8-22.8,10.7C1797.7,139.7,1794,149.8,1780.3,155.3z"/>
			<path class="st2" d="M1751.9,453.4c-2.6-18.2,0.3-52,11.3-64.6c43.1-49.2,30.2-70.7,32.9-121.5c0.4-6.6,0.7-13.3,3.1-19.6
				c2.4-6.3,7.7-11.2,13.8-15c2.7-1.7,6.7-3.4,12.7-0.5c26.4,12.7,31,53.9,26,86.9c-6.4,42.2-26.2,113.9-86.3,141.3L1751.9,453.4z"
				/>
			<g>
				<path class="st2" d="M1801.4,109.4c0,0-30.6,5.2-29.9,40.1c0,0,1.2,26.8,17,37.8l-5.8,37.8l33,7.1l-6.8-28.9
					c0,0-11.8-6.9-14.8-17.1c0,0,8.1,20.9,32.8,22.7c0,0,27.4,3.1,33.4-30.7c0,0,2.9-14.8-4.2-23.4c0,0-3.4-4.5,0.6-13.6
					c0,0,3.7-9.6-1.4-19.2c-2.4-4.5-6.5-8-11.2-10C1836.9,108.8,1822.6,104.9,1801.4,109.4z"/>
				<path class="st4" d="M1834.3,180.4c5.1,4.1,12.2,5.6,18.5,3.9"/>
				<path class="st4" d="M1823.9,136.3c4.2-1,9,0.4,12,3.6"/>
				<g>
					<path class="st5" d="M1832.9,152.9c0.3,3-1.2,3.4-2.4,3.3c-1.2-0.1-2-2.8-1.8-4.7c0.1-1.9,1.1-2.2,2.3-2.2
						C1832.1,149.4,1832.7,151,1832.9,152.9z"/>
					<path class="st6" d="M1831.8,147.8c-0.3,0.8-0.7,1.5-1,2.3"/>
				</g>
				<g>
					<path class="st5" d="M1858.6,151.5c0.3,3-1.2,3.4-2.4,3.3c-1.2-0.1-2-2.8-1.8-4.7c0.1-1.9,1.1-2.2,2.3-2.2
						S1858.4,149.6,1858.6,151.5z"/>
					<path class="st6" d="M1857.5,146.4c-0.3,0.8-0.7,1.5-1,2.3"/>
				</g>
				<path class="st4" d="M1853.1,140.3c0.6-2.1,2.9-3.6,5-3.4"/>
				<path class="st2" d="M1801.6,152.6l0.3,7.8c0,0-5.1-8.6-10.8-6.1c0,0-7.4,2.1-3.8,11.2c1.1,2.9,3,5.5,5.4,7.6
					c3.5,3.2,9.1,7,11.9,1.6"/>
				<polygon class="st2" points="1799.1,171.2 1807.3,173.2 1802.9,183 1807.8,184.6 1803,212.7 1802.2,188.7 1797.2,185.5 				"/>
				<path class="st2" d="M1849,144.4l18.9,27.8c0,0-4.8,1.4-14.2-2.1"/>
			</g>
			<path class="st7" d="M1813.9,222.8l13.9,11.2l31.7,62.1l-16.7,19.7l4.1,56.5l-67.9,16.3c0,0-22.5-84.3-29.4-124.7l-2.2-22.2
				l10-5.8l16.4-14.4l10-2.5l-1.1,6.8l33,6.3L1813.9,222.8z"/>
			<polygon class="st2" points="1958.8,707.5 1973.8,748.5 2020.6,773.9 1935.5,767.9 1939.3,744.5 1936,723.4 			"/>
			<polygon class="st2" points="1711.5,740.4 1693.7,765.6 1750.6,784.7 1649.8,784 1664.7,767.9 1681.8,739.9 			"/>
			<path class="st7" d="M1849,419.8c-20-3.1-37.1,19.1-37.1,19.1c-15.3,17.6-4.7,47.2-4.7,47.2c24.4,41.7,63.7,59.7,82.2,104.3
				c15,36.1-11.4,86.6,39.3,147.6l32.4-24.2c-0.1-90.4-30.3-191.3-72.6-271.2C1888.4,442.6,1873.3,422.9,1849,419.8z"/>
			<g>
				<path class="st7" d="M1833.5,473c7.5-13.8,13.1-31.3,12.5-47c-23.3-15.9-48-38-48-38l-18.9,7c-23.9,45.4-40.4,94.7-48.7,145.3
					c-6.5,39.5,2.7,42.8-5.6,83.9c-2.9,14.3-36.2,52.6-43,65.5c-7.5,14.2-21.6,36.7-24.6,65.1l46.1-1.2
					c36.8-36,83.6-96.5,102.9-142.5c19.3-45.9,31-96,26.3-145.6"/>
			</g>
			<path class="st8" d="M1849.3,438.2c0.5,12.7-3.1,25.5-10.1,36.1c-1.2,1.8-2.6,3.7-3.1,5.8c-0.6,2.1-0.3,4.3-0.1,6.5
				c1.6,17-2.6,51.9-6,68.5"/>
			<path class="st2" d="M1900.5,453.3c-3-20.6-16.9-56.4-32.9-66.6c-62.6-39.7-55.4-67.2-74.6-121.6c-2.5-7-5-14.2-9.6-20.3
				c-4.6-6.1-12-9.7-19.8-11.9c-3.5-1-8.3-1.6-14,3.5c-24.7,22.2-4.7,79.6,11.2,113.8c20.4,43.8,72.7,97.6,127.2,115.1L1900.5,453.3
				z"/>
			<path class="st2" d="M1887.9,465.3l12.3-11.4l5.9,6.3c0,0,7.8,2,10.6,2c0,0,9.9,0.2,11.8,1.3c0,0,6.3,5.7,7.9,6.1
				c0,0,4.3,0.5,7.1,2.2c2.3,1.4,1.6,5-1.1,5.3c-1.7,0.2-4.2,0.1-8-0.7c0,0-5.8-4.9-9.1-6.1c0,0,9.3,4.5,12.9,12.7
				c0,0,7.6,15.7,2.5,19.2l-13.7-19.7c0,0,10.9,15.9,13.8,20.8c0.6,1,0.7,2.1,0.3,3.1c-0.5,1.3-1.6,2.6-4,2.2
				c-1-0.2-1.9-0.8-2.4-1.7l-13-18.9l11.1,17.4c1.1,1.7,1.2,3.8,0.2,5.5c-0.8,1.3-2.2,2.1-4.8,0.6c-0.8-0.5-1.5-1.1-2.1-1.8
				l-12.4-17.1l8.2,12.8c0.6,1,1,2.2,0.8,3.4c-0.1,0.9-0.6,1.9-1.7,2.4c-1.5,0.7-3.3,0.1-4.2-1.2l-5.9-7.8c0,0-12.9-14.7-15.6-24.6
				L1887.9,465.3z"/>
			<path class="st7" d="M1825.5,100.3c4.7-1.5,10.2-1,14.2,2c4,3,6,8.6,4.2,13.2c-1.4,3.6-4.8,6.1-8.4,7.3
				c-3.6,1.3-7.5,1.5-11.3,1.7c0.7,0.2,1.3,0.4,2,0.6c2,4.5-0.3,10-4.1,13.1c-3.8,3.1-8.8,4.3-13.7,5c3.6,4.3,2.3,11.5-0.8,16.1
				s-9.5,6.7-14.8,4.9c6.6,3.8,10,12.4,7.9,19.8c-2.1,7.3-9.6,12.7-17.3,12.4c7.8-0.7,14.1,7.6,14.2,15.5c0.1,7.9-4,15.1-8.1,21.8
				c5.2,5.7,6.4,14.7,1.8,20.9c-4.6,6.2-13.7,8.5-20.7,5.2c2.3,5.7,0.3,12.6-4.1,17c-4.3,4.4-10.5,6.5-16.7,7.1
				c-6.9,0.6-14.1-0.6-19.7-4.6c-5.6-4-9.2-11.1-8.1-17.8c-10.6-4.9-17.7-16.5-17.3-28.1c0.5-11.7,8.5-22.7,19.4-26.7
				c-8.3-6.6-12-18.4-9.2-28.6c2.9-10.2,12.3-18.2,22.8-19.5c-3.1-5.7-2.5-13.3,1.5-18.4c4-5.1,11.2-7.6,17.5-6
				c-0.5-7.8,4-15.6,11-19.1s15.9-2.5,21.9,2.5c0.4-4.8,4.1-9.2,8.7-10.6c4.7-1.4,10.1,0.4,13,4.3
				C1813.5,105.5,1820,102,1825.5,100.3z"/>
		</g>
	</g>
	<g>
		<g>
			<path class="st2" d="M2544.6,448.2l12.4,4.2l-2.1,6.4c0,0,1.5,6.1,2.6,8c0,0,3.5,6.9,3.5,8.6c0,0-1.6,6.4-1.3,7.7
				c0,0,1.2,3.1,1.1,5.7c-0.1,2.1-2.8,2.9-4,1.2c-0.8-1.1-1.6-2.9-2.5-5.7c0,0,1.2-5.8,0.8-8.5c0,0,0.3,8-3.9,13.5
				c0,0-7.9,11-12.2,8.8l8.4-16.7c0,0-6.9,13.3-9.2,17.1c-0.4,0.7-1.2,1.2-2,1.4c-1,0.1-2.4-0.1-3-1.9c-0.2-0.8-0.1-1.6,0.2-2.3
				l8.2-15.9l-7.8,14c-0.7,1.3-2.2,2.2-3.7,2.2c-1.2-0.1-2.3-0.8-2.2-3.1c0-0.7,0.2-1.4,0.5-2.1l7.1-14.8l-5.8,10.3
				c-0.5,0.8-1.1,1.5-2,1.8c-0.7,0.3-1.5,0.3-2.2-0.3c-1-0.8-1.3-2.2-0.7-3.3l3.2-6.9c0,0,5.3-14.3,11.1-19.8L2544.6,448.2z"/>
			<path class="st3" d="M2571.4,155.3c6-0.9,11.6,4.9,11.9,10.9c0.3,6.1-3.8,11.7-8.9,14.9c7.2,0.9,13.7,6.1,16.2,12.8
				c2.6,6.8,1.1,14.9-3.7,20.3c8,2,14.6,8.7,16.5,16.6c1.9,8-0.9,16.9-7.1,22.3c4.7,14.3-5.4,31.7-20.2,34.6
				c4.8,7.9,4.2,18.6-1.4,25.9c-5.6,7.3-15.8,10.7-24.6,8.2c0.9,19.3-16.1,36.4-35.1,39.8c-11.4,2.1-24.1-0.3-32.2-8.6
				s-9.7-23-1.6-31.3c-15.1-12-16.1-37.8-1.9-50.9c-11.6-4.8-20.7-15.3-23.7-27.4c-3.1-12.2,0-25.7,8-35.4
				c-10-5-16.5-16.2-15.9-27.4c0.6-11.2,8.3-21.6,18.8-25.5c0-16.3,2.2-21.7,11.1-28.3c8.9-6.7,30.1-7.4,39.4-1.3
				c2.8-7.8,7.3-15.3,14.4-19.5c7.1-4.2,17.2-4,22.8,2c1-7.5,6.8-14.2,14.1-16.1c7.3-2,15.7,0.8,20.3,6.8c4.5-12.5,23-17,32.7-7.9
				c5.3-4.1,13.6-2.2,18.2,2.6c4.7,4.8,6.5,11.7,7.4,18.4c5.8,2.1,9.4,9,7.8,15c-1.6,6-8.1,10.2-14.2,9.2c-0.8-3.9-1.6-7.8-2.3-11.8
				c1.5,7.4-20.1,9.4-17.3-5.1c-4.4,9.1-16.3,3.8-22.8,10.7C2588.8,139.7,2585.1,149.8,2571.4,155.3z"/>
			<path class="st2" d="M2543,453.4c-2.6-18.2,0.3-52,11.3-64.6c43.1-49.2,30.2-70.7,32.9-121.5c0.4-6.6,0.7-13.3,3.1-19.6
				c2.4-6.3,7.7-11.2,13.8-15c2.7-1.7,6.7-3.4,12.7-0.5c26.4,12.7,31,53.9,26,86.9c-6.4,42.2-26.2,113.9-86.3,141.3L2543,453.4z"/>
			<g>
				<path class="st2" d="M2592.5,109.4c0,0-30.6,5.2-29.9,40.1c0,0,1.2,26.8,17,37.8l-5.8,37.8l33,7.1l-6.8-28.9
					c0,0-11.8-6.9-14.8-17.1c0,0,8.1,20.9,32.8,22.7c0,0,27.4,3.1,33.4-30.7c0,0,2.9-14.8-4.2-23.4c0,0-3.4-4.5,0.6-13.6
					c0,0,3.7-9.6-1.4-19.2c-2.4-4.5-6.5-8-11.2-10C2628,108.8,2613.6,104.9,2592.5,109.4z"/>
				<path class="st4" d="M2625.3,180.4c5.1,4.1,12.2,5.6,18.5,3.9"/>
				<path class="st4" d="M2614.9,136.3c4.2-1,9,0.4,12,3.6"/>
				<g>
					<path class="st5" d="M2623.9,152.9c0.3,3-1.2,3.4-2.4,3.3c-1.2-0.1-2-2.8-1.8-4.7c0.1-1.9,1.1-2.2,2.3-2.2
						C2623.2,149.4,2623.8,151,2623.9,152.9z"/>
					<path class="st6" d="M2622.9,147.8c-0.3,0.8-0.7,1.5-1,2.3"/>
				</g>
				<g>
					<path class="st5" d="M2649.6,151.5c0.3,3-1.2,3.4-2.4,3.3c-1.2-0.1-2-2.8-1.8-4.7c0.1-1.9,1.1-2.2,2.3-2.2
						C2648.9,148,2649.5,149.6,2649.6,151.5z"/>
					<path class="st6" d="M2648.6,146.4c-0.3,0.8-0.7,1.5-1,2.3"/>
				</g>
				<path class="st4" d="M2644.2,140.3c0.6-2.1,2.9-3.6,5-3.4"/>
				<path class="st2" d="M2592.6,152.6l0.3,7.8c0,0-5.1-8.6-10.8-6.1c0,0-7.4,2.1-3.8,11.2c1.1,2.9,3,5.5,5.4,7.6
					c3.5,3.2,9.1,7,11.9,1.6"/>
				<polygon class="st2" points="2590.2,171.2 2598.3,173.2 2594,183 2598.9,184.6 2594.1,212.7 2593.3,188.7 2588.3,185.5 				"/>
				<path class="st2" d="M2640.1,144.4l18.9,27.8c0,0-4.8,1.4-14.2-2.1"/>
			</g>
			<path class="st7" d="M2604.9,222.8l13.9,11.2l31.7,62.1l-16.7,19.7l4.1,56.5l-67.9,16.3c0,0-22.5-84.3-29.4-124.7l-2.2-22.2
				l10-5.8l16.4-14.4l10-2.5l-1.1,6.8l33,6.3L2604.9,222.8z"/>
			<polygon class="st2" points="2749.8,707.5 2764.9,748.5 2811.6,773.9 2726.5,767.9 2730.3,744.5 2727.1,723.4 			"/>
			<polygon class="st2" points="2502.6,740.4 2484.8,765.6 2541.7,784.7 2440.8,784 2455.8,767.9 2472.9,739.9 			"/>
			<path class="st7" d="M2640,419.8c-20-3.1-37.1,19.1-37.1,19.1c-15.3,17.6-4.7,47.2-4.7,47.2c24.4,41.7,63.7,59.7,82.2,104.3
				c15,36.1-11.4,86.6,39.3,147.6l32.4-24.2c-0.1-90.4-30.3-191.3-72.6-271.2C2679.5,442.6,2664.4,422.9,2640,419.8z"/>
			<g>
				<path class="st7" d="M2624.6,473c7.5-13.8,13.1-31.3,12.5-47c-23.3-15.9-48-38-48-38l-18.9,7c-23.9,45.4-40.4,94.7-48.7,145.3
					c-6.5,39.5,2.7,42.8-5.6,83.9c-2.9,14.3-36.2,52.6-43,65.5c-7.5,14.2-21.6,36.7-24.6,65.1l46.1-1.2
					c36.8-36,83.6-96.5,102.9-142.5c19.3-45.9,31-96,26.3-145.6"/>
			</g>
			<path class="st8" d="M2640.3,438.2c0.5,12.7-3.1,25.5-10.1,36.1c-1.2,1.8-2.6,3.7-3.1,5.8c-0.6,2.1-0.3,4.3-0.1,6.5
				c1.6,17-2.6,51.9-6,68.5"/>
			<path class="st2" d="M2691.5,453.3c-3-20.6-16.9-56.4-32.9-66.6c-62.6-39.7-55.4-67.2-74.6-121.6c-2.5-7-5-14.2-9.6-20.3
				c-4.6-6.1-12-9.7-19.8-11.9c-3.5-1-8.3-1.6-14,3.5c-24.7,22.2-4.7,79.6,11.2,113.8c20.4,43.8,72.7,97.6,127.2,115.1L2691.5,453.3
				z"/>
			<path class="st2" d="M2679,465.3l12.3-11.4l5.9,6.3c0,0,7.8,2,10.6,2c0,0,9.9,0.2,11.8,1.3c0,0,6.3,5.7,7.9,6.1
				c0,0,4.3,0.5,7.1,2.2c2.3,1.4,1.6,5-1.1,5.3c-1.7,0.2-4.2,0.1-8-0.7c0,0-5.8-4.9-9.1-6.1c0,0,9.3,4.5,12.9,12.7
				c0,0,7.6,15.7,2.5,19.2l-13.7-19.7c0,0,10.9,15.9,13.8,20.8c0.6,1,0.7,2.1,0.3,3.1c-0.5,1.3-1.6,2.6-4,2.2
				c-1-0.2-1.9-0.8-2.4-1.7l-13-18.9l11.1,17.4c1.1,1.7,1.2,3.8,0.2,5.5c-0.8,1.3-2.2,2.1-4.8,0.6c-0.8-0.5-1.5-1.1-2.1-1.8
				l-12.4-17.1l8.2,12.8c0.6,1,1,2.2,0.8,3.4c-0.1,0.9-0.6,1.9-1.7,2.4c-1.5,0.7-3.3,0.1-4.2-1.2l-5.9-7.8c0,0-12.9-14.7-15.6-24.6
				L2679,465.3z"/>
			<path class="st7" d="M2616.6,100.3c4.7-1.5,10.2-1,14.2,2c4,3,6,8.6,4.2,13.2c-1.4,3.6-4.8,6.1-8.4,7.3
				c-3.6,1.3-7.5,1.5-11.3,1.7c0.7,0.2,1.3,0.4,2,0.6c2,4.5-0.3,10-4.1,13.1c-3.8,3.1-8.8,4.3-13.7,5c3.6,4.3,2.3,11.5-0.8,16.1
				s-9.5,6.7-14.8,4.9c6.6,3.8,10,12.4,7.9,19.8s-9.6,12.7-17.3,12.4c7.8-0.7,14.1,7.6,14.2,15.5s-4,15.1-8.1,21.8
				c5.2,5.7,6.4,14.7,1.8,20.9c-4.6,6.2-13.7,8.5-20.7,5.2c2.3,5.7,0.3,12.6-4.1,17s-10.5,6.5-16.7,7.1c-6.9,0.6-14.1-0.6-19.7-4.6
				c-5.6-4-9.2-11.1-8.1-17.8c-10.6-4.9-17.7-16.5-17.3-28.1c0.5-11.7,8.5-22.7,19.4-26.7c-8.3-6.6-12-18.4-9.2-28.6
				c2.9-10.2,12.3-18.2,22.8-19.5c-3.1-5.7-2.5-13.3,1.5-18.4c4-5.1,11.2-7.6,17.5-6c-0.5-7.8,4-15.6,11-19.1s15.9-2.5,21.9,2.5
				c0.4-4.8,4.1-9.2,8.7-10.6s10.1,0.4,13,4.3C2604.5,105.5,2611.1,102,2616.6,100.3z"/>
		</g>
	</g>
</g>
<g id="圖層_3">
	<g>
		<g>
			<g>
				<g>
					<path class="st2" d="M771,493.4c3.6,0.9,11.8,3.5,13.5,3.4c2.6-0.2,3.5-3.6,1.3-5.1c-2.6-1.7-11.1-7.7-11.1-7.7
						c-1.5-0.5-7.4-6.3-7.4-6.3c-1.8-1.1-11.3-1.8-11.3-1.8c-2.7-0.1-11.6,0.5-11.6,0.5l-5.4-6.3l-12.4,10.5l6.5,12
						c2.2,9.7,14,24.4,14,24.4l5.3,7.8c0.9,1.3,2.6,1.9,4,1.4c1.1-0.4,1.6-1.3,1.7-2.2c0.2-1.1-0.1-2.3-0.6-3.3l-7.3-12.7l11.2,17
						c0.5,0.7,1.1,1.4,1.9,1.9c2.4,1.5,3.9,0.8,4.7-0.4c1.1-1.6,1-3.6,0.1-5.3l-9.9-17.3l11.6,18.8c0.5,0.8,1.3,1.5,2.3,1.7
						c2.3,0.6,3.4-0.7,3.9-1.9c0.4-1,0.4-2.1-0.1-3c-2.5-4.9-12.3-20.6-12.3-20.6l12.4,19.5c10.7,4.5-1.5-18.6-1.5-18.6
						C773.1,498.2,772,495.1,771,493.4z"/>
					<path class="st4" d="M750.3,486.1c3.2,3.4,8.3,4.8,12.7,3.5"/>
				</g>
				<g>
					<path class="st2" d="M738.1,471.3c-0.4-20.1-9.4-56-23.5-67.6c-55.1-45.5-44.8-70.9-56.7-125.2c-1.5-7-3.1-14.2-6.7-20.6
						s-10.3-10.7-17.5-13.8c-3.2-1.3-7.8-2.5-13.8,1.7c-26.3,18.3-14.1,75.5-3,110.2c14.2,44.4,57.8,102,107.8,125.3L738.1,471.3z"
						/>
				</g>
				<path class="st3" d="M593.2,145.3c6-0.9,11.6,4.9,11.9,10.9c0.3,6.1-3.8,11.7-8.9,14.9c7.2,0.9,13.7,6.1,16.2,12.8
					c2.6,6.8,1.1,14.9-3.7,20.3c8,2,14.6,8.7,16.5,16.6c1.9,8-0.9,16.9-7.1,22.3c4.7,14.3-5.4,31.7-20.2,34.6
					c4.8,7.9,4.2,18.6-1.4,25.9c-5.6,7.3-15.8,10.7-24.6,8.2c0.9,19.3-16.1,36.4-35.1,39.8c-11.4,2.1-24.1-0.3-32.2-8.6
					c-8.1-8.3-9.7-23-1.6-31.3c-15.1-12-16.1-37.8-1.9-50.9c-11.6-4.8-20.7-15.3-23.7-27.4c-3.1-12.2,0-25.7,8-35.4
					c-10-5-16.5-16.2-15.9-27.4c0.6-11.2,8.3-21.6,18.8-25.5c0-16.3,2.2-21.7,11.1-28.3s30.1-7.4,39.4-1.3
					c2.8-7.8,7.3-15.3,14.4-19.5c7.1-4.2,17.2-4,22.8,2c1-7.5,6.8-14.2,14.1-16.1c7.3-2,15.7,0.8,20.3,6.8c4.5-12.5,23-17,32.7-7.9
					c5.3-4.1,13.6-2.2,18.2,2.6s6.5,11.7,7.4,18.4c5.8,2.1,9.4,9,7.8,15c-1.6,6-8.1,10.2-14.2,9.2c-0.8-3.9-1.6-7.8-2.3-11.8
					c1.5,7.4-20.1,9.4-17.3-5.1c-4.4,9.1-16.3,3.8-22.8,10.7C610.6,129.7,606.8,139.8,593.2,145.3z"/>
				<g>
					<path class="st2" d="M614.3,109.4c0,0-30.6,5.2-29.9,40.1c0,0,1.2,26.8,17,37.8l-5.8,37.8l33,7.1l-6.8-28.9
						c0,0-11.8-6.9-14.8-17.1c0,0,8.1,20.9,32.8,22.7c0,0,27.4,3.1,33.4-30.7c0,0,2.9-14.8-4.2-23.4c0,0-3.4-4.5,0.6-13.6
						c0,0,3.7-9.6-1.4-19.2c-2.4-4.5-6.5-8-11.2-10C649.8,108.8,635.4,104.9,614.3,109.4z"/>
					<path class="st4" d="M647.1,180.4c5.1,4.1,12.2,5.6,18.5,3.9"/>
					<path class="st4" d="M636.7,136.3c4.2-1,9,0.4,12,3.6"/>
					<g>
						<path class="st5" d="M645.7,152.9c0.3,3-1.2,3.4-2.4,3.3c-1.2-0.1-2-2.8-1.8-4.7c0.1-1.9,1.1-2.2,2.3-2.2
							C645,149.4,645.5,151,645.7,152.9z"/>
						<path class="st6" d="M644.6,147.8c-0.3,0.8-0.7,1.5-1,2.3"/>
					</g>
					<g>
						<path class="st5" d="M671.4,151.5c0.3,3-1.2,3.4-2.4,3.3c-1.2-0.1-2-2.8-1.8-4.7c0.1-1.9,1.1-2.2,2.3-2.2
							S671.2,149.6,671.4,151.5z"/>
						<path class="st6" d="M670.3,146.4c-0.3,0.8-0.7,1.5-1,2.3"/>
					</g>
					<path class="st4" d="M666,140.3c0.6-2.1,2.9-3.6,5-3.4"/>
					<path class="st2" d="M614.4,152.6l0.3,7.8c0,0-5.1-8.6-10.8-6.1c0,0-7.4,2.1-3.8,11.2c1.1,2.9,3,5.5,5.4,7.6
						c3.5,3.2,9.1,7,11.9,1.6"/>
					<polygon class="st2" points="611.9,171.2 620.1,173.2 615.8,183 620.6,184.6 615.8,212.7 615.1,188.7 610,185.5 					"/>
					<path class="st2" d="M661.9,144.4l18.9,27.8c0,0-4.8,1.4-14.2-2.1"/>
				</g>
				<path class="st7" d="M626.7,222.8l13.9,11.2l31.7,62.1l-16.7,19.7l4.1,56.5l-67.9,16.3c0,0-22.5-84.3-29.4-124.7l-2.2-22.2
					l10-5.8l16.4-14.4l10-2.5l-1.1,6.8l33,6.3L626.7,222.8z"/>
				<polygon class="st2" points="524.3,740.4 506.5,765.6 563.5,784.7 462.6,784 477.6,767.9 494.6,739.9 				"/>
				<path class="st8" d="M661.1,431.5c0.5,12.7-3.1,25.5-10.1,36.1c-1.2,1.8-2.6,3.7-3.1,5.8c-0.6,2.1-0.3,4.3-0.1,6.5
					c1.6,17-2.6,51.9-6,68.5"/>
				<path class="st7" d="M638.4,100.3c4.7-1.5,10.2-1,14.2,2c4,3,6,8.6,4.2,13.2c-1.4,3.6-4.8,6.1-8.4,7.3
					c-3.6,1.3-7.5,1.5-11.3,1.7c0.7,0.2,1.3,0.4,2,0.6c2,4.5-0.3,10-4.1,13.1s-8.8,4.3-13.7,5c3.6,4.3,2.3,11.5-0.8,16.1
					s-9.5,6.7-14.8,4.9c6.6,3.8,10,12.4,7.9,19.8c-2.1,7.3-9.6,12.7-17.3,12.4c7.8-0.7,14.1,7.6,14.2,15.5c0.1,7.9-4,15.1-8.1,21.8
					c5.2,5.7,6.4,14.7,1.8,20.9c-4.6,6.2-13.7,8.5-20.7,5.2c2.3,5.7,0.3,12.6-4.1,17c-4.3,4.4-10.5,6.5-16.7,7.1
					c-6.9,0.6-14.1-0.6-19.7-4.6c-5.6-4-9.2-11.1-8.1-17.8c-10.6-4.9-17.7-16.5-17.3-28.1c0.5-11.7,8.5-22.7,19.4-26.7
					c-8.3-6.6-12-18.4-9.2-28.6c2.9-10.2,12.3-18.2,22.8-19.5c-3.1-5.7-2.5-13.3,1.5-18.4c4-5.1,11.2-7.6,17.5-6
					c-0.5-7.8,4-15.6,11-19.1s15.9-2.5,21.9,2.5c0.4-4.8,4.1-9.2,8.7-10.6c4.7-1.4,10.1,0.4,13,4.3
					C626.3,105.5,632.9,102,638.4,100.3z"/>
				<path class="st12" d="M610.9,388.1l49.3-11.4l-0.1,31.1l-1.2,22.5c-0.4,14.5-5.7,30.2-12.5,42.7l-1-7.2
					c4.6,49.6-7,99.7-26.3,145.6c-19.3,45.9-66.1,106.5-102.9,142.5L470,755c3.1-28.5,17.1-51,24.6-65.2c6.9-12.9,40.1-51.2,43-65.5
					c8.3-41.1-0.8-44.4,5.6-83.9c8.3-50.6,24.8-99.9,48.7-145.3l16.2-6L610.9,388.1z"/>
				<polygon class="st2" points="659.7,372.4 591.8,388.7 592,395.1 660.2,376.7 				"/>
			</g>
		</g>
		<g>
			<polygon class="st2" points="761,727.7 778.1,758.3 835.4,784 739.6,780.5 746.6,765.3 736.1,743.1 			"/>
			<path class="st7" d="M593.8,390c-8.5-10.3-13.9,26.9-19.6,39c-4.9,10.6-9.9,21.8-9.4,33.6c0.3,6.4,2.2,12.5,4.5,18.4
				c18.4,47.3,59.6,81,84,125.3c13.4,24.4,21.4,51.4,31.6,77.4c10.1,26,23,51.8,43.7,70l34.5-26c0,0,6.9-113.2-105.1-280.2
				C658.1,447.6,616.4,417.2,593.8,390z"/>
		</g>
	</g>
	<g>
		<path class="st2" d="M555.3,500.4c12.2-16.9,27-52.3,22.6-70.7c-17.4-72.1,6.9-86.8,30.9-139.2c3.1-6.8,6.3-13.7,7.2-21.3
			c1-7.6-1.9-15.3-6-22.3c-1.8-3.1-4.9-6.9-12.5-7.2c-33.2-1.2-58.7,53.9-71,89.6c-15.8,45.7-15.5,120.7,11.5,171.1L555.3,500.4z"/>
		<path class="st2" d="M537.9,500.3l16.8,0.3l-0.1,8.6c0,0,4.2,6.8,6.2,8.8c0,0,7,7.1,7.6,9.1c0,0,0.6,8.5,1.4,9.9
			c0,0,2.7,3.4,3.6,6.5c0.7,2.6-2.3,4.7-4.5,3c-1.4-1.1-3.1-2.9-5.3-6c0,0-0.7-7.6-2.3-10.8c0,0,3.5,9.7,0.5,18.1
			c0,0-5.4,16.5-11.5,15.5l3.8-23.7c0,0-3.2,19-4.6,24.5c-0.3,1.1-1,2-2,2.5c-1.2,0.6-2.9,0.8-4.4-1.2c-0.6-0.8-0.8-1.9-0.6-2.9
			l3.8-22.6l-4.1,20.2c-0.4,1.9-1.8,3.6-3.7,4.1c-1.5,0.4-3.1-0.1-3.9-2.9c-0.3-0.9-0.3-1.8-0.2-2.8l3-20.9l-3,14.9
			c-0.2,1.2-0.8,2.3-1.8,3c-0.7,0.6-1.7,1-2.9,0.6c-1.5-0.6-2.4-2.2-2.2-3.8l1.2-9.7c0,0,0.9-19.6,5.9-28.6L537.9,500.3z"/>
	</g>
	<g>
		<g>
			<g>
				<g>
					<path class="st2" d="M1560,493.4c3.6,0.9,11.8,3.5,13.5,3.4c2.6-0.2,3.5-3.6,1.3-5.1c-2.6-1.7-11.1-7.7-11.1-7.7
						c-1.5-0.5-7.4-6.3-7.4-6.3c-1.8-1.1-11.3-1.8-11.3-1.8c-2.7-0.1-11.6,0.5-11.6,0.5l-5.4-6.3l-12.4,10.5l6.5,12
						c2.2,9.7,14,24.4,14,24.4l5.3,7.8c0.9,1.3,2.6,1.9,4,1.4c1.1-0.4,1.6-1.3,1.7-2.2c0.2-1.1-0.1-2.3-0.6-3.3l-7.3-12.7l11.2,17
						c0.5,0.7,1.1,1.4,1.9,1.9c2.4,1.5,3.9,0.8,4.7-0.4c1.1-1.6,1-3.6,0.1-5.3l-9.9-17.3l11.6,18.8c0.5,0.8,1.3,1.5,2.3,1.7
						c2.3,0.6,3.4-0.7,3.9-1.9c0.4-1,0.4-2.1-0.1-3c-2.5-4.9-12.3-20.6-12.3-20.6l12.4,19.5c10.7,4.5-1.5-18.6-1.5-18.6
						C1562.2,498.2,1561.1,495.1,1560,493.4z"/>
					<path class="st4" d="M1539.4,486.1c3.2,3.4,8.3,4.8,12.7,3.5"/>
				</g>
				<g>
					<path class="st2" d="M1527.1,471.3c-0.4-20.1-9.4-56-23.5-67.6c-55.1-45.5-44.8-70.9-56.7-125.2c-1.5-7-3.1-14.2-6.7-20.6
						s-10.3-10.7-17.5-13.8c-3.2-1.3-7.8-2.5-13.8,1.7c-26.3,18.3-14.1,75.5-3,110.2c14.2,44.4,57.8,102,107.8,125.3L1527.1,471.3z"
						/>
				</g>
				<path class="st3" d="M1382.2,145.3c6-0.9,11.6,4.9,11.9,10.9c0.3,6.1-3.8,11.7-8.9,14.9c7.2,0.9,13.7,6.1,16.2,12.8
					c2.6,6.8,1.1,14.9-3.7,20.3c8,2,14.6,8.7,16.5,16.6c1.9,8-0.9,16.9-7.1,22.3c4.7,14.3-5.4,31.7-20.2,34.6
					c4.8,7.9,4.2,18.6-1.4,25.9c-5.6,7.3-15.8,10.7-24.6,8.2c0.9,19.3-16.1,36.4-35.1,39.8c-11.4,2.1-24.1-0.3-32.2-8.6
					s-9.7-23-1.6-31.3c-15.1-12-16.1-37.8-1.9-50.9c-11.6-4.8-20.7-15.3-23.7-27.4c-3.1-12.2,0-25.7,8-35.4
					c-10-5-16.5-16.2-15.9-27.4c0.6-11.2,8.3-21.6,18.8-25.5c0-16.3,2.2-21.7,11.1-28.3s30.1-7.4,39.4-1.3
					c2.8-7.8,7.3-15.3,14.4-19.5c7.1-4.2,17.2-4,22.8,2c1-7.5,6.8-14.2,14.1-16.1c7.3-2,15.7,0.8,20.3,6.8c4.5-12.5,23-17,32.7-7.9
					c5.3-4.1,13.6-2.2,18.2,2.6c4.7,4.8,6.5,11.7,7.4,18.4c5.8,2.1,9.4,9,7.8,15s-8.1,10.2-14.2,9.2c-0.8-3.9-1.6-7.8-2.3-11.8
					c1.5,7.4-20.1,9.4-17.3-5.1c-4.4,9.1-16.3,3.8-22.8,10.7C1399.7,129.7,1395.9,139.8,1382.2,145.3z"/>
				<g>
					<path class="st2" d="M1403.3,109.4c0,0-30.6,5.2-29.9,40.1c0,0,1.2,26.8,17,37.8l-5.8,37.8l33,7.1l-6.8-28.9
						c0,0-11.8-6.9-14.8-17.1c0,0,8.1,20.9,32.8,22.7c0,0,27.4,3.1,33.4-30.7c0,0,2.9-14.8-4.2-23.4c0,0-3.4-4.5,0.6-13.6
						c0,0,3.7-9.6-1.4-19.2c-2.4-4.5-6.5-8-11.2-10C1438.8,108.8,1424.5,104.9,1403.3,109.4z"/>
					<path class="st4" d="M1436.2,180.4c5.1,4.1,12.2,5.6,18.5,3.9"/>
					<path class="st4" d="M1425.8,136.3c4.2-1,9,0.4,12,3.6"/>
					<g>
						<path class="st5" d="M1434.8,152.9c0.3,3-1.2,3.4-2.4,3.3c-1.2-0.1-2-2.8-1.8-4.7c0.1-1.9,1.1-2.2,2.3-2.2
							S1434.6,151,1434.8,152.9z"/>
						<path class="st6" d="M1433.7,147.8c-0.3,0.8-0.7,1.5-1,2.3"/>
					</g>
					<g>
						<path class="st5" d="M1460.5,151.5c0.3,3-1.2,3.4-2.4,3.3c-1.2-0.1-2-2.8-1.8-4.7c0.1-1.9,1.1-2.2,2.3-2.2
							S1460.3,149.6,1460.5,151.5z"/>
						<path class="st6" d="M1459.4,146.4c-0.3,0.8-0.7,1.5-1,2.3"/>
					</g>
					<path class="st4" d="M1455.1,140.3c0.6-2.1,2.9-3.6,5-3.4"/>
					<path class="st2" d="M1403.5,152.6l0.3,7.8c0,0-5.1-8.6-10.8-6.1c0,0-7.4,2.1-3.8,11.2c1.1,2.9,3,5.5,5.4,7.6
						c3.5,3.2,9.1,7,11.9,1.6"/>
					<polygon class="st2" points="1401,171.2 1409.2,173.2 1404.8,183 1409.7,184.6 1404.9,212.7 1404.1,188.7 1399.1,185.5 					
						"/>
					<path class="st2" d="M1450.9,144.4l18.9,27.8c0,0-4.8,1.4-14.2-2.1"/>
				</g>
				<path class="st7" d="M1415.8,222.8l13.9,11.2l31.7,62.1l-16.7,19.7l4.1,56.5l-67.9,16.3c0,0-22.5-84.3-29.4-124.7l-2.2-22.2
					l10-5.8l16.4-14.4l10-2.5l-1.1,6.8l33,6.3L1415.8,222.8z"/>
				<polygon class="st2" points="1313.4,740.4 1295.6,765.6 1352.5,784.7 1251.7,784 1266.7,767.9 1283.7,739.9 				"/>
				<path class="st8" d="M1450.2,431.5c0.5,12.7-3.1,25.5-10.1,36.1c-1.2,1.8-2.6,3.7-3.1,5.8c-0.6,2.1-0.3,4.3-0.1,6.5
					c1.6,17-2.6,51.9-6,68.5"/>
				<path class="st7" d="M1427.5,100.3c4.7-1.5,10.2-1,14.2,2c4,3,6,8.6,4.2,13.2c-1.4,3.6-4.8,6.1-8.4,7.3
					c-3.6,1.3-7.5,1.5-11.3,1.7c0.7,0.2,1.3,0.4,2,0.6c2,4.5-0.3,10-4.1,13.1c-3.8,3.1-8.8,4.3-13.7,5c3.6,4.3,2.3,11.5-0.8,16.1
					s-9.5,6.7-14.8,4.9c6.6,3.8,10,12.4,7.9,19.8c-2.1,7.3-9.6,12.7-17.3,12.4c7.8-0.7,14.1,7.6,14.2,15.5c0.1,7.9-4,15.1-8.1,21.8
					c5.2,5.7,6.4,14.7,1.8,20.9c-4.6,6.2-13.7,8.5-20.7,5.2c2.3,5.7,0.3,12.6-4.1,17c-4.3,4.4-10.5,6.5-16.7,7.1
					c-6.9,0.6-14.1-0.6-19.7-4.6c-5.6-4-9.2-11.1-8.1-17.8c-10.6-4.9-17.7-16.5-17.3-28.1c0.5-11.7,8.5-22.7,19.4-26.7
					c-8.3-6.6-12-18.4-9.2-28.6c2.9-10.2,12.3-18.2,22.8-19.5c-3.1-5.7-2.5-13.3,1.5-18.4c4-5.1,11.2-7.6,17.5-6
					c-0.5-7.8,4-15.6,11-19.1c6.9-3.5,15.9-2.5,21.9,2.5c0.4-4.8,4.1-9.2,8.7-10.6c4.7-1.4,10.1,0.4,13,4.3
					C1415.4,105.5,1421.9,102,1427.5,100.3z"/>
				<path class="st12" d="M1400,388.1l49.3-11.4l-0.1,31.1l-1.2,22.5c-0.4,14.5-5.7,30.2-12.5,42.7l-1-7.2
					c4.6,49.6-7,99.7-26.3,145.6c-19.3,45.9-66.1,106.5-102.9,142.5l-46.1,1.2c3.1-28.5,17.1-51,24.6-65.2
					c6.9-12.9,40.1-51.2,43-65.5c8.3-41.1-0.8-44.4,5.6-83.9c8.3-50.6,24.8-99.9,48.7-145.3l16.2-6L1400,388.1z"/>
				<polygon class="st2" points="1448.8,372.4 1380.9,388.7 1381,395.1 1449.2,376.7 				"/>
			</g>
		</g>
		<g>
			<polygon class="st2" points="1550.1,727.7 1567.2,758.3 1624.5,784 1528.7,780.5 1535.7,765.3 1525.1,743.1 			"/>
			<path class="st7" d="M1382.9,390c-8.5-10.3-13.9,26.9-19.6,39c-4.9,10.6-9.9,21.8-9.4,33.6c0.3,6.4,2.2,12.5,4.5,18.4
				c18.4,47.3,59.6,81,84,125.3c13.4,24.4,21.4,51.4,31.6,77.4s23,51.8,43.7,70l34.5-26c0,0,6.9-113.2-105.1-280.2
				C1447.2,447.6,1405.4,417.2,1382.9,390z"/>
		</g>
	</g>
	<g>
		<path class="st2" d="M1344.3,500.4c12.2-16.9,27-52.3,22.6-70.7c-17.4-72.1,6.9-86.8,30.9-139.2c3.1-6.8,6.3-13.7,7.2-21.3
			c1-7.6-1.9-15.3-6-22.3c-1.8-3.1-4.9-6.9-12.5-7.2c-33.2-1.2-58.7,53.9-71,89.6c-15.8,45.7-15.5,120.7,11.5,171.1L1344.3,500.4z"
			/>
		<path class="st2" d="M1327,500.3l16.8,0.3l-0.1,8.6c0,0,4.2,6.8,6.2,8.8c0,0,7,7.1,7.6,9.1c0,0,0.6,8.5,1.4,9.9
			c0,0,2.7,3.4,3.6,6.5c0.7,2.6-2.3,4.7-4.5,3c-1.4-1.1-3.1-2.9-5.3-6c0,0-0.7-7.6-2.3-10.8c0,0,3.5,9.7,0.5,18.1
			c0,0-5.4,16.5-11.5,15.5l3.8-23.7c0,0-3.2,19-4.6,24.5c-0.3,1.1-1,2-2,2.5c-1.2,0.6-2.9,0.8-4.4-1.2c-0.6-0.8-0.8-1.9-0.6-2.9
			l3.8-22.6l-4.1,20.2c-0.4,1.9-1.8,3.6-3.7,4.1c-1.5,0.4-3.1-0.1-3.9-2.9c-0.3-0.9-0.3-1.8-0.2-2.8l3-20.9l-3,14.9
			c-0.2,1.2-0.8,2.3-1.8,3c-0.7,0.6-1.7,1-2.9,0.6c-1.5-0.6-2.4-2.2-2.2-3.8l1.2-9.7c0,0,0.9-19.6,5.9-28.6L1327,500.3z"/>
	</g>
	<g>
		<g>
			<g>
				<g>
					<path class="st2" d="M2351.1,493.4c3.6,0.9,11.8,3.5,13.5,3.4c2.6-0.2,3.5-3.6,1.3-5.1c-2.6-1.7-11.1-7.7-11.1-7.7
						c-1.5-0.5-7.4-6.3-7.4-6.3c-1.8-1.1-11.3-1.8-11.3-1.8c-2.7-0.1-11.6,0.5-11.6,0.5l-5.4-6.3l-12.4,10.5l6.5,12
						c2.2,9.7,14,24.4,14,24.4l5.3,7.8c0.9,1.3,2.6,1.9,4,1.4c1.1-0.4,1.6-1.3,1.7-2.2c0.2-1.1-0.1-2.3-0.6-3.3l-7.3-12.7l11.2,17
						c0.5,0.7,1.1,1.4,1.9,1.9c2.4,1.5,3.9,0.8,4.7-0.4c1.1-1.6,1-3.6,0.1-5.3l-9.9-17.3l11.6,18.8c0.5,0.8,1.3,1.5,2.3,1.7
						c2.3,0.6,3.4-0.7,3.9-1.9c0.4-1,0.4-2.1-0.1-3c-2.5-4.9-12.3-20.6-12.3-20.6l12.4,19.5c10.7,4.5-1.5-18.6-1.5-18.6
						C2353.2,498.2,2352.2,495.1,2351.1,493.4z"/>
					<path class="st4" d="M2330.5,486.1c3.2,3.4,8.3,4.8,12.7,3.5"/>
				</g>
				<g>
					<path class="st2" d="M2318.2,471.3c-0.4-20.1-9.4-56-23.5-67.6c-55.1-45.5-44.8-70.9-56.7-125.2c-1.5-7-3.1-14.2-6.7-20.6
						s-10.3-10.7-17.5-13.8c-3.2-1.3-7.8-2.5-13.8,1.7c-26.3,18.3-14.1,75.5-3,110.2c14.2,44.4,57.8,102,107.8,125.3L2318.2,471.3z"
						/>
				</g>
				<path class="st3" d="M2173.3,145.3c6-0.9,11.6,4.9,11.9,10.9c0.3,6.1-3.8,11.7-8.9,14.9c7.2,0.9,13.7,6.1,16.2,12.8
					c2.6,6.8,1.1,14.9-3.7,20.3c8,2,14.6,8.7,16.5,16.6c1.9,8-0.9,16.9-7.1,22.3c4.7,14.3-5.4,31.7-20.2,34.6
					c4.8,7.9,4.2,18.6-1.4,25.9c-5.6,7.3-15.8,10.7-24.6,8.2c0.9,19.3-16.1,36.4-35.1,39.8c-11.4,2.1-24.1-0.3-32.2-8.6
					s-9.7-23-1.6-31.3c-15.1-12-16.1-37.8-1.9-50.9c-11.6-4.8-20.7-15.3-23.7-27.4c-3.1-12.2,0-25.7,8-35.4
					c-10-5-16.5-16.2-15.9-27.4c0.6-11.2,8.3-21.6,18.8-25.5c0-16.3,2.2-21.7,11.1-28.3s30.1-7.4,39.4-1.3
					c2.8-7.8,7.3-15.3,14.4-19.5c7.1-4.2,17.2-4,22.8,2c1-7.5,6.8-14.2,14.1-16.1c7.3-2,15.7,0.8,20.3,6.8c4.5-12.5,23-17,32.7-7.9
					c5.3-4.1,13.6-2.2,18.2,2.6c4.7,4.8,6.5,11.7,7.4,18.4c5.8,2.1,9.4,9,7.8,15c-1.6,6-8.1,10.2-14.2,9.2
					c-0.8-3.9-1.6-7.8-2.3-11.8c1.5,7.4-20.1,9.4-17.3-5.1c-4.4,9.1-16.3,3.8-22.8,10.7C2190.7,129.7,2187,139.8,2173.3,145.3z"/>
				<g>
					<path class="st2" d="M2194.4,109.4c0,0-30.6,5.2-29.9,40.1c0,0,1.2,26.8,17,37.8l-5.8,37.8l33,7.1l-6.8-28.9
						c0,0-11.8-6.9-14.8-17.1c0,0,8.1,20.9,32.8,22.7c0,0,27.4,3.1,33.4-30.7c0,0,2.9-14.8-4.2-23.4c0,0-3.4-4.5,0.6-13.6
						c0,0,3.7-9.6-1.4-19.2c-2.4-4.5-6.5-8-11.2-10C2229.9,108.8,2215.6,104.9,2194.4,109.4z"/>
					<path class="st4" d="M2227.2,180.4c5.1,4.1,12.2,5.6,18.5,3.9"/>
					<path class="st4" d="M2216.9,136.3c4.2-1,9,0.4,12,3.6"/>
					<g>
						<path class="st5" d="M2225.8,152.9c0.3,3-1.2,3.4-2.4,3.3c-1.2-0.1-2-2.8-1.8-4.7c0.1-1.9,1.1-2.2,2.3-2.2
							C2225.1,149.4,2225.7,151,2225.8,152.9z"/>
						<path class="st6" d="M2224.8,147.8c-0.3,0.8-0.7,1.5-1,2.3"/>
					</g>
					<g>
						<path class="st5" d="M2251.5,151.5c0.3,3-1.2,3.4-2.4,3.3c-1.2-0.1-2-2.8-1.8-4.7c0.1-1.9,1.1-2.2,2.3-2.2
							C2250.8,148,2251.4,149.6,2251.5,151.5z"/>
						<path class="st6" d="M2250.5,146.4c-0.3,0.8-0.7,1.5-1,2.3"/>
					</g>
					<path class="st4" d="M2246.1,140.3c0.6-2.1,2.9-3.6,5-3.4"/>
					<path class="st2" d="M2194.5,152.6l0.3,7.8c0,0-5.1-8.6-10.8-6.1c0,0-7.4,2.1-3.8,11.2c1.1,2.9,3,5.5,5.4,7.6
						c3.5,3.2,9.1,7,11.9,1.6"/>
					<polygon class="st2" points="2192.1,171.2 2200.2,173.2 2195.9,183 2200.8,184.6 2196,212.7 2195.2,188.7 2190.2,185.5 					
						"/>
					<path class="st2" d="M2242,144.4l18.9,27.8c0,0-4.8,1.4-14.2-2.1"/>
				</g>
				<path class="st7" d="M2206.9,222.8l13.9,11.2l31.7,62.1l-16.7,19.7l4.1,56.5l-67.9,16.3c0,0-22.5-84.3-29.4-124.7l-2.2-22.2
					l10-5.8l16.4-14.4l10-2.5l-1.1,6.8l33,6.3L2206.9,222.8z"/>
				<polygon class="st2" points="2104.5,740.4 2086.7,765.6 2143.6,784.7 2042.8,784 2057.7,767.9 2074.8,739.9 				"/>
				<path class="st8" d="M2241.3,431.5c0.5,12.7-3.1,25.5-10.1,36.1c-1.2,1.8-2.6,3.7-3.1,5.8c-0.6,2.1-0.3,4.3-0.1,6.5
					c1.6,17-2.6,51.9-6,68.5"/>
				<path class="st7" d="M2218.5,100.3c4.7-1.5,10.2-1,14.2,2c4,3,6,8.6,4.2,13.2c-1.4,3.6-4.8,6.1-8.4,7.3
					c-3.6,1.3-7.5,1.5-11.3,1.7c0.7,0.2,1.3,0.4,2,0.6c2,4.5-0.3,10-4.1,13.1c-3.8,3.1-8.8,4.3-13.7,5c3.6,4.3,2.3,11.5-0.8,16.1
					s-9.5,6.7-14.8,4.9c6.6,3.8,10,12.4,7.9,19.8s-9.6,12.7-17.3,12.4c7.8-0.7,14.1,7.6,14.2,15.5s-4,15.1-8.1,21.8
					c5.2,5.7,6.4,14.7,1.8,20.9c-4.6,6.2-13.7,8.5-20.7,5.2c2.3,5.7,0.3,12.6-4.1,17s-10.5,6.5-16.7,7.1c-6.9,0.6-14.1-0.6-19.7-4.6
					c-5.6-4-9.2-11.1-8.1-17.8c-10.6-4.9-17.7-16.5-17.3-28.1c0.5-11.7,8.5-22.7,19.4-26.7c-8.3-6.6-12-18.4-9.2-28.6
					c2.9-10.2,12.3-18.2,22.8-19.5c-3.1-5.7-2.5-13.3,1.5-18.4c4-5.1,11.2-7.6,17.5-6c-0.5-7.8,4-15.6,11-19.1s15.9-2.5,21.9,2.5
					c0.4-4.8,4.1-9.2,8.7-10.6s10.1,0.4,13,4.3C2206.4,105.5,2213,102,2218.5,100.3z"/>
				<path class="st12" d="M2191,388.1l49.3-11.4l-0.1,31.1l-1.2,22.5c-0.4,14.5-5.7,30.2-12.5,42.7l-1-7.2
					c4.6,49.6-7,99.7-26.3,145.6c-19.3,45.9-66.1,106.5-102.9,142.5l-46.1,1.2c3.1-28.5,17.1-51,24.6-65.2
					c6.9-12.9,40.1-51.2,43-65.5c8.3-41.1-0.8-44.4,5.6-83.9c8.3-50.6,24.8-99.9,48.7-145.3l16.2-6L2191,388.1z"/>
				<polygon class="st2" points="2239.8,372.4 2171.9,388.7 2172.1,395.1 2240.3,376.7 				"/>
			</g>
		</g>
		<g>
			<polygon class="st2" points="2341.2,727.7 2358.3,758.3 2415.6,784 2319.7,780.5 2326.7,765.3 2316.2,743.1 			"/>
			<path class="st7" d="M2174,390c-8.5-10.3-13.9,26.9-19.6,39c-4.9,10.6-9.9,21.8-9.4,33.6c0.3,6.4,2.2,12.5,4.5,18.4
				c18.4,47.3,59.6,81,84,125.3c13.4,24.4,21.4,51.4,31.6,77.4c10.1,26,23,51.8,43.7,70l34.5-26c0,0,6.9-113.2-105.1-280.2
				C2238.2,447.6,2196.5,417.2,2174,390z"/>
		</g>
	</g>
	<g>
		<path class="st2" d="M2135.4,500.4c12.2-16.9,27-52.3,22.6-70.7c-17.4-72.1,6.9-86.8,30.9-139.2c3.1-6.8,6.3-13.7,7.2-21.3
			c1-7.6-1.9-15.3-6-22.3c-1.8-3.1-4.9-6.9-12.5-7.2c-33.2-1.2-58.7,53.9-71,89.6c-15.8,45.7-15.5,120.7,11.5,171.1L2135.4,500.4z"
			/>
		<path class="st2" d="M2118,500.3l16.8,0.3l-0.1,8.6c0,0,4.2,6.8,6.2,8.8c0,0,7,7.1,7.6,9.1c0,0,0.6,8.5,1.4,9.9
			c0,0,2.7,3.4,3.6,6.5c0.7,2.6-2.3,4.7-4.5,3c-1.4-1.1-3.1-2.9-5.3-6c0,0-0.7-7.6-2.3-10.8c0,0,3.5,9.7,0.5,18.1
			c0,0-5.4,16.5-11.5,15.5l3.8-23.7c0,0-3.2,19-4.6,24.5c-0.3,1.1-1,2-2,2.5c-1.2,0.6-2.9,0.8-4.4-1.2c-0.6-0.8-0.8-1.9-0.6-2.9
			l3.8-22.6l-4.1,20.2c-0.4,1.9-1.8,3.6-3.7,4.1c-1.5,0.4-3.1-0.1-3.9-2.9c-0.3-0.9-0.3-1.8-0.2-2.8l3-20.9l-3,14.9
			c-0.2,1.2-0.8,2.3-1.8,3c-0.7,0.6-1.7,1-2.9,0.6c-1.5-0.6-2.4-2.2-2.2-3.8l1.2-9.7c0,0,0.9-19.6,5.9-28.6L2118,500.3z"/>
	</g>
	<g>
		<g>
			<g>
				<g>
					<path class="st2" d="M3142.2,493.4c3.6,0.9,11.8,3.5,13.5,3.4c2.6-0.2,3.5-3.6,1.3-5.1c-2.6-1.7-11.1-7.7-11.1-7.7
						c-1.5-0.5-7.4-6.3-7.4-6.3c-1.8-1.1-11.3-1.8-11.3-1.8c-2.7-0.1-11.6,0.5-11.6,0.5l-5.4-6.3l-12.4,10.5l6.5,12
						c2.2,9.7,14,24.4,14,24.4l5.3,7.8c0.9,1.3,2.6,1.9,4,1.4c1.1-0.4,1.6-1.3,1.7-2.2c0.2-1.1-0.1-2.3-0.6-3.3l-7.3-12.7l11.2,17
						c0.5,0.7,1.1,1.4,1.9,1.9c2.4,1.5,3.9,0.8,4.7-0.4c1.1-1.6,1-3.6,0.1-5.3l-9.9-17.3l11.6,18.8c0.5,0.8,1.3,1.5,2.3,1.7
						c2.3,0.6,3.4-0.7,3.9-1.9c0.4-1,0.4-2.1-0.1-3c-2.5-4.9-12.3-20.6-12.3-20.6l12.4,19.5c10.7,4.5-1.5-18.6-1.5-18.6
						C3144.3,498.2,3143.3,495.1,3142.2,493.4z"/>
					<path class="st4" d="M3121.5,486.1c3.2,3.4,8.3,4.8,12.7,3.5"/>
				</g>
				<g>
					<path class="st2" d="M3109.3,471.3c-0.4-20.1-9.4-56-23.5-67.6c-55.1-45.5-44.8-70.9-56.7-125.2c-1.5-7-3.1-14.2-6.7-20.6
						s-10.3-10.7-17.5-13.8c-3.2-1.3-7.8-2.5-13.8,1.7c-26.3,18.3-14.1,75.5-3,110.2c14.2,44.4,57.8,102,107.8,125.3L3109.3,471.3z"
						/>
				</g>
				<path class="st3" d="M2964.4,145.3c6-0.9,11.6,4.9,11.9,10.9c0.3,6.1-3.8,11.7-8.9,14.9c7.2,0.9,13.7,6.1,16.2,12.8
					c2.6,6.8,1.1,14.9-3.7,20.3c8,2,14.6,8.7,16.5,16.6c1.9,8-0.9,16.9-7.1,22.3c4.7,14.3-5.4,31.7-20.2,34.6
					c4.8,7.9,4.2,18.6-1.4,25.9c-5.6,7.3-15.8,10.7-24.6,8.2c0.9,19.3-16.1,36.4-35.1,39.8c-11.4,2.1-24.1-0.3-32.2-8.6
					s-9.7-23-1.6-31.3c-15.1-12-16.1-37.8-1.9-50.9c-11.6-4.8-20.7-15.3-23.7-27.4c-3.1-12.2,0-25.7,8-35.4
					c-10-5-16.5-16.2-15.9-27.4c0.6-11.2,8.3-21.6,18.8-25.5c0-16.3,2.2-21.7,11.1-28.3s30.1-7.4,39.4-1.3
					c2.8-7.8,7.3-15.3,14.4-19.5c7.1-4.2,17.2-4,22.8,2c1-7.5,6.8-14.2,14.1-16.1c7.3-2,15.7,0.8,20.3,6.8c4.5-12.5,23-17,32.7-7.9
					c5.3-4.1,13.6-2.2,18.2,2.6c4.7,4.8,6.5,11.7,7.4,18.4c5.8,2.1,9.4,9,7.8,15c-1.6,6-8.1,10.2-14.2,9.2
					c-0.8-3.9-1.6-7.8-2.3-11.8c1.5,7.4-20.1,9.4-17.3-5.1c-4.4,9.1-16.3,3.8-22.8,10.7C2981.8,129.7,2978,139.8,2964.4,145.3z"/>
				<g>
					<path class="st2" d="M2985.5,109.4c0,0-30.6,5.2-29.9,40.1c0,0,1.2,26.8,17,37.8l-5.8,37.8l33,7.1l-6.8-28.9
						c0,0-11.8-6.9-14.8-17.1c0,0,8.1,20.9,32.8,22.7c0,0,27.4,3.1,33.4-30.7c0,0,2.9-14.8-4.2-23.4c0,0-3.4-4.5,0.6-13.6
						c0,0,3.7-9.6-1.4-19.2c-2.4-4.5-6.5-8-11.2-10C3021,108.8,3006.6,104.9,2985.5,109.4z"/>
					<path class="st4" d="M3018.3,180.4c5.1,4.1,12.2,5.6,18.5,3.9"/>
					<path class="st4" d="M3007.9,136.3c4.2-1,9,0.4,12,3.6"/>
					<g>
						<path class="st5" d="M3016.9,152.9c0.3,3-1.2,3.4-2.4,3.3c-1.2-0.1-2-2.8-1.8-4.7c0.1-1.9,1.1-2.2,2.3-2.2
							C3016.2,149.4,3016.7,151,3016.9,152.9z"/>
						<path class="st6" d="M3015.8,147.8c-0.3,0.8-0.7,1.5-1,2.3"/>
					</g>
					<g>
						<path class="st5" d="M3042.6,151.5c0.3,3-1.2,3.4-2.4,3.3c-1.2-0.1-2-2.8-1.8-4.7c0.1-1.9,1.1-2.2,2.3-2.2
							C3041.9,148,3042.4,149.6,3042.6,151.5z"/>
						<path class="st6" d="M3041.5,146.4c-0.3,0.8-0.7,1.5-1,2.3"/>
					</g>
					<path class="st4" d="M3037.2,140.3c0.6-2.1,2.9-3.6,5-3.4"/>
					<path class="st2" d="M2985.6,152.6l0.3,7.8c0,0-5.1-8.6-10.8-6.1c0,0-7.4,2.1-3.8,11.2c1.1,2.9,3,5.5,5.4,7.6
						c3.5,3.2,9.1,7,11.9,1.6"/>
					<polygon class="st2" points="2983.1,171.2 2991.3,173.2 2987,183 2991.8,184.6 2987,212.7 2986.3,188.7 2981.2,185.5 					"/>
					<path class="st2" d="M3033.1,144.4l18.9,27.8c0,0-4.8,1.4-14.2-2.1"/>
				</g>
				<path class="st7" d="M2997.9,222.8l13.9,11.2l31.7,62.1l-16.7,19.7l4.1,56.5l-67.9,16.3c0,0-22.5-84.3-29.4-124.7l-2.2-22.2
					l10-5.8l16.4-14.4l10-2.5l-1.1,6.8l33,6.3L2997.9,222.8z"/>
				<polygon class="st2" points="2895.5,740.4 2877.7,765.6 2934.7,784.7 2833.8,784 2848.8,767.9 2865.8,739.9 				"/>
				<path class="st8" d="M3032.3,431.5c0.5,12.7-3.1,25.5-10.1,36.1c-1.2,1.8-2.6,3.7-3.1,5.8c-0.6,2.1-0.3,4.3-0.1,6.5
					c1.6,17-2.6,51.9-6,68.5"/>
				<path class="st7" d="M3009.6,100.3c4.7-1.5,10.2-1,14.2,2s6,8.6,4.2,13.2c-1.4,3.6-4.8,6.1-8.4,7.3c-3.6,1.3-7.5,1.5-11.3,1.7
					c0.7,0.2,1.3,0.4,2,0.6c2,4.5-0.3,10-4.1,13.1c-3.8,3.1-8.8,4.3-13.7,5c3.6,4.3,2.3,11.5-0.8,16.1s-9.5,6.7-14.8,4.9
					c6.6,3.8,10,12.4,7.9,19.8c-2.1,7.3-9.6,12.7-17.3,12.4c7.8-0.7,14.1,7.6,14.2,15.5s-4,15.1-8.1,21.8c5.2,5.7,6.4,14.7,1.8,20.9
					c-4.6,6.2-13.7,8.5-20.7,5.2c2.3,5.7,0.3,12.6-4.1,17s-10.5,6.5-16.7,7.1c-6.9,0.6-14.1-0.6-19.7-4.6c-5.6-4-9.2-11.1-8.1-17.8
					c-10.6-4.9-17.7-16.5-17.3-28.1c0.5-11.7,8.5-22.7,19.4-26.7c-8.3-6.6-12-18.4-9.2-28.6c2.9-10.2,12.3-18.2,22.8-19.5
					c-3.1-5.7-2.5-13.3,1.5-18.4s11.2-7.6,17.5-6c-0.5-7.8,4-15.6,11-19.1s15.9-2.5,21.9,2.5c0.4-4.8,4.1-9.2,8.7-10.6
					s10.1,0.4,13,4.3C2997.5,105.5,3004.1,102,3009.6,100.3z"/>
				<path class="st12" d="M2982.1,388.1l49.3-11.4l-0.1,31.1l-1.2,22.5c-0.4,14.5-5.7,30.2-12.5,42.7l-1-7.2
					c4.6,49.6-7,99.7-26.3,145.6c-19.3,45.9-66.1,106.5-102.9,142.5l-46.1,1.2c3.1-28.5,17.1-51,24.6-65.2
					c6.9-12.9,40.1-51.2,43-65.5c8.3-41.1-0.8-44.4,5.6-83.9c8.3-50.6,24.8-99.9,48.7-145.3l16.2-6L2982.1,388.1z"/>
				<polygon class="st2" points="3030.9,372.4 2963,388.7 2963.2,395.1 3031.4,376.7 				"/>
			</g>
		</g>
		<g>
			<polygon class="st2" points="3132.2,727.7 3149.3,758.3 3206.6,784 3110.8,780.5 3117.8,765.3 3107.3,743.1 			"/>
			<path class="st7" d="M2965,390c-8.5-10.3-13.9,26.9-19.6,39c-4.9,10.6-9.9,21.8-9.4,33.6c0.3,6.4,2.2,12.5,4.5,18.4
				c18.4,47.3,59.6,81,84,125.3c13.4,24.4,21.4,51.4,31.6,77.4c10.1,26,23,51.8,43.7,70l34.5-26c0,0,6.9-113.2-105.1-280.2
				C3029.3,447.6,2987.6,417.2,2965,390z"/>
		</g>
	</g>
	<g>
		<path class="st2" d="M2926.5,500.4c12.2-16.9,27-52.3,22.6-70.7c-17.4-72.1,6.9-86.8,30.9-139.2c3.1-6.8,6.3-13.7,7.2-21.3
			c1-7.6-1.9-15.3-6-22.3c-1.8-3.1-4.9-6.9-12.5-7.2c-33.2-1.2-58.7,53.9-71,89.6c-15.8,45.7-15.5,120.7,11.5,171.1L2926.5,500.4z"
			/>
		<path class="st2" d="M2909.1,500.3l16.8,0.3l-0.1,8.6c0,0,4.2,6.8,6.2,8.8c0,0,7,7.1,7.6,9.1c0,0,0.6,8.5,1.4,9.9
			c0,0,2.7,3.4,3.6,6.5c0.7,2.6-2.3,4.7-4.5,3c-1.4-1.1-3.1-2.9-5.3-6c0,0-0.7-7.6-2.3-10.8c0,0,3.5,9.7,0.5,18.1
			c0,0-5.4,16.5-11.5,15.5l3.8-23.7c0,0-3.2,19-4.6,24.5c-0.3,1.1-1,2-2,2.5c-1.2,0.6-2.9,0.8-4.4-1.2c-0.6-0.8-0.8-1.9-0.6-2.9
			l3.8-22.6l-4.1,20.2c-0.4,1.9-1.8,3.6-3.7,4.1c-1.5,0.4-3.1-0.1-3.9-2.9c-0.3-0.9-0.3-1.8-0.2-2.8l3-20.9l-3,14.9
			c-0.2,1.2-0.8,2.3-1.8,3c-0.7,0.6-1.7,1-2.9,0.6c-1.5-0.6-2.4-2.2-2.2-3.8l1.2-9.7c0,0,0.9-19.6,5.9-28.6L2909.1,500.3z"/>
	</g>
</g>
</svg>
