<?xml version="1.0" encoding="utf-8"?>
<!-- Generator: Adobe Illustrator 22.0.1, SVG Export Plug-In . SVG Version: 6.00 Build 0)  -->
<svg version="1.1" id="圖層_1" xmlns="http://www.w3.org/2000/svg" xmlns:xlink="http://www.w3.org/1999/xlink" x="0px" y="0px"
	 viewBox="0 0 217.7 87.7" style="enable-background:new 0 0 217.7 87.7;" xml:space="preserve">
<g id="face">
	<path d="M217.7,30c-20.6-7.9-41.2-15.7-61.8-23.6c-5.2-2-10.7-4-16.2-3.2c-9.9,1.4-17.5,11.4-27.5,10.9c-6.5-0.3-12.6-3.8-18.1-7.4
		C86.7,2,80.8,2.9,71.7,5.6C49.7,12.2,22,22.3,0,28.9c13,9.2,19,19.5,30.3,30.3C55.1,82.9,93.4,86.8,128,84
		c21.3-1.7,43.8-6.2,59.1-20.8C198.6,52,206.1,42.8,217.7,30"/>
</g>
<g id="圖層_2_1_">
</g>
<g id="圖層_3">
</g>
</svg>
