<?xml version="1.0" encoding="utf-8"?>
<!-- Generator: Adobe Illustrator 22.0.1, SVG Export Plug-In . SVG Version: 6.00 Build 0)  -->
<svg version="1.1" id="圖層_1" xmlns="http://www.w3.org/2000/svg" xmlns:xlink="http://www.w3.org/1999/xlink" x="0px" y="0px"
	 viewBox="0 0 1844.9 1176.9" style="enable-background:new 0 0 1844.9 1176.9;" xml:space="preserve">
<style type="text/css">
	.st0{fill:#FFFFFF;}
	.st1{fill:#EFEFEF;}
	.st2{fill:none;stroke:#14120F;stroke-width:9;stroke-linecap:round;stroke-linejoin:round;stroke-miterlimit:10;}
	.st3{fill:#FFFFFF;stroke:#14120F;stroke-width:6;stroke-linecap:round;stroke-linejoin:round;stroke-miterlimit:10;}
	.st4{fill:none;stroke:#14120F;stroke-width:6;stroke-linecap:round;stroke-linejoin:round;stroke-miterlimit:10;}
	.st5{fill:#14120F;stroke:#14120F;stroke-width:3;stroke-linecap:round;stroke-linejoin:round;stroke-miterlimit:10;}
	.st6{display:none;}
	.st7{display:inline;fill:none;stroke:#FFFFFF;stroke-width:3;stroke-linecap:round;stroke-linejoin:round;stroke-miterlimit:10;}
	.st8{display:inline;fill:#FFFFFF;}
	.st9{display:inline;}
	.st10{fill:none;stroke:#FFFFFF;stroke-width:3;stroke-linecap:round;stroke-linejoin:round;stroke-miterlimit:10;}
</style>
<g id="face">
	<g>
		<path class="st0" d="M1552.7,1172.4c-24.3-18-55.9-22.8-86.1-27.4c-68.4-10.4-136.6-22.5-204.3-36.2
			c-58.7-11.9-120.8-27.1-161.5-69.9c-49.2-51.7-57-124.4-53.8-194.8c-18.7,18.9-41.4,35.9-60.1,54.8c-17.8,18-36,32.8-58.8,46.6
			c-36.6,22.2-79.6,10.8-120-6c-39.7-16.5-73.7-41.3-105.5-69.6c27.7,31,55.5,63.2,70.2,101.6c14.7,38.5,13.9,85-12.4,117.1
			c-8.1,9.9-18.3,18-28.6,25.7c-26.4,19.6-138.2,41.3-166.3,58.5L1552.7,1172.4z"/>
		<path class="st1" d="M885.8,955.6c27.2,7.9,57.4,18.4,69.3,44.1c10.9,23.5,2.5,52.6,13.4,76.2c8.6,18.6,27.3,29.8,43,42.9
			c15.7,13.1,30.1,30.9,24.9,50.7c23.7,0,488.1,2.2,508.7,2.2c8.1-13.5-249-59-278-61c-31.5-2.2-147.5-46.3-166.3-71.7
			c-20.7-28-34.6-51-44.7-84.3c-10-33-10.6-75.8-9.1-110.6c-16.6,8.7-49,32.4-62.9,44.9c-6.3,5.7-13.5,10.3-20.6,14.9
			C937.9,920.5,911.4,939,885.8,955.6z"/>
		<path class="st2" d="M1552.7,1172.4c-24.3-18-55.9-22.8-86.1-27.4c-68.4-10.4-136.6-22.5-204.3-36.2
			c-58.7-11.9-120.8-27.1-161.5-69.9c-49.2-51.7-57-124.4-53.8-194.8c-18.7,18.9-41.4,35.9-60.1,54.8c-17.8,18-36,32.8-58.8,46.6
			c-36.6,22.2-79.6,10.8-120-6c-39.7-16.5-68.1-35.2-100-63.5c27.7,31,50,57.1,64.7,95.5c14.7,38.5,13.9,85-12.4,117.1
			c-8.1,9.9-18.3,18-28.6,25.7c-26.4,19.6-138.2,41.3-166.3,58.5L1552.7,1172.4z"/>
		<path class="st0" d="M567.5,572.6c-12-12.4-29.4-25.6-44.8-33.6s-34.5-10.7-49.8-2.7c-14.5,7.6-23,23.3-28.5,38.7
			c-9.1,25.7-12,55.1-0.3,79.8c10.5,22,31,37.3,47.9,54.9c16.5,17.2,30.4,37.6,50.7,50.1s50.5,13.9,65.1-5
			C585.5,695.9,578.1,634.8,567.5,572.6z"/>
		<path class="st1" d="M544.2,730.4c-7.2,9.3-2,24,7.8,30.4c9.8,6.5,22.4,6.8,34.1,5.7c5.9-0.5,15.4-10,20.7-7.2
			c3.5,1.9,6.8,11.6,9.3,14.7c20.5,25.3,40.1,50.5,65.8,70.5c-17.9-11.9-28.4-31.8-38.2-50.8c-22-42.6-44.4-86.8-48.1-134.6
			c-3.2-42.8-30.1-8.7-28.7,17c0.7,12.9,9.9,24.3,4.9,37.4C566.1,728.5,549.7,723.2,544.2,730.4z"/>
		<path class="st2" d="M567.5,572.6c-12-12.4-29.4-25.6-44.8-33.6s-34.5-10.7-49.8-2.7c-14.5,7.6-23,23.3-28.5,38.7
			c-9.1,25.7-12,55.1-0.3,79.8c10.5,22,31,37.3,47.9,54.9c16.5,17.2,30.4,37.6,50.7,50.1s50.5,13.9,65.1-5
			C585.5,695.9,578.1,634.8,567.5,572.6z"/>
		<path class="st0" d="M1154.8,572.6c12-12.4,19.8-25.6,35.2-33.6s34.5-10.7,49.8-2.7c14.5,7.6,23,23.3,28.5,38.7
			c9.1,25.7,12,55.1,0.3,79.8c-10.5,22-31,37.3-47.9,54.9c-16.5,17.2-30.4,37.6-50.7,50.1s-46.3,14.6-60.8-4.3
			C1131.4,696.6,1135.8,633.6,1154.8,572.6z"/>
		<path class="st1" d="M1117.9,736.6c-1.4,4.2-3,8.6-2.4,13c0.6,4.3,3.2,8.1,6.6,10.7c7.9,6.1,19.2,5.9,28.4,2.1
			c9.2-3.8,16.7-10.7,24-17.4c16.7-15.4,33.5-30.8,50.2-46.2c8.2-7.5,16.4-15.1,22.6-24.3c11-16.5,14.6-37.1,13.1-56.9
			c-0.3-4.3-0.9-8.8-2.7-12.7c-5.3-11.6-19.1-16.3-31.7-18.3c-23.5-3.7-50.7-0.6-65.7,17.8C1130,641.2,1132.5,693.9,1117.9,736.6z"
			/>
		<path class="st2" d="M1154.8,572.6c12-12.4,19.8-25.6,35.2-33.6s34.5-10.7,49.8-2.7c14.5,7.6,23,23.3,28.5,38.7
			c9.1,25.7,12,55.1,0.3,79.8c-10.5,22-31,37.3-47.9,54.9c-16.5,17.2-30.4,37.6-50.7,50.1s-46.3,14.6-60.8-4.3
			C1131.4,696.6,1135.8,633.6,1154.8,572.6z"/>
		<path class="st3" d="M892.3,960c-71.2,4.2-133.7-43.6-188.9-88.7c-23.2-19-46.6-38.2-65-61.8c-41.6-53.4-53.6-123.3-64.3-190.1
			c-16.1-100.5-24.3-210.1,12.4-305c14.9-38.6,39.3-73.1,68.4-102.6c27.4-27.7,59.6-51.5,96.5-64.2c44.6-15.3,94.2-15.1,141.3-13
			c47.1,2.2,95,14.6,132.3,43.4c42.3,32.6,67.1,82.5,88,131.5c13.4,31.4,25.9,63.3,34.1,96.4c16.8,68.3,14.9,141.1-5.7,208.4
			c-13.7,44.8-15.6,100.8-34.9,143.4C1080,816.4,1031,861.4,982.8,904C956.1,927.7,927.9,957.9,892.3,960z"/>
		<path class="st1" d="M1015.2,349.8c3.9,25.8,0.1,52.7,8.1,77.5c7.3,22.5,23.6,40.7,35.7,61c17.6,29.6,26.2,64.5,24.5,98.9
			c-1.1,23-7.6,47-24.5,62.6c-4.9,4.5-10.5,8.1-14.6,13.3s-6.4,12.6-3.3,18.4c2.2,4.2,6.6,6.7,9.3,10.6c5.2,7.5,2.8,17.6-0.2,26.3
			c-12.1,35.7-29.1,69.7-50.4,100.7c-9.1,13.2-21.5,23.5-36.4,29.4c-14.9,6-30.8,8.9-45.7,14.9s-40.6,15.3-35.5,30.5
			c12.9,38.4-17.4,57.7-2.6,63.9c16.2,6.7,57.6-19.6,71.2-30.7c17.8-14.4,43.5-40,61.4-54.4c30.2-24.5,45.1-46.5,68.6-77.5
			c28.3-37.4,47.1-91.3,51.3-137.9c1.7-18.8,19.8-79.4,21.7-98.2c7.7-76.6,2.6-110.8-19.3-189.1c-9.9-35.3-29.8-91.2-52.5-120
			s-39-60-69-78c-10.9-6.6-78.2,33.8-88.1,41.9c-33.8,27.3,24.1,39.3,39.9,51.6C991.2,286,1010.2,316.5,1015.2,349.8z"/>
		<path class="st1" d="M754.1,407c13.8,5.5,33.1,7,42.8-2.6c0.3-0.3,0.5-0.5,0.7-0.8c7.6-8.5,3.2-22.1-7.9-25.1
			c-23.9-6.4-65.2-16.1-77.6-7.5C694,383.6,741.9,402.2,754.1,407z"/>
		<path d="M797.9,390c2-5.4-1-11.3-6.4-13.1c-29.1-9.8-58.2-19.6-87.3-29.4c-8.1-2.7-16.4-5.5-24.9-6.3c-18.3-1.6-36.1,0.6-52.1,9.4
			c-16.1,8.8-29.7,21.4-43.2,33.8c25.1-11.1,53.7-14.2,80.6-8.8c7.3,1.5,14.5,3.5,21.7,5.6c27.1,7.9,54.2,16.2,81.1,24.9
			c7.5,2.4,16.7-0.7,23-5.4C793.9,398.2,796.3,394.3,797.9,390z"/>
		<path d="M927.4,390c-2-5.4,1-11.3,6.4-13.1c29.1-9.8,58.2-19.6,87.3-29.4c8.1-2.7,16.4-5.5,24.9-6.3c18.3-1.6,36.1,0.6,52.1,9.4
			c16.1,8.8,29.7,21.4,43.2,33.8c-25.1-11.1-53.7-14.2-80.6-8.8c-7.3,1.5-14.5,3.5-21.7,5.6c-27.1,7.9-54.2,16.2-81.1,24.9
			c-7.5,2.4-16.7-0.7-23-5.4C931.4,398.2,929,394.3,927.4,390z"/>
		<path d="M970.9,773.2c-14.5,7.1-21.2,23.5-32.8,34.6c-15.3,14.6-37.8,19.1-59.1,20.8c-34.6,2.8-72.9-1-97.7-24.8
			c-11.2-10.7-19.6-25.4-34.1-31.1c14.5,2.9,14.5,2.9,22.1,5.4c7.4,2.5,15.3,3.6,23.1,4.4c47.4,5.3,95.4,5.4,142.8,0.4
			C947.6,781.7,957.5,780,970.9,773.2z"/>
		<path d="M968.8,774.8c-20.6-7.9-41.2-15.7-61.8-23.6c-5.2-2-10.7-4-16.2-3.2c-9.9,1.4-17.5,11.4-27.5,10.9
			c-6.5-0.3-11.9-5.2-18.1-7.4c-9-3.1-15.8-3.1-25-0.4c-22,6.6-47.1,15.9-69.1,22.5c36.4,9.6,71.2,14.1,108.9,14.1
			C904.4,787.8,932.6,786.7,968.8,774.8z"/>
		<path class="st1" d="M861.6,744.6c2.4,0.9,5,0.1,7.4-0.6c18.2-5.5,38.6-3.4,55.4,5.6c7.3,3.9,15.1,9.3,23.2,7.1
			c-9.1-14.5-24.5-24.9-41.4-27.9c-10.9-2-22.6-1.1-32.5-6.1c-5.8-2.9-9.9-5.6-15.9-4.2C857.7,724.1,854.9,741.9,861.6,744.6z"/>
		<path class="st1" d="M795.2,213.5c47.4-0.2,93.1,15.9,137.8,31.8c9.1-6.8,87-64.3,80.1-73.3s-49.3-23.1-60-27
			c-41.7-15.3-117.7-9.3-162-6S682.4,176.8,655,211.8c-11.3,14.4-40.3,41.2-43.8,59.2c11,1.9,41.8,0.2,49.4-6.4
			c12.5-10.8,26.3-20.1,40.9-27.7C730.3,222,762.6,213.6,795.2,213.5z"/>
		<path class="st4" d="M892.3,960c-71.2,4.2-133.7-43.6-188.9-88.7c-23.2-19-46.6-38.2-65-61.8c-41.6-53.4-53.6-123.3-64.3-190.1
			c-16.1-100.5-24.3-210.1,12.4-305c14.9-38.6,39.3-73.1,68.4-102.6c27.4-27.7,59.6-51.5,96.5-64.2c44.6-15.3,94.2-15.1,141.3-13
			c47.1,2.2,95,14.6,132.3,43.4c42.3,32.6,67.1,82.5,88,131.5c13.4,31.4,25.9,63.3,34.1,96.4c16.8,68.3,14.9,141.1-5.7,208.4
			c-13.7,44.8-15.6,100.8-34.9,143.4C1080,816.4,1031,861.4,982.8,904C956.1,927.7,927.9,957.9,892.3,960z"/>
	</g>
</g>
<g id="圖層_2_1_">
	<path class="st5" d="M1720.7,1028.2c-48.9-31.8-145.4-50.7-195.3-80.9s-97.8-69.9-117.9-124.7c-36-97.9,25.3-217.7-27.8-307.5
		c-15.3-25.9-38.7-46-55.5-70.8c-47.7-70.3-37.1-166.5-77.7-241.2c-7.7-14.2-17.3-27.4-28.4-39.2c-0.6-2.6-5-6.3-10.3-10.2
		c-7-6.5-14.5-12.4-22.4-17.8c-52.8-74-133.9-108.8-224.7-118.1c-23.5-2.4-60.3,7.5-84,7.5c-25.6,0-37-24.7-96.6-14.4
		c-94.5,16.3-188.9,56.6-250.1,144c-65.1,66.6-106,156.6-113.3,249.7c-5.5,69.7,7.2,139.5,9.3,209.4
		c3.1,105.1-18.1,210.8-61.6,306.5c-14.4,31.6-27.4,71.4-51.5,96.5c-29.8,30.9-60.4,52.8-108.4,66c-41.4,11.3-184.3,53.4-198.4,94
		h560.6c40.8,0,88.2-20.2,125.6-36.5c37.4-16.3,71-34.2,88.3-83.9c19.1-54.9-24.4-137.8-67.9-175.3c-44-38-85-68.9-107.5-122.5
		c-12.1,6.1-20,15.8-40.5,7.7c-9.7-3.8-18.4-9.7-26-16.8c-12.5-11.7-25.1-23.4-37.6-35.2c-20.1-18.8-40.6-38.1-52.5-62.8
		c-16.5-34.2-16.9-66.1,4.9-97.1c9.2-13.1,23.3-29.6,54.8-19.9c13.7,4.3,26.2,13.5,35.5,21.2c6.7,5.5,18.5,11.9,20.8,21.3
		c5.2,21.9,9.4,57.9,16.5,76.4C571,456.4,589.8,336,664.8,248.9c54-62.8,116.5-71.6,189.6-50.8c48.7,31.2,119.6,23.2,160.2,64.9
		c36.4,37.3,32,96.6,41.9,147.8c12.5,64.5,38.7,128,94.1,163.3c16.9-11.8,55.6-20.3,74.8-13.1c19.3,7.2,34.6,24.2,39.6,44.2
		c2.3,8.9,2.6,18.3,1.6,27.4c-1.7,15.5-7.3,30.6-16,43.6c-7.7,11.4-17.7,21-27.6,30.4c-14.3,13.7-26.1,30.9-40.4,44.5
		c-10.4,10-22.6,18.6-37,19c-15,0.3-31.7-1.9-39.1-14.3c-6.9,19.9-24.5,44-36.7,61.1c-17.4,24.4-32,44.1-56.4,61.6
		c-7.1,33.7-14.3,68.3-13.7,102.8s9.5,69.9,31.5,96.5c12.8,15.5,29.5,27.6,40.9,44.2c12.6,18.4,22.9,29.7,19,51.8l617.8-0.4h115.4
		C1828.2,1114.9,1777.6,1065.1,1720.7,1028.2z"/>
</g>
<g id="圖層_3" class="st6">
	<polyline class="st7" points="1142.7,737 1142.7,984 1142.7,1013 	"/>
	<polygon class="st8" points="1143,994.9 1154.4,1075.8 1131,1105.8 	"/>
	<g class="st9">
		<polyline class="st10" points="573.2,737 573.2,984 573.2,1013 		"/>
		<polygon class="st0" points="573.2,996.7 561.8,1077.6 585.3,1107.6 		"/>
	</g>
</g>
<g>
	<polyline class="st10" points="575,737.7 575,984.6 575,1013.7 	"/>
	<polyline class="st10" points="1144.5,737.7 1144.5,984.6 1144.5,1013.7 	"/>
	<polygon class="st0" points="575,997.3 563.6,1078.2 587.1,1108.2 	"/>
	<polygon class="st0" points="1144.9,995.5 1156.3,1076.4 1132.8,1106.4 	"/>
</g>
</svg>
