<?xml version="1.0" encoding="utf-8"?>
<!-- Generator: Adobe Illustrator 22.0.1, SVG Export Plug-In . SVG Version: 6.00 Build 0)  -->
<svg version="1.1" id="圖層_1" xmlns="http://www.w3.org/2000/svg" xmlns:xlink="http://www.w3.org/1999/xlink" x="0px" y="0px"
	 viewBox="0 0 1086.4 160.9" style="enable-background:new 0 0 1086.4 160.9;" xml:space="preserve">
<g>
	<path d="M27.2,70.4c0-16.5,0-27.4-0.5-32.2c-0.3-4.2-1.7-6.9-5.2-7.6c-2-0.5-3.9-0.5-5.7-0.6c-2,0-2.7-0.6-2.7-1.5
		c0-0.9,0.5-1.5,3.3-1.5c6.4,0,21.7,0.5,24.3,0.5c7.2,0,15.6-0.5,22.5-0.5c20.4,0,30.3,4.8,36.3,10.3c3.3,3.1,8.1,9.7,8.1,19.9
		c0,23.1-21.1,35.5-41.8,35.5c-1,0-3.6-0.2-4.6-0.5c-0.9-0.3-1.7-0.6-1.7-1.5c0-0.9,0.6-1.5,3.3-1.5c12.5,0,18.4-9.8,18.4-23.2
		c0-10.3-1.9-18.6-7.3-24.4c-3.9-4.2-9-6.1-14.2-6.1c-2,0-3.2,0.1-4,0.3c-1.2,0.3-1.8,1.2-1.8,3.8v57.3c0,11.7,0,25.3,0.8,31.6
		c0.3,4.3,1.3,7.2,5.8,8.1c2.1,0.5,4.8,0.6,6.6,0.8c2.2,0,2.8,0.5,2.8,1.6c0,0.8-0.8,1.4-3,1.4c-10.3,0-26.2-0.5-27.6-0.5
		c-0.8,0-17.1,0.5-22.2,0.5c-2.1,0-3-0.5-3-1.5s1.2-1.5,2.9-1.5c1.5-0.2,3-0.3,4.5-0.6c3-0.6,4.4-2.7,5-8.4
		c0.6-6.3,0.9-16.9,0.9-31.5V70.4z"/>
	<path d="M126.1,84.1c0-30,20.1-59.2,64.2-59.2c38.1,0,61.9,25.5,61.9,55.9c0,34.9-23.7,61.6-63,61.6
		C145,142.4,126.1,110.6,126.1,84.1z M222.2,87.4c0-24.9-10.3-53.2-36.9-53.2c-13.8,0-29.2,7.7-29.2,43.2
		c0,28.3,11.8,55.5,37.6,55.5C203,132.8,222.2,128.8,222.2,87.4z"/>
	<path d="M280.5,70.4c0-23.2-0.3-26.2-0.5-31c-0.3-6.1-2.1-8.1-5.7-8.8c-2.2-0.5-4.6-0.5-6-0.6c-1.8-0.2-2.7-0.8-2.7-1.7
		c0-0.9,1-1.3,3.3-1.3c6.4,0,20.8,0.5,22.9,0.5c2.8,0,17.2-0.5,24.1-0.5c14.1,0,24,1.3,30.6,5.1c7.2,3.9,13.6,11.5,13.6,22.9
		c0,12.6-7.2,22.2-20.1,30.1c9.1,13.2,20.1,29.2,29.2,39.7c7.9,8.8,11.5,11.4,15.7,12c1.7,0.3,2.5,0.3,3.8,0.5
		c1.6,0,2.5,0.6,2.5,1.5c0,1.3-1.5,1.5-3,1.5H375c-15.4,0-22-1.5-27.3-5c-4.8-2.8-9.6-9.3-15.5-18.7c-6.9-11.4-10.3-17.5-13-21.6
		c-0.3-0.4-1-0.9-1.8-0.9h-9.9c-0.8,0-1.2,0.3-1.2,1.2v7.6c0,11.8,0,18.9,0.8,25.2c0.3,3.9,1.3,7.2,5.8,8.2c2.1,0.6,3.8,0.6,6.8,0.9
		c2.4,0.1,2.7,0.8,2.7,1.6c0,0.9-1,1.4-3.1,1.4c-10,0-26.4-0.5-27.4-0.5c-1.8,0-16.3,0.5-21.4,0.5c-2.2,0-3-0.5-3-1.5
		s1.1-1.5,2.7-1.5c1.5-0.2,3.5-0.3,5.1-0.6c3-0.8,4.2-3.5,4.7-8.5c0.6-6.3,0.8-16.8,0.8-31.3V70.4z M306.3,80.5
		c0,1.2,0.5,1.8,1.3,2.2c2.8,1.5,7.3,2,11.5,2c4,0,7-0.6,9.4-2.4c3.2-2.4,5.8-8.8,5.8-18.9c0-21.3-13.5-26.8-21.3-26.8
		c-2.4,0-5,0.2-6,0.6c-0.6,0.3-0.9,0.5-0.9,1.7V80.5z"/>
	<path d="M455.7,96.8c0,11.7,0,25.6,0.8,31.9c0.3,3.9,1.3,7,5.8,7.8c1.9,0.3,3.8,0.5,6.4,0.8c2.4,0.1,3,0.6,3,1.6
		c0,0.9-0.8,1.4-3.5,1.4c-10.2,0-24.7-0.5-27.1-0.5c-2.5,0-17.1,0.5-22,0.5c-2.4,0-3.5-0.3-3.5-1.5c0-1,1.2-1.5,3-1.5
		c1.5-0.2,3.1-0.3,4.8-0.6c3.3-0.6,4.3-3.9,4.8-8.2c0.6-6.3,0.9-17.1,0.9-31.6V38c-5.8,0-15.1-0.2-22.6,0.3
		c-8.4,0.5-11.7,2.4-13.6,7.6c-0.8,1.7-1,2.5-1.4,3.5c-0.3,1.2-0.8,2.4-1.8,2.4c-1.3,0-1.3-1.2-1.2-3c0.6-6.2,2.2-14.2,3.3-19.9
		c0.3-2.2,0.8-3.8,1.6-3.8c1,0,1.7,0.5,5.1,1.2c2.7,0.6,11,1,16.6,1h65.2c4.7,0,7.4-0.3,9.5-0.6c2.4-0.4,3.6-0.9,4.6-0.9
		c1.4,0,1.5,0.9,1.5,4.6c0,2.1-0.9,16-1,19.8c-0.1,2.1-0.6,3-1.5,3c-1.2,0-1.5-0.9-1.6-2.7c-0.2-1.7-0.2-2.2-0.3-3
		c-0.6-4.7-2.8-8.2-11.7-8.8c-4.9-0.5-12.7-0.8-24.1-0.8V96.8z"/>
	<path d="M531.8,70.4c0-24.4-0.2-26.2-0.5-31c-0.3-5.4-1.5-7.9-5.7-8.8c-1.5-0.3-3.4-0.5-5.1-0.6c-1.6,0-3-0.3-3-1.5s1-1.5,3.5-1.5
		c8.7,0,16.3,0.5,22.9,0.5c3.3,0,41.5-0.2,44.1-0.2c3,0,5.7-0.3,7.7-0.8c1-0.3,2.1-0.5,2.8-0.5c0.6,0,1,0.6,0.9,1.4
		c-0.1,1-0.8,4-1,7.6c-0.3,3.5-0.8,8.4-1,14.4c-0.2,2-0.6,2.5-1.6,2.5c-1.1,0-1.4-0.9-1.5-2.4c-0.2-1.8-0.2-2.6-0.6-4.7
		c-0.9-3.3-3.1-5.7-9.9-6.1c-5.5-0.5-19.3-0.8-24.1-0.8c-0.9,0-1.2,0.5-1.2,1.6v34c0,1,0.1,1.8,1.2,1.8c4.4,0.2,14.8,0,20.7-0.1
		c8.2-0.3,10.2-0.5,12.1-3.5c0.9-1.3,1.4-2,2.1-2c0.9,0,1,1.1,1,2c0,1.5-0.9,6.9-1.2,12.1c-0.1,3.3-0.3,10.9-0.3,12.6s-0.2,3-1.3,3
		c-0.9,0-1.5-0.9-1.5-2.5c-0.2-1-0.3-2.1-0.5-3.3c-0.6-4-2.7-6.8-9.9-7.3c-4.3-0.3-17.2-0.5-21.6-0.5c-0.8,0-0.9,0.6-0.9,2v10.3
		c0,14.4,0,23.8,0.8,30.1c0.4,4.3,1.3,7.3,6.9,8.2c2.1,0.3,3.6,0.4,5.1,0.6c2.2,0,3.3,0.5,3.3,1.3c0,0.9-0.5,1.7-3.3,1.7
		c-8.4,0-9.6-0.5-25.3-0.5c-10.6,0-19.5,0.5-23.2,0.5c-2.2,0-3.2-0.6-3.2-1.5c0-0.8,0.5-1.4,2.7-1.5c1.5-0.2,2.2-0.3,3.9-0.6
		c4-0.6,4.8-4.5,5.2-10.7c0.6-8.1,0.6-14.8,0.6-29.2V70.4z"/>
	<path d="M621.8,84.1c0-30,20.1-59.2,64.2-59.2c38.1,0,61.9,25.5,61.9,55.9c0,34.9-23.7,61.6-63,61.6
		C640.7,142.4,621.8,110.6,621.8,84.1z M717.9,87.4c0-24.9-10.3-53.2-36.9-53.2c-13.8,0-29.2,7.7-29.2,43.2
		c0,28.3,11.8,55.5,37.6,55.5C698.7,132.8,717.9,128.8,717.9,87.4z"/>
	<path d="M809.7,97c0,15.1-0.5,25.9,2.1,29.1c2.1,2.9,5,3.6,17.4,3.6c8.2,0,13-0.2,17.2-2.4c3.6-1.6,6.2-5.5,7.8-12.6
		c0.5-1.6,0.8-2.8,2-2.8c1,0,1.2,0.8,1.2,2.8c0,3.5-1.7,17.7-3.2,22c-1.2,3.9-2.4,4-8.4,4c-20.7,0-34.6-0.9-50.5-0.9
		c-7,0-15.1,0.5-23.4,0.5c-2.1,0-3.3-0.3-3.3-1.7c0-0.9,0.9-1.3,3-1.3c1.8-0.2,3.5-0.3,5.1-0.6c5.4-0.9,5.5-3.6,6-15.6
		c0.3-6,0.5-15,0.5-24.3V70.4c0-24.4-0.2-27.1-0.5-31.9c-0.3-4.2-1.3-6.8-5.1-7.8c-1.4-0.5-3.6-0.6-5.8-0.8c-1.7,0-3.2-0.3-3.2-1.5
		s1.5-1.5,4.5-1.5c8.5,0,16.3,0.5,22.2,0.5c1.3,0,19.9-0.5,25.3-0.5c2.7,0,3.6,0.5,3.6,1.3c0,1.4-1.5,1.7-3.6,1.7
		c-1.5,0.1-3,0.1-5.1,0.6c-4,0.8-5.1,3.6-5.4,8.8c-0.3,4.8-0.5,7.8-0.5,32.5V97z"/>
	<path d="M888.8,70.4c0-23.2,0-27.6-0.5-32.4c-0.3-4.2-2-6.9-5.2-7.5c-1-0.3-2.5-0.5-4.5-0.6c-1.8,0-2.8-0.6-2.8-1.7
		c0-0.9,0.8-1.3,3.3-1.3c6,0,20.7,0.5,21.9,0.5c1.3,0,19-0.5,24.4-0.5c2.5,0,3.3,0.6,3.3,1.5c0,1.2-1.4,1.5-2.9,1.5
		c-1.5,0.1-2.4,0.1-4.3,0.5c-3.9,0.8-5.4,2.7-5.7,8.1c-0.5,4.8-0.5,8.7-0.5,31.9v26.4c0,11.8,0.1,25.8,0.8,32.1
		c0.3,3.9,1.2,6.6,5.7,7.6c2,0.5,4.7,0.6,6.6,0.8c2.5,0,3.2,0.6,3.2,1.5c0,0.8-0.8,1.5-3.2,1.5c-10.2,0-26.2-0.5-27.6-0.5
		c-0.8,0-16.5,0.5-21.6,0.5c-2.4,0-3.6-0.3-3.6-1.5c0-1,1.2-1.5,3-1.5c1.5-0.2,3-0.3,4.7-0.6c3.1-0.5,4.2-3.8,4.6-8.1
		c0.6-6.3,0.9-17.1,0.9-31.8V70.4z"/>
	<path d="M948.6,84.1c0-30,20.1-59.2,64.2-59.2c38.1,0,61.9,25.5,61.9,55.9c0,34.9-23.7,61.6-63,61.6
		C967.5,142.4,948.6,110.6,948.6,84.1z M1044.8,87.4c0-24.9-10.3-53.2-36.9-53.2c-13.8,0-29.2,7.7-29.2,43.2
		c0,28.3,11.8,55.5,37.6,55.5C1025.6,132.8,1044.8,128.8,1044.8,87.4z"/>
</g>
</svg>
