<?xml version="1.0" encoding="utf-8"?>
<!-- Generator: Adobe Illustrator 22.0.1, SVG Export Plug-In . SVG Version: 6.00 Build 0)  -->
<svg version="1.1" id="圖層_1" xmlns="http://www.w3.org/2000/svg" xmlns:xlink="http://www.w3.org/1999/xlink" x="0px" y="0px"
	 viewBox="0 0 1133.8 1055" style="enable-background:new 0 0 1133.8 1055;" xml:space="preserve">
<g>
	<path class="st0" d="M1126.7,1047.8c-24.3-18-55.9-22.8-86.1-27.4c-68.4-10.4-136.6-22.5-204.3-36.2
		c-58.7-11.9-120.8-27.1-161.5-69.9c-49.2-51.7-57-124.4-53.8-194.8c-18.7,18.9-41.4,35.9-60.1,54.8c-17.8,18-36,32.8-58.8,46.6
		c-36.6,22.2-79.6,10.8-120-6c-39.7-16.5-73.7-41.3-105.5-69.6c27.7,31,55.5,63.2,70.2,101.6c14.7,38.5,13.9,85-12.4,117.1
		c-8.1,9.9-18.3,18-28.6,25.7c-26.4,19.6-138.2,41.3-166.3,58.5L1126.7,1047.8z"/>
	<path class="st1" d="M459.8,831c27.2,7.9,57.4,18.4,69.3,44.1c10.9,23.5,2.5,52.6,13.4,76.2c8.6,18.6,27.3,29.8,43,42.9
		s30.1,30.9,24.9,50.7c23.7,0,488.1,2.2,508.7,2.2c8.1-13.5-249-59-278-61c-31.5-2.2-147.5-46.3-166.3-71.7
		c-20.7-28-34.6-51-44.7-84.3c-10-33-10.6-75.8-9.1-110.6c-16.6,8.7-49,32.4-62.9,44.9c-6.3,5.7-13.5,10.3-20.6,14.9
		C511.9,795.9,485.4,814.4,459.8,831z"/>
	<path class="st2" d="M1126.7,1047.8c-24.3-18-55.9-22.8-86.1-27.4c-68.4-10.4-136.6-22.5-204.3-36.2
		c-58.7-11.9-120.8-27.1-161.5-69.9c-49.2-51.7-57-124.4-53.8-194.8c-18.7,18.9-41.4,35.9-60.1,54.8c-17.8,18-36,32.8-58.8,46.6
		c-36.6,22.2-79.6,10.8-120-6c-39.7-16.5-68.1-35.2-100-63.5c27.7,31,50,57.1,64.7,95.5c14.7,38.5,13.9,85-12.4,117.1
		c-8.1,9.9-18.3,18-28.6,25.7c-26.4,19.6-138.2,41.3-166.3,58.5L1126.7,1047.8z"/>
	<path class="st0" d="M141.4,448c-12-12.4-29.4-25.6-44.8-33.6s-34.5-10.7-49.8-2.7c-14.5,7.6-23,23.3-28.5,38.7
		c-9.1,25.7-12,55.1-0.3,79.8c10.5,22,31,37.3,47.9,54.9c16.5,17.2,30.4,37.6,50.7,50.1s50.5,13.9,65.1-5
		C159.5,571.3,152,510.2,141.4,448z"/>
	<path class="st1" d="M118.2,605.8c-7.2,9.3-2,24,7.8,30.4c9.8,6.5,22.4,6.8,34.1,5.7c5.9-0.5,15.4-10,20.7-7.2
		c3.5,1.9,6.8,11.6,9.3,14.7c20.5,25.3,40.1,50.5,65.8,70.5c-17.9-11.9-28.4-31.8-38.2-50.8c-22-42.6-44.4-86.8-48.1-134.6
		c-3.2-42.8-30.1-8.7-28.7,17c0.7,12.9,9.9,24.3,4.9,37.4C140.1,603.9,123.7,598.6,118.2,605.8z"/>
	<path class="st2" d="M141.4,448c-12-12.4-29.4-25.6-44.8-33.6s-34.5-10.7-49.8-2.7c-14.5,7.6-23,23.3-28.5,38.7
		c-9.1,25.7-12,55.1-0.3,79.8c10.5,22,31,37.3,47.9,54.9c16.5,17.2,30.4,37.6,50.7,50.1s50.5,13.9,65.1-5
		C159.5,571.3,152,510.2,141.4,448z"/>
	<path class="st0" d="M728.7,448c12-12.4,19.8-25.6,35.2-33.6s34.5-10.7,49.8-2.7c14.5,7.6,23,23.3,28.5,38.7
		c9.1,25.7,12,55.1,0.3,79.8c-10.5,22-31,37.3-47.9,54.9c-16.5,17.2-30.4,37.6-50.7,50.1c-20.3,12.5-46.3,14.6-60.8-4.3
		C705.3,572.1,709.7,509,728.7,448z"/>
	<path class="st1" d="M691.8,612c-1.4,4.2-3,8.6-2.4,13c0.6,4.3,3.2,8.1,6.6,10.7c7.9,6.1,19.2,5.9,28.4,2.1
		c9.2-3.8,16.7-10.7,24-17.4c16.7-15.4,33.5-30.8,50.2-46.2c8.2-7.5,16.4-15.1,22.6-24.3c11-16.5,14.6-37.1,13.1-56.9
		c-0.3-4.3-0.9-8.8-2.7-12.7c-5.3-11.6-19.1-16.3-31.7-18.3c-23.5-3.7-50.7-0.6-65.7,17.8C704,516.7,706.5,569.4,691.8,612z"/>
	<path class="st2" d="M728.7,448c12-12.4,19.8-25.6,35.2-33.6s34.5-10.7,49.8-2.7c14.5,7.6,23,23.3,28.5,38.7
		c9.1,25.7,12,55.1,0.3,79.8c-10.5,22-31,37.3-47.9,54.9c-16.5,17.2-30.4,37.6-50.7,50.1c-20.3,12.5-46.3,14.6-60.8-4.3
		C705.3,572.1,709.7,509,728.7,448z"/>
	<path class="st3" d="M466.2,835.4c-71.2,4.2-133.7-43.6-188.9-88.7c-23.2-19-46.6-38.2-65-61.8c-41.6-53.4-53.6-123.3-64.3-190.1
		c-16.1-100.5-24.3-210.1,12.4-305c14.9-38.6,39.3-73.1,68.4-102.6c27.4-27.7,59.6-51.5,96.5-64.2c44.6-15.3,94.2-15.1,141.3-13
		s95,14.6,132.3,43.4C641.2,86,666,135.9,687,185c13.4,31.4,25.9,63.3,34.1,96.4c16.8,68.3,14.9,141.1-5.7,208.4
		c-13.7,44.8-15.6,100.8-34.9,143.4C654,691.9,605,736.9,556.7,779.5C530,803.2,501.8,833.3,466.2,835.4z"/>
	<path class="st1" d="M589.1,225.2c3.9,25.8,0.1,52.7,8.1,77.5c7.3,22.5,23.6,40.7,35.7,61c17.6,29.6,26.2,64.5,24.5,98.9
		c-1.1,23-7.6,47-24.5,62.6c-4.9,4.5-10.5,8.1-14.6,13.3c-4.1,5.2-6.4,12.6-3.3,18.4c2.2,4.2,6.6,6.7,9.3,10.6
		c5.2,7.5,2.8,17.6-0.2,26.3c-12.1,35.7-29.1,69.7-50.4,100.7c-9.1,13.2-21.5,23.5-36.4,29.4c-14.9,6-30.8,8.9-45.7,14.9
		c-14.9,6-40.6,15.3-35.5,30.5c12.9,38.4-17.4,57.7-2.6,63.9c16.2,6.7,57.6-19.6,71.2-30.7c17.8-14.4,43.5-40,61.4-54.4
		c30.2-24.5,45.1-46.5,68.6-77.5c28.3-37.4,47.1-91.3,51.3-137.9c1.7-18.8,19.8-79.4,21.7-98.2c7.7-76.6,2.6-110.8-19.3-189.1
		c-9.9-35.3-29.8-91.2-52.5-120s-39-60-69-78c-10.9-6.6-78.2,33.8-88.1,41.9c-33.8,27.3,24.1,39.3,39.9,51.6
		C565.2,161.5,584.1,192,589.1,225.2z"/>
	<path class="st1" d="M328,282.5c13.8,5.5,33.1,7,42.8-2.6c0.3-0.3,0.5-0.5,0.7-0.8c7.6-8.5,3.2-22.1-7.9-25.1
		c-23.9-6.4-65.2-16.1-77.6-7.5C267.9,259,315.8,277.6,328,282.5z"/>
	<path d="M371.8,265.5c2-5.4-1-11.3-6.4-13.1c-29.1-9.8-58.2-19.6-87.3-29.4c-8.1-2.7-16.4-5.5-24.9-6.3
		c-18.3-1.6-36.1,0.6-52.1,9.4c-16.1,8.8-29.7,21.4-43.2,33.8c25.1-11.1,53.7-14.2,80.6-8.8c7.3,1.5,14.5,3.5,21.7,5.6
		c27.1,7.9,54.2,16.2,81.1,24.9c7.5,2.4,16.7-0.7,23-5.4C367.9,273.6,370.3,269.7,371.8,265.5z"/>
	<path d="M501.4,265.5c-2-5.4,1-11.3,6.4-13.1c29.1-9.8,58.2-19.6,87.3-29.4c8.1-2.7,16.4-5.5,24.9-6.3c18.3-1.6,36.1,0.6,52.1,9.4
		c16.1,8.8,29.7,21.4,43.2,33.8c-25.1-11.1-53.7-14.2-80.6-8.8c-7.3,1.5-14.5,3.5-21.7,5.6c-27.1,7.9-54.2,16.2-81.1,24.9
		c-7.5,2.4-16.7-0.7-23-5.4C505.3,273.6,502.9,269.7,501.4,265.5z"/>
	<path d="M544.9,648.7c-14.5,7.1-21.2,23.5-32.8,34.6c-15.3,14.6-37.8,19.1-59.1,20.8c-34.6,2.8-72.9-1-97.7-24.8
		c-11.2-10.7-19.6-25.4-34.1-31.1c14.5,2.9,14.5,2.9,22.1,5.4c7.4,2.5,15.3,3.6,23.1,4.4c47.4,5.3,95.4,5.4,142.8,0.4
		C521.5,657.1,531.5,655.4,544.9,648.7z"/>
	<path d="M542.8,650.2c-20.6-7.9-41.2-15.7-61.8-23.6c-5.2-2-10.7-4-16.2-3.2c-9.9,1.4-17.5,11.4-27.5,10.9
		c-6.5-0.3-11.9-5.2-18.1-7.4c-9-3.1-15.8-3.1-25-0.4c-22,6.6-47.1,15.9-69.1,22.5c36.4,9.6,71.2,14.1,108.9,14.1
		C478.4,663.2,506.6,662.2,542.8,650.2z"/>
	<path class="st1" d="M435.5,620c2.4,0.9,5,0.1,7.4-0.6c18.2-5.5,38.6-3.4,55.4,5.6c7.3,3.9,15.1,9.3,23.2,7.1
		c-9.1-14.5-24.5-24.9-41.4-27.9c-10.9-2-22.6-1.1-32.5-6.1c-5.8-2.9-9.9-5.6-15.9-4.2C431.7,599.5,428.8,617.4,435.5,620z"/>
	<path class="st1" d="M369.1,88.9c47.4-0.2,93.1,15.9,137.8,31.8c9.1-6.8,87-64.3,80.1-73.3s-49.3-23.1-60-27
		c-41.7-15.3-117.7-9.3-162-6c-44.3,3.3-108.7,37.8-136.1,72.8c-11.3,14.4-40.3,41.2-43.8,59.2c11,1.9,41.8,0.2,49.4-6.4
		c12.5-10.8,26.3-20.1,40.9-27.7C304.2,97.4,336.6,89,369.1,88.9z"/>
	<path class="st4" d="M466.2,835.4c-71.2,4.2-133.7-43.6-188.9-88.7c-23.2-19-46.6-38.2-65-61.8c-41.6-53.4-53.6-123.3-64.3-190.1
		c-16.1-100.5-24.3-210.1,12.4-305c14.9-38.6,39.3-73.1,68.4-102.6c27.4-27.7,59.6-51.5,96.5-64.2c44.6-15.3,94.2-15.1,141.3-13
		s95,14.6,132.3,43.4C641.2,86,666,135.9,687,185c13.4,31.4,25.9,63.3,34.1,96.4c16.8,68.3,14.9,141.1-5.7,208.4
		c-13.7,44.8-15.6,100.8-34.9,143.4C654,691.9,605,736.9,556.7,779.5C530,803.2,501.8,833.3,466.2,835.4z"/>
</g>
</svg>
