<?xml version="1.0" encoding="utf-8"?>
<!-- Generator: Adobe Illustrator 22.0.1, SVG Export Plug-In . SVG Version: 6.00 Build 0)  -->
<svg version="1.1" xmlns="http://www.w3.org/2000/svg" xmlns:xlink="http://www.w3.org/1999/xlink" x="0px" y="0px"
	 viewBox="0 0 1934.4 588.7" style="enable-background:new 0 0 1934.4 588.7;" xml:space="preserve">
<style type="text/css">
	.st0{fill:#FFFFFF;}
	.st1{fill:#EFEFEF;}
	.st2{fill:none;stroke:#000000;stroke-miterlimit:10;}
	.st3{fill:#FEE9A9;}
	.st4{fill:#857C60;}
	.st5{fill:#5E7D78;}
	.st6{fill:#FFD554;}
	.st7{fill:#FAF6F3;}
	.st8{fill:#24211A;}
	.st9{fill:#374C52;}
	.st10{fill:#11A0C9;}
	.st11{fill:#266B7F;}
	.st12{fill:#D4CCC4;}
	.st13{fill:#191715;}
	.st14{fill:#45A698;}
	.st15{fill:#FEEBD4;}
	.st16{fill:#22D1B8;}
	.st17{fill:#FFD6A4;}
	.st18{fill:#151C1F;}
	.st19{fill:#DFEBE9;}
	.st20{display:none;}
	.st21{display:inline;fill:#454B98;}
	.st22{display:inline;fill:#456D98;}
	.st23{display:inline;fill:#FFBFA4;}
	.st24{display:inline;fill:#FFD6A4;}
	.st25{display:inline;fill:#45A698;}
	.st26{display:inline;fill:#24211A;}
	.st27{display:inline;fill:#5E7D78;}
	.st28{fill:none;stroke:#24211A;stroke-width:2;stroke-linecap:round;stroke-linejoin:round;stroke-miterlimit:10;}
	.st29{display:inline;}
	.st30{display:inline;fill:#EFEFEF;}
	.st31{display:inline;fill:#FFFFFF;stroke:#24211A;stroke-width:3;stroke-linecap:round;stroke-miterlimit:10;}
	.st32{display:inline;fill:#14120F;}
	.st33{display:inline;fill:none;stroke:#24211A;stroke-width:3;stroke-linecap:round;stroke-miterlimit:10;}
	.st34{fill:none;stroke:#24211A;stroke-width:3;stroke-linecap:round;stroke-miterlimit:10;}
	.st35{display:inline;fill:none;}
	.st36{fill:#DBDBDB;}
	.st37{display:inline;opacity:0.15;fill:#EFEFEF;}
	.st38{display:inline;opacity:0.15;fill:#FFFFFF;stroke:#24211A;stroke-width:3;stroke-linecap:round;stroke-miterlimit:10;}
	.st39{display:inline;opacity:0.15;fill:#14120F;}
	.st40{display:inline;opacity:0.15;fill:none;stroke:#24211A;stroke-width:3;stroke-linecap:round;stroke-miterlimit:10;}
	.st41{display:inline;opacity:0.15;}
	.st42{display:inline;opacity:0.15;fill:none;}
	.st43{fill:none;stroke:#24211A;stroke-width:3;stroke-linecap:round;stroke-linejoin:round;stroke-miterlimit:10;}
	.st44{fill:#14120F;}
	.st45{fill:none;stroke:#14120F;stroke-miterlimit:10;}
	.st46{fill:#FFFFFF;stroke:#14120F;stroke-width:2;stroke-miterlimit:10;}
	.st47{fill:none;stroke:#14120F;stroke-width:2;stroke-miterlimit:10;}
	.st48{fill:url(#);}
	.st49{fill:#FFFFFF;stroke:#14120F;stroke-miterlimit:10;}
	.st50{display:none;opacity:0.5;}
	.st51{display:inline;fill:none;stroke:#DCDDDD;stroke-miterlimit:10;}
	.st52{display:inline;fill:none;stroke:#000000;stroke-width:2;stroke-linecap:round;stroke-linejoin:round;stroke-miterlimit:10;}
	.st53{fill:none;stroke:#000000;stroke-width:2;stroke-linecap:round;stroke-linejoin:round;stroke-miterlimit:10;}
	.st54{display:inline;fill:none;stroke:#24211A;stroke-width:3;stroke-linecap:round;stroke-linejoin:round;stroke-miterlimit:10;}
	.st55{display:inline;opacity:0.31;}
	.st56{fill:#FFFFFF;stroke:#14120F;stroke-width:3;stroke-linecap:round;stroke-linejoin:round;stroke-miterlimit:10;}
	.st57{fill:none;stroke:#14120F;stroke-width:3;stroke-linecap:round;stroke-linejoin:round;stroke-miterlimit:10;}
	.st58{display:inline;opacity:0.24;}
	.st59{fill:#14120F;stroke:#14120F;stroke-width:3;stroke-linecap:round;stroke-linejoin:round;stroke-miterlimit:10;}
	.st60{fill:#FFFFFF;stroke:#14120F;stroke-width:2;stroke-linecap:round;stroke-linejoin:round;stroke-miterlimit:10;}
	.st61{fill:none;stroke:#14120F;stroke-width:2;stroke-linecap:round;stroke-linejoin:round;stroke-miterlimit:10;}
	.st62{fill:none;stroke:#FFFFFF;stroke-width:3;stroke-linecap:round;stroke-linejoin:round;stroke-miterlimit:10;}
	.st63{fill:#14120F;stroke:#14120F;stroke-miterlimit:10;}
	.st64{opacity:0.8;fill:#FFFFFF;}
	.st65{fill:#F7F8F8;}
	.st66{fill:#3E3A39;}
	.st67{fill:#B5B5B6;}
	.st68{fill:none;stroke:#B5B5B6;stroke-width:0.5;stroke-miterlimit:10;}
	.st69{fill:none;stroke:#B5B5B6;stroke-miterlimit:10;}
	.st70{fill:#383838;}
	.st71{clip-path:url(#SVGID_2_);fill:#14120F;}
	.st72{clip-path:url(#SVGID_2_);}
	.st73{clip-path:url(#SVGID_4_);fill:#14120F;}
	.st74{clip-path:url(#SVGID_4_);}
	.st75{fill:#2E8199;}
	.st76{opacity:0.5;fill:#D3EBE7;}
	.st77{fill:#FEF9E7;}
	.st78{fill:none;stroke:#000000;stroke-width:2;stroke-linejoin:round;stroke-miterlimit:10;}
	.st79{display:none;opacity:0.51;}
	.st80{fill:none;stroke:#453F2E;stroke-miterlimit:10;}
</style>
<g id="圖層_1">
</g>
<g id="圖層_2">
</g>
<g id="圖層_8" class="st20">
</g>
<g id="圖層_15" class="st20">
</g>
<g id="圖層_9">
</g>
<g id="圖層_12">
	<g id="圖層_14">
	</g>
</g>
<g id="圖層_16">
</g>
<g id="圖層_18" class="st20">
</g>
<g id="圖層_18_拷貝" class="st20">
</g>
<g id="person">
</g>
<g id="圖層_24">
</g>
<g id="portfolio">
</g>
<g id="abouts-an">
</g>
<g id="about-an" class="st20">
</g>
<g id="about-1" class="st50">
</g>
<g id="about-2" class="st50">
</g>
<g id="about-3" class="st20">
</g>
<g id="about-3_拷貝" class="st20">
</g>
<g id="圖層_29" class="st20">
</g>
<g id="圖層_32" class="st20">
</g>
<g id="圖層_35" class="st20">
</g>
<g id="圖層_33">
</g>
<g id="圖層_36" class="st20">
</g>
<g id="about-bg">
</g>
<g id="works-web">
</g>
<g id="俺環">
</g>
<g id="圖層_21">
</g>
<g id="圖層_20">
</g>
<g id="圖層_22">
	<g>
		<g>
			<g>
				<path class="st0" d="M364.6,93.6c3.2,0,3.2-5,0-5C361.4,88.6,361.4,93.6,364.6,93.6L364.6,93.6z"/>
			</g>
		</g>
		<g>
			<g>
				<path class="st0" d="M265.6,91.6c3.2,0,3.2-5,0-5C262.4,86.6,262.4,91.6,265.6,91.6L265.6,91.6z"/>
			</g>
		</g>
		<g>
			<g>
				<path class="st0" d="M397.9,154.2c3.2,0,3.2-5,0-5C394.7,149.2,394.7,154.2,397.9,154.2L397.9,154.2z"/>
			</g>
		</g>
		<g>
			<g>
				<path class="st0" d="M374.7,145.1c3.2,0,3.2-5,0-5C371.5,140.1,371.5,145.1,374.7,145.1L374.7,145.1z"/>
			</g>
		</g>
		<g>
			<g>
				<path class="st0" d="M378.7,41.1c3.2,0,3.2-5,0-5C375.5,36.1,375.5,41.1,378.7,41.1L378.7,41.1z"/>
			</g>
		</g>
		<g>
			<g>
				<path class="st0" d="M520.1,176.5c3.2,0,3.2-5,0-5C516.9,171.5,516.9,176.5,520.1,176.5L520.1,176.5z"/>
			</g>
		</g>
		<polygon class="st0" points="438.7,120.1 438,108.1 444.9,118 455.7,114.2 447,123.1 456.4,133.2 443.7,126.7 439.4,137.3 
			439.4,126.6 429.2,123.4 		"/>
		<polygon class="st0" points="465.3,87.6 467.3,83.9 467.5,88.1 471.3,89 467.1,90 468,94.7 465.5,90.4 462.3,92.7 464.3,89.6 
			461.8,86.8 		"/>
		<polygon class="st0" points="292,93.4 292.8,91.9 292.9,93.6 294.5,93.9 292.8,94.4 293.2,96.2 292.1,94.5 290.8,95.5 291.6,94.2 
			290.7,93.1 		"/>
		<polygon class="st0" points="272.4,64 271.9,61.3 273.7,63.4 276.1,62.3 274.3,64.5 276.7,66.6 273.7,65.4 272.9,67.9 272.7,65.5 
			270.3,65 		"/>
		<polygon class="st0" points="477.5,150 479.5,146.3 479.7,150.5 483.5,151.4 479.3,152.4 480.2,157.1 477.7,152.9 474.5,155.2 
			476.5,152 474,149.2 		"/>
		<ellipse class="st0" cx="396.1" cy="68.5" rx="0.4" ry="0.5"/>
		<ellipse class="st0" cx="422.4" cy="135" rx="0.4" ry="0.5"/>
		<ellipse class="st0" cx="399.3" cy="165.1" rx="0.4" ry="0.5"/>
		<ellipse class="st0" cx="393.4" cy="154.7" rx="0.4" ry="0.5"/>
	</g>
	<g>
		<g>
			<g>
				<path class="st0" d="M1616.7,234.8c3.2,0,3.2-5,0-5C1613.5,229.8,1613.5,234.8,1616.7,234.8L1616.7,234.8z"/>
			</g>
		</g>
		<g>
			<g>
				<path class="st0" d="M1487.4,202.5c3.2,0,3.2-5,0-5C1484.2,197.5,1484.2,202.5,1487.4,202.5L1487.4,202.5z"/>
			</g>
		</g>
		<g>
			<g>
				<path class="st0" d="M1650.1,295.5c3.2,0,3.2-5,0-5C1646.8,290.5,1646.8,295.5,1650.1,295.5L1650.1,295.5z"/>
			</g>
		</g>
		<g>
			<g>
				<path class="st0" d="M1626.8,286.4c3.2,0,3.2-5,0-5C1623.6,281.4,1623.6,286.4,1626.8,286.4L1626.8,286.4z"/>
			</g>
		</g>
		<g>
			<g>
				<path class="st0" d="M1630.9,182.3c3.2,0,3.2-5,0-5C1627.6,177.3,1627.6,182.3,1630.9,182.3L1630.9,182.3z"/>
			</g>
		</g>
		<g>
			<g>
				<path class="st0" d="M1772.3,317.7c3.2,0,3.2-5,0-5C1769.1,312.7,1769.1,317.7,1772.3,317.7L1772.3,317.7z"/>
			</g>
		</g>
		<polygon class="st0" points="1690.9,261.4 1690.1,249.3 1697.1,259.2 1707.8,255.4 1699.1,264.3 1708.5,274.4 1695.8,267.9 
			1691.5,278.5 1691.5,267.8 1681.3,264.7 		"/>
		<polygon class="st0" points="1717.4,228.8 1719.4,225.1 1719.6,229.3 1723.5,230.2 1719.3,231.2 1720.2,235.9 1717.6,231.6 
			1714.4,234 1716.4,230.8 1714,228 		"/>
		<polygon class="st0" points="1513.9,204.3 1514.7,202.8 1514.8,204.5 1516.3,204.9 1514.6,205.3 1515,207.2 1514,205.5 
			1512.7,206.4 1513.5,205.1 1512.5,204 		"/>
		<polygon class="st0" points="1494.2,174.9 1493.8,172.2 1495.6,174.3 1497.9,173.2 1496.2,175.4 1498.5,177.5 1495.5,176.3 
			1494.7,178.8 1494.5,176.4 1492.1,175.9 		"/>
		<polygon class="st0" points="1729.6,291.2 1731.6,287.6 1731.8,291.8 1735.7,292.6 1731.5,293.7 1732.4,298.4 1729.9,294.1 
			1726.6,296.4 1728.6,293.3 1726.2,290.5 		"/>
		<ellipse class="st0" cx="1648.2" cy="209.7" rx="0.4" ry="0.5"/>
		<ellipse class="st0" cx="1674.6" cy="276.3" rx="0.4" ry="0.5"/>
		<ellipse class="st0" cx="1651.5" cy="306.3" rx="0.4" ry="0.5"/>
		<ellipse class="st0" cx="1645.5" cy="296" rx="0.4" ry="0.5"/>
	</g>
	<g>
		<g>
			<g>
				<path class="st0" d="M1264.8,297.1c3.2,0,3.2-5,0-5C1261.6,292.1,1261.6,297.1,1264.8,297.1L1264.8,297.1z"/>
			</g>
		</g>
		<g>
			<g>
				<path class="st0" d="M1165.8,295c3.2,0,3.2-5,0-5C1162.6,290,1162.6,295,1165.8,295L1165.8,295z"/>
			</g>
		</g>
		<g>
			<g>
				<path class="st0" d="M1298.2,357.7c3.2,0,3.2-5,0-5C1295,352.7,1295,357.7,1298.2,357.7L1298.2,357.7z"/>
			</g>
		</g>
		<g>
			<g>
				<path class="st0" d="M1275,348.6c3.2,0,3.2-5,0-5C1271.7,343.6,1271.7,348.6,1275,348.6L1275,348.6z"/>
			</g>
		</g>
		<g>
			<g>
				<path class="st0" d="M1279,244.5c3.2,0,3.2-5,0-5C1275.8,239.5,1275.8,244.5,1279,244.5L1279,244.5z"/>
			</g>
		</g>
		<g>
			<g>
				<path class="st0" d="M1420.4,379.9c3.2,0,3.2-5,0-5C1417.2,374.9,1417.2,379.9,1420.4,379.9L1420.4,379.9z"/>
			</g>
		</g>
		<polygon class="st0" points="1339,323.6 1338.3,311.5 1345.2,321.4 1355.9,317.7 1347.3,326.6 1356.7,336.7 1344,330.1 
			1339.6,340.7 1339.6,330 1329.5,326.9 		"/>
		<polygon class="st0" points="1365.5,291 1367.5,287.3 1367.8,291.5 1371.6,292.4 1367.4,293.4 1368.3,298.1 1365.8,293.9 
			1362.5,296.2 1364.5,293 1362.1,290.2 		"/>
		<polygon class="st0" points="1192.3,296.8 1193.1,295.4 1193.2,297 1194.7,297.4 1193.1,297.8 1193.4,299.7 1192.4,298 
			1191.1,298.9 1191.9,297.6 1190.9,296.5 		"/>
		<polygon class="st0" points="1172.7,267.5 1172.2,264.8 1174,266.8 1176.4,265.7 1174.6,268 1177,270 1173.9,268.9 1173.2,271.4 
			1172.9,268.9 1170.6,268.4 		"/>
		<polygon class="st0" points="1377.7,353.5 1379.7,349.8 1380,354 1383.8,354.9 1379.6,355.9 1380.5,360.6 1378,356.3 
			1374.8,358.6 1376.7,355.5 1374.3,352.7 		"/>
		<ellipse class="st0" cx="1296.4" cy="272" rx="0.4" ry="0.5"/>
		<ellipse class="st0" cx="1322.7" cy="338.5" rx="0.4" ry="0.5"/>
		<ellipse class="st0" cx="1299.6" cy="368.5" rx="0.4" ry="0.5"/>
		<ellipse class="st0" cx="1293.6" cy="358.2" rx="0.4" ry="0.5"/>
	</g>
	<g>
		<g>
			<g>
				<path class="st0" d="M1711.2,90.7c3.2,0,3.2-5,0-5C1708,85.7,1708,90.7,1711.2,90.7L1711.2,90.7z"/>
			</g>
		</g>
		<g>
			<g>
				<path class="st0" d="M1612.2,88.7c3.2,0,3.2-5,0-5C1609,83.7,1609,88.7,1612.2,88.7L1612.2,88.7z"/>
			</g>
		</g>
		<g>
			<g>
				<path class="st0" d="M1744.6,151.3c3.2,0,3.2-5,0-5C1741.4,146.3,1741.3,151.3,1744.6,151.3L1744.6,151.3z"/>
			</g>
		</g>
		<g>
			<g>
				<path class="st0" d="M1721.3,142.2c3.2,0,3.2-5,0-5C1718.1,137.2,1718.1,142.2,1721.3,142.2L1721.3,142.2z"/>
			</g>
		</g>
		<g>
			<g>
				<path class="st0" d="M1725.4,38.2c3.2,0,3.2-5,0-5C1722.2,33.2,1722.2,38.2,1725.4,38.2L1725.4,38.2z"/>
			</g>
		</g>
		<g>
			<g>
				<path class="st0" d="M1866.8,173.5c3.2,0,3.2-5,0-5C1863.6,168.5,1863.6,173.5,1866.8,173.5L1866.8,173.5z"/>
			</g>
		</g>
		<polygon class="st0" points="1785.4,117.2 1784.6,105.1 1791.6,115 1802.3,111.3 1793.6,120.2 1803.1,130.3 1790.3,123.8 
			1786,134.4 1786,123.7 1775.8,120.5 		"/>
		<polygon class="st0" points="1811.9,84.6 1813.9,81 1814.1,85.1 1818,86 1813.8,87.1 1814.7,91.8 1812.2,87.5 1808.9,89.8 
			1810.9,86.7 1808.5,83.9 		"/>
		<polygon class="st0" points="1638.7,90.5 1639.5,89 1639.6,90.7 1641.1,91 1639.4,91.4 1639.8,93.3 1638.8,91.6 1637.5,92.5 
			1638.3,91.3 1637.3,90.1 		"/>
		<polygon class="st0" points="1619,61.1 1618.6,58.4 1620.4,60.5 1622.8,59.4 1621,61.6 1623.4,63.7 1620.3,62.5 1619.6,65 
			1619.3,62.6 1616.9,62.1 		"/>
		<polygon class="st0" points="1824.1,147.1 1826.1,143.4 1826.3,147.6 1830.2,148.5 1826,149.5 1826.9,154.2 1824.4,149.9 
			1821.1,152.3 1823.1,149.1 1820.7,146.3 		"/>
		<ellipse class="st0" cx="1742.8" cy="65.6" rx="0.4" ry="0.5"/>
		<ellipse class="st0" cx="1769.1" cy="132.1" rx="0.4" ry="0.5"/>
		<ellipse class="st0" cx="1746" cy="162.2" rx="0.4" ry="0.5"/>
		<ellipse class="st0" cx="1740" cy="151.8" rx="0.4" ry="0.5"/>
	</g>
	<g>
		<g>
			<g>
				<path class="st0" d="M99,66.3c3.2,0,3.2-5,0-5C95.8,61.3,95.8,66.3,99,66.3L99,66.3z"/>
			</g>
		</g>
		<g>
			<g>
				<path class="st0" d="M0,64.3c3.2,0,3.2-5,0-5C-3.2,59.3-3.2,64.3,0,64.3L0,64.3z"/>
			</g>
		</g>
		<g>
			<g>
				<path class="st0" d="M132.3,126.9c3.2,0,3.2-5,0-5C129.1,121.9,129.1,126.9,132.3,126.9L132.3,126.9z"/>
			</g>
		</g>
		<g>
			<g>
				<path class="st0" d="M109.1,117.8c3.2,0,3.2-5,0-5C105.9,112.8,105.9,117.8,109.1,117.8L109.1,117.8z"/>
			</g>
		</g>
		<g>
			<g>
				<path class="st0" d="M113.1,13.8c3.2,0,3.2-5,0-5C109.9,8.8,109.9,13.8,113.1,13.8L113.1,13.8z"/>
			</g>
		</g>
		<g>
			<g>
				<path class="st0" d="M254.6,149.1c3.2,0,3.2-5,0-5C251.4,144.1,251.3,149.1,254.6,149.1L254.6,149.1z"/>
			</g>
		</g>
		<polygon class="st0" points="173.1,92.8 172.4,80.7 179.3,90.6 190.1,86.9 181.4,95.8 190.8,105.9 178.1,99.4 173.8,110 
			173.8,99.3 163.6,96.1 		"/>
		<polygon class="st0" points="199.7,60.2 201.7,56.6 201.9,60.8 205.8,61.6 201.6,62.7 202.5,67.4 199.9,63.1 196.7,65.4 
			198.7,62.3 196.3,59.5 		"/>
		<polygon class="st0" points="26.5,66.1 27.3,64.6 27.3,66.3 28.9,66.6 27.2,67 27.6,68.9 26.6,67.2 25.3,68.1 26.1,66.9 
			25.1,65.7 		"/>
		<polygon class="st0" points="6.8,36.7 6.4,34 8.2,36.1 10.5,35 8.8,37.2 11.1,39.3 8.1,38.1 7.3,40.6 7.1,38.2 4.7,37.7 		"/>
		<polygon class="st0" points="211.9,122.7 213.9,119 214.1,123.2 218,124.1 213.8,125.1 214.7,129.8 212.1,125.5 208.9,127.9 
			210.9,124.7 208.5,121.9 		"/>
		<ellipse class="st0" cx="130.5" cy="41.2" rx="0.4" ry="0.5"/>
		<ellipse class="st0" cx="156.8" cy="107.7" rx="0.4" ry="0.5"/>
		<ellipse class="st0" cx="133.8" cy="137.8" rx="0.4" ry="0.5"/>
		<ellipse class="st0" cx="127.8" cy="127.4" rx="0.4" ry="0.5"/>
	</g>
	<g>
		<g>
			<g>
				<path class="st0" d="M687.2,52c3.2,0,3.2-5,0-5C684,47,684,52,687.2,52L687.2,52z"/>
			</g>
		</g>
		<g>
			<g>
				<path class="st0" d="M786.2,49.9c3.2,0,3.2-5,0-5C783,44.9,783,49.9,786.2,49.9L786.2,49.9z"/>
			</g>
		</g>
		<g>
			<g>
				<path class="st0" d="M849.8,106.8c3.2,0,3.2-5,0-5C846.6,101.8,846.6,106.8,849.8,106.8L849.8,106.8z"/>
			</g>
		</g>
		<g>
			<g>
				<path class="st0" d="M1160.5,70.4c3.2,0,3.2-5,0-5C1157.2,65.4,1157.2,70.4,1160.5,70.4L1160.5,70.4z"/>
			</g>
		</g>
		<g>
			<g>
				<path class="st0" d="M1386.2,235.5c3.2,0,3.2-5,0-5C1383,230.5,1383,235.5,1386.2,235.5L1386.2,235.5z"/>
			</g>
		</g>
		<g>
			<g>
				<path class="st0" d="M653.9,112.6c3.2,0,3.2-5,0-5C650.7,107.6,650.7,112.6,653.9,112.6L653.9,112.6z"/>
			</g>
		</g>
		<g>
			<g>
				<path class="st0" d="M677.1,103.5c3.2,0,3.2-5,0-5C673.9,98.5,673.9,103.5,677.1,103.5L677.1,103.5z"/>
			</g>
		</g>
		<g>
			<g>
				<path class="st0" d="M531.7,134.8c3.2,0,3.2-5,0-5C528.4,129.8,528.4,134.8,531.7,134.8L531.7,134.8z"/>
			</g>
		</g>
		<polygon class="st0" points="613.1,78.5 613.8,66.4 606.9,76.3 596.2,72.5 604.8,81.5 595.4,91.5 608.1,85 612.4,95.6 612.4,84.9 
			622.6,81.8 		"/>
		<polygon class="st0" points="911.1,55.4 911.8,43.3 904.9,53.2 894.2,49.5 902.8,58.4 893.4,68.5 906.1,61.9 910.5,72.5 
			910.4,61.8 920.6,58.7 		"/>
		<polygon class="st0" points="1437.7,46.7 1438.5,34.6 1431.5,44.5 1420.8,40.8 1429.5,49.7 1420.1,59.8 1432.8,53.2 1437.1,63.8 
			1437.1,53.1 1447.3,50 		"/>
		<polygon class="st0" points="586.5,45.9 584.5,42.2 584.3,46.4 580.5,47.3 584.7,48.3 583.8,53 586.3,48.7 589.5,51.1 587.6,47.9 
			590,45.1 		"/>
		<polygon class="st0" points="759.8,51.7 759,50.2 758.9,51.9 757.3,52.3 759,52.7 758.7,54.6 759.7,52.9 761,53.8 760.2,52.5 
			761.2,51.4 		"/>
		<polygon class="st0" points="1111.6,77.1 1110.8,75.7 1110.7,77.4 1109.1,77.7 1110.8,78.1 1110.5,80 1111.5,78.3 1112.8,79.2 
			1112,78 1113,76.8 		"/>
		<polygon class="st0" points="1019.1,43.8 1018.3,42.3 1018.3,44 1016.7,44.4 1018.4,44.8 1018,46.7 1019,45 1020.3,45.9 
			1019.6,44.6 1020.5,43.5 		"/>
		<polygon class="st0" points="779.4,22.4 779.9,19.6 778.1,21.7 775.7,20.6 777.5,22.8 775.1,24.9 778.2,23.7 778.9,26.2 
			779.1,23.8 781.5,23.3 		"/>
		<polygon class="st0" points="574.3,108.3 572.3,104.7 572.1,108.9 568.3,109.7 572.5,110.8 571.6,115.5 574.1,111.2 577.3,113.5 
			575.3,110.4 577.8,107.6 		"/>
		<ellipse class="st0" cx="655.7" cy="26.8" rx="0.4" ry="0.5"/>
		<ellipse class="st0" cx="629.4" cy="93.4" rx="0.4" ry="0.5"/>
		<ellipse class="st0" cx="652.5" cy="123.4" rx="0.4" ry="0.5"/>
		<ellipse class="st0" cx="658.4" cy="113.1" rx="0.4" ry="0.5"/>
	</g>
	<g>
		<g>
			<g>
				<path class="st0" d="M1034.6,158.4c3.2,0,3.2-5,0-5C1031.4,153.4,1031.4,158.4,1034.6,158.4L1034.6,158.4z"/>
			</g>
		</g>
		<g>
			<g>
				<path class="st0" d="M1133.6,156.4c3.2,0,3.2-5,0-5C1130.4,151.4,1130.4,156.4,1133.6,156.4L1133.6,156.4z"/>
			</g>
		</g>
		<g>
			<g>
				<path class="st0" d="M1001.3,219c3.2,0,3.2-5,0-5C998.1,214,998.1,219,1001.3,219L1001.3,219z"/>
			</g>
		</g>
		<g>
			<g>
				<path class="st0" d="M1024.5,209.9c3.2,0,3.2-5,0-5C1021.3,204.9,1021.3,209.9,1024.5,209.9L1024.5,209.9z"/>
			</g>
		</g>
		<g>
			<g>
				<path class="st0" d="M1020.5,105.8c3.2,0,3.2-5,0-5C1017.3,100.8,1017.3,105.8,1020.5,105.8L1020.5,105.8z"/>
			</g>
		</g>
		<g>
			<g>
				<path class="st0" d="M879.1,241.2c3.2,0,3.2-5,0-5C875.9,236.2,875.9,241.2,879.1,241.2L879.1,241.2z"/>
			</g>
		</g>
		<polygon class="st0" points="960.5,184.9 961.2,172.8 954.3,182.7 943.6,179 952.2,187.9 942.8,198 955.5,191.4 959.9,202 
			959.9,191.3 970,188.2 		"/>
		<polygon class="st0" points="934,152.3 932,148.6 931.7,152.8 927.9,153.7 932.1,154.7 931.2,159.4 933.7,155.2 936.9,157.5 
			935,154.3 937.4,151.5 		"/>
		<polygon class="st0" points="1107.2,158.1 1106.4,156.7 1106.3,158.3 1104.7,158.7 1106.4,159.1 1106.1,161 1107.1,159.3 
			1108.4,160.2 1107.6,159 1108.6,157.8 		"/>
		<polygon class="st0" points="1126.8,128.8 1127.3,126.1 1125.5,128.2 1123.1,127.1 1124.9,129.3 1122.5,131.4 1125.6,130.2 
			1126.3,132.7 1126.5,130.2 1128.9,129.8 		"/>
		<polygon class="st0" points="921.8,214.8 919.7,211.1 919.5,215.3 915.7,216.2 919.9,217.2 919,221.9 921.5,217.6 924.7,219.9 
			922.8,216.8 925.2,214 		"/>
		<ellipse class="st0" cx="1003.1" cy="133.3" rx="0.4" ry="0.5"/>
		<ellipse class="st0" cx="976.8" cy="199.8" rx="0.4" ry="0.5"/>
		<ellipse class="st0" cx="999.9" cy="229.8" rx="0.4" ry="0.5"/>
		<ellipse class="st0" cx="1005.9" cy="219.5" rx="0.4" ry="0.5"/>
	</g>
	<g>
		<g>
			<g>
				<path class="st0" d="M1517.7,364.8c3.2,0,3.2-5,0-5C1514.5,359.8,1514.5,364.8,1517.7,364.8L1517.7,364.8z"/>
			</g>
		</g>
		<g>
			<g>
				<path class="st0" d="M1616.7,362.7c3.2,0,3.2-5,0-5C1613.5,357.7,1613.5,362.7,1616.7,362.7L1616.7,362.7z"/>
			</g>
		</g>
		<g>
			<g>
				<path class="st0" d="M1484.4,425.4c3.2,0,3.2-5,0-5C1481.2,420.4,1481.2,425.4,1484.4,425.4L1484.4,425.4z"/>
			</g>
		</g>
		<g>
			<g>
				<path class="st0" d="M1507.6,416.3c3.2,0,3.2-5,0-5C1504.4,411.3,1504.4,416.3,1507.6,416.3L1507.6,416.3z"/>
			</g>
		</g>
		<g>
			<g>
				<path class="st0" d="M1503.6,312.2c3.2,0,3.2-5,0-5C1500.4,307.2,1500.4,312.2,1503.6,312.2L1503.6,312.2z"/>
			</g>
		</g>
		<g>
			<g>
				<path class="st0" d="M1362.1,447.6c3.2,0,3.2-5,0-5C1358.9,442.6,1358.9,447.6,1362.1,447.6L1362.1,447.6z"/>
			</g>
		</g>
		<polygon class="st0" points="1443.6,391.3 1444.3,379.2 1437.4,389.1 1426.6,385.3 1435.3,394.3 1425.9,404.3 1438.6,397.8 
			1442.9,408.4 1442.9,397.7 1453.1,394.6 		"/>
		<polygon class="st0" points="1417,358.7 1415,355 1414.8,359.2 1411,360.1 1415.2,361.1 1414.3,365.8 1416.8,361.5 1420,363.9 
			1418,360.7 1420.5,357.9 		"/>
		<polygon class="st0" points="1590.3,364.5 1589.5,363 1589.4,364.7 1587.8,365.1 1589.5,365.5 1589.1,367.4 1590.2,365.7 
			1591.5,366.6 1590.7,365.3 1591.6,364.2 		"/>
		<polygon class="st0" points="1609.9,335.2 1610.4,332.4 1608.6,334.5 1606.2,333.4 1608,335.7 1605.6,337.7 1608.6,336.5 
			1609.4,339 1609.6,336.6 1612,336.1 		"/>
		<polygon class="st0" points="1404.8,421.1 1402.8,417.5 1402.6,421.7 1398.8,422.5 1403,423.6 1402,428.3 1404.6,424 
			1407.8,426.3 1405.8,423.2 1408.3,420.4 		"/>
		<ellipse class="st0" cx="1486.2" cy="339.6" rx="0.4" ry="0.5"/>
		<ellipse class="st0" cx="1459.9" cy="406.2" rx="0.4" ry="0.5"/>
		<ellipse class="st0" cx="1482.9" cy="436.2" rx="0.4" ry="0.5"/>
		<ellipse class="st0" cx="1488.9" cy="425.9" rx="0.4" ry="0.5"/>
	</g>
	<g>
		<g>
			<g>
				<path class="st0" d="M1831.3,459.7c3.2,0,3.2-5,0-5C1828.1,454.7,1828.1,459.7,1831.3,459.7L1831.3,459.7z"/>
			</g>
		</g>
		<g>
			<g>
				<path class="st0" d="M1916.5,510.2c3.2,0,3.2-5,0-5C1913.3,505.2,1913.3,510.2,1916.5,510.2L1916.5,510.2z"/>
			</g>
		</g>
		<g>
			<g>
				<path class="st0" d="M1771.1,493.6c3.2,0,3.2-5,0-5C1767.8,488.6,1767.8,493.6,1771.1,493.6L1771.1,493.6z"/>
			</g>
		</g>
		<g>
			<g>
				<path class="st0" d="M1795.6,498.1c3.2,0,3.2-5,0-5C1792.4,493.1,1792.4,498.1,1795.6,498.1L1795.6,498.1z"/>
			</g>
		</g>
		<g>
			<g>
				<path class="st0" d="M1847,407.6c3.2,0,3.2-5,0-5C1843.8,402.6,1843.8,407.6,1847,407.6L1847,407.6z"/>
			</g>
		</g>
		<g>
			<g>
				<path class="st0" d="M1655.5,448.1c3.2,0,3.2-5,0-5C1652.3,443.1,1652.3,448.1,1655.5,448.1L1655.5,448.1z"/>
			</g>
		</g>
		<polygon class="st0" points="1753,442.8 1760,432.9 1748.9,437.6 1741.8,428.8 1744.4,440.9 1731.1,444.6 1745.4,445.7 
			1743.5,457 1749.1,447.9 1759.4,450.6 		"/>
		<polygon class="st0" points="1747.7,401.1 1747.9,396.9 1745.5,400.4 1741.8,399.1 1744.8,402.2 1741.5,405.7 1745.9,403.4 
			1747.5,407.1 1747.4,403.3 1751,402.2 		"/>
		<polygon class="st0" points="1891.8,497.4 1891.9,495.7 1890.9,497.1 1889.4,496.5 1890.6,497.8 1889.3,499.2 1891.1,498.3 
			1891.7,499.8 1891.7,498.3 1893.1,497.8 		"/>
		<polygon class="st0" points="1924,482.8 1925.8,480.7 1923.2,481.5 1921.7,479.3 1922.1,482.2 1919,482.7 1922.2,483.3 
			1921.5,485.8 1923,483.8 1925.2,484.7 		"/>
		<polygon class="st0" points="1704.4,447.7 1704.6,443.5 1702.2,447 1698.5,445.7 1701.5,448.8 1698.3,452.3 1702.7,450 
			1704.2,453.7 1704.2,450 1707.7,448.9 		"/>
		
			<ellipse transform="matrix(0.5271 -0.8498 0.8498 0.5271 500.8835 1742.8455)" class="st0" cx="1816.5" cy="421.4" rx="0.5" ry="0.4"/>
		
			<ellipse transform="matrix(0.5271 -0.8498 0.8498 0.5271 437.4783 1714.2278)" class="st0" cx="1759" cy="464" rx="0.5" ry="0.4"/>
		
			<ellipse transform="matrix(0.5271 -0.8498 0.8498 0.5271 407.2208 1735.2482)" class="st0" cx="1762.8" cy="501.7" rx="0.5" ry="0.4"/>
		
			<ellipse transform="matrix(0.5271 -0.8498 0.8498 0.5271 417.0035 1741.5319)" class="st0" cx="1773.3" cy="496.1" rx="0.5" ry="0.4"/>
	</g>
	<g>
		<g>
			<g>
				<path class="st0" d="M721.6,179.4c3.2,0,3.2-5,0-5C718.4,174.4,718.4,179.4,721.6,179.4L721.6,179.4z"/>
			</g>
		</g>
		<g>
			<g>
				<path class="st0" d="M820.6,177.4c3.2,0,3.2-5,0-5C817.4,172.4,817.4,177.4,820.6,177.4L820.6,177.4z"/>
			</g>
		</g>
		<g>
			<g>
				<path class="st0" d="M688.2,240.1c3.2,0,3.2-5,0-5C685,235.1,685,240.1,688.2,240.1L688.2,240.1z"/>
			</g>
		</g>
		<g>
			<g>
				<path class="st0" d="M711.5,231c3.2,0,3.2-5,0-5C708.3,226,708.3,231,711.5,231L711.5,231z"/>
			</g>
		</g>
		<g>
			<g>
				<path class="st0" d="M707.4,126.9c3.2,0,3.2-5,0-5C704.2,121.9,704.2,126.9,707.4,126.9L707.4,126.9z"/>
			</g>
		</g>
		<g>
			<g>
				<path class="st0" d="M566,262.3c3.2,0,3.2-5,0-5C562.8,257.3,562.8,262.3,566,262.3L566,262.3z"/>
			</g>
		</g>
		<polygon class="st0" points="647.4,205.9 648.2,193.9 641.2,203.8 630.5,200 639.2,208.9 629.8,219 642.5,212.5 646.8,223.1 
			646.8,212.4 657,209.3 		"/>
		<polygon class="st0" points="620.9,173.4 618.9,169.7 618.7,173.9 614.8,174.8 619,175.8 618.1,180.5 620.6,176.2 623.9,178.6 
			621.9,175.4 624.3,172.6 		"/>
		<polygon class="st0" points="794.1,179.2 793.3,177.7 793.2,179.4 791.7,179.8 793.4,180.2 793,182.1 794,180.4 795.3,181.3 
			794.5,180 795.5,178.9 		"/>
		<polygon class="st0" points="813.8,149.8 814.2,147.1 812.4,149.2 810.1,148.1 811.8,150.3 809.5,152.4 812.5,151.2 813.2,153.7 
			813.5,151.3 815.9,150.8 		"/>
		<polygon class="st0" points="608.7,235.8 606.7,232.2 606.5,236.3 602.6,237.2 606.8,238.2 605.9,243 608.4,238.7 611.7,241 
			609.7,237.9 612.1,235 		"/>
		<ellipse class="st0" cx="690" cy="154.3" rx="0.4" ry="0.5"/>
		<ellipse class="st0" cx="663.7" cy="220.9" rx="0.4" ry="0.5"/>
		<ellipse class="st0" cx="686.8" cy="250.9" rx="0.4" ry="0.5"/>
		<ellipse class="st0" cx="692.8" cy="240.6" rx="0.4" ry="0.5"/>
	</g>
	<g>
		<g>
			<g>
				<path class="st0" d="M1006.4,306.5c3.2,0,3.2-5,0-5C1003.1,301.5,1003.1,306.5,1006.4,306.5L1006.4,306.5z"/>
			</g>
		</g>
		<g>
			<g>
				<path class="st0" d="M1105.4,304.5c3.2,0,3.2-5,0-5C1102.1,299.5,1102.1,304.5,1105.4,304.5L1105.4,304.5z"/>
			</g>
		</g>
		<g>
			<g>
				<path class="st0" d="M973,367.1c3.2,0,3.2-5,0-5C969.8,362.1,969.8,367.1,973,367.1L973,367.1z"/>
			</g>
		</g>
		<g>
			<g>
				<path class="st0" d="M996.3,358c3.2,0,3.2-5,0-5C993,353,993,358,996.3,358L996.3,358z"/>
			</g>
		</g>
		<g>
			<g>
				<path class="st0" d="M992.2,253.9c3.2,0,3.2-5,0-5C989,248.9,989,253.9,992.2,253.9L992.2,253.9z"/>
			</g>
		</g>
		<g>
			<g>
				<path class="st0" d="M850.8,389.3c3.2,0,3.2-5,0-5C847.6,384.3,847.6,389.3,850.8,389.3L850.8,389.3z"/>
			</g>
		</g>
		<polygon class="st0" points="932.2,333 932.9,320.9 926,330.8 915.3,327.1 923.9,336 914.5,346.1 927.3,339.5 931.6,350.1 
			931.6,339.4 941.8,336.3 		"/>
		<polygon class="st0" points="905.7,300.4 903.7,296.7 903.5,300.9 899.6,301.8 903.8,302.8 902.9,307.5 905.4,303.3 908.7,305.6 
			906.7,302.4 909.1,299.6 		"/>
		<polygon class="st0" points="1078.9,306.2 1078.1,304.8 1078,306.4 1076.5,306.8 1078.1,307.2 1077.8,309.1 1078.8,307.4 
			1080.1,308.3 1079.3,307.1 1080.3,305.9 		"/>
		<polygon class="st0" points="1098.6,276.9 1099,274.2 1097.2,276.2 1094.8,275.2 1096.6,277.4 1094.2,279.5 1097.3,278.3 
			1098,280.8 1098.3,278.3 1100.6,277.8 		"/>
		<polygon class="st0" points="893.5,362.9 891.5,359.2 891.3,363.4 887.4,364.3 891.6,365.3 890.7,370 893.2,365.7 896.5,368 
			894.5,364.9 896.9,362.1 		"/>
		<ellipse class="st0" cx="974.8" cy="281.4" rx="0.4" ry="0.5"/>
		<ellipse class="st0" cx="948.5" cy="347.9" rx="0.4" ry="0.5"/>
		<ellipse class="st0" cx="971.6" cy="377.9" rx="0.4" ry="0.5"/>
		<ellipse class="st0" cx="977.6" cy="367.6" rx="0.4" ry="0.5"/>
	</g>
	<g>
		<g>
			<g>
				<path class="st0" d="M1267.9,137.8c3.2,0,3.2-5,0-5C1264.6,132.8,1264.6,137.8,1267.9,137.8L1267.9,137.8z"/>
			</g>
		</g>
		<g>
			<g>
				<path class="st0" d="M1366.9,135.8c3.2,0,3.2-5,0-5C1363.6,130.8,1363.6,135.8,1366.9,135.8L1366.9,135.8z"/>
			</g>
		</g>
		<g>
			<g>
				<path class="st0" d="M1234.5,198.4c3.2,0,3.2-5,0-5C1231.3,193.4,1231.3,198.4,1234.5,198.4L1234.5,198.4z"/>
			</g>
		</g>
		<g>
			<g>
				<path class="st0" d="M1257.8,189.3c3.2,0,3.2-5,0-5C1254.5,184.3,1254.5,189.3,1257.8,189.3L1257.8,189.3z"/>
			</g>
		</g>
		<g>
			<g>
				<path class="st0" d="M1253.7,85.2c3.2,0,3.2-5,0-5C1250.5,80.2,1250.5,85.2,1253.7,85.2L1253.7,85.2z"/>
			</g>
		</g>
		<g>
			<g>
				<path class="st0" d="M1112.3,220.6c3.2,0,3.2-5,0-5C1109.1,215.6,1109.1,220.6,1112.3,220.6L1112.3,220.6z"/>
			</g>
		</g>
		<polygon class="st0" points="1193.7,164.3 1194.4,152.2 1187.5,162.1 1176.8,158.4 1185.4,167.3 1176,177.4 1188.7,170.8 
			1193.1,181.4 1193.1,170.7 1203.3,167.6 		"/>
		<polygon class="st0" points="1167.2,131.7 1165.2,128 1165,132.2 1161.1,133.1 1165.3,134.1 1164.4,138.8 1166.9,134.6 
			1170.2,136.9 1168.2,133.7 1170.6,130.9 		"/>
		<polygon class="st0" points="1340.4,137.5 1339.6,136.1 1339.5,137.7 1338,138.1 1339.6,138.5 1339.3,140.4 1340.3,138.7 
			1341.6,139.6 1340.8,138.4 1341.8,137.2 		"/>
		<polygon class="st0" points="1360.1,108.2 1360.5,105.5 1358.7,107.5 1356.3,106.5 1358.1,108.7 1355.7,110.8 1358.8,109.6 
			1359.5,112.1 1359.8,109.6 1362.1,109.2 		"/>
		<polygon class="st0" points="1155,194.2 1153,190.5 1152.7,194.7 1148.9,195.6 1153.1,196.6 1152.2,201.3 1154.7,197 1158,199.3 
			1156,196.2 1158.4,193.4 		"/>
		<ellipse class="st0" cx="1236.3" cy="112.7" rx="0.4" ry="0.5"/>
		<ellipse class="st0" cx="1210" cy="179.2" rx="0.4" ry="0.5"/>
		<ellipse class="st0" cx="1233.1" cy="209.2" rx="0.4" ry="0.5"/>
		<ellipse class="st0" cx="1239.1" cy="198.9" rx="0.4" ry="0.5"/>
	</g>
	<g>
		<g>
			<g>
				<path class="st0" d="M1527.9,573.4c3.2,0,3.2-5,0-5C1524.6,568.4,1524.6,573.4,1527.9,573.4L1527.9,573.4z"/>
			</g>
		</g>
		<g>
			<g>
				<path class="st0" d="M1551.1,582.5c3.2,0,3.2-5,0-5C1547.9,577.5,1547.9,582.5,1551.1,582.5L1551.1,582.5z"/>
			</g>
		</g>
		<g>
			<g>
				<path class="st0" d="M1405.6,551.2c3.2,0,3.2-5,0-5C1402.4,546.2,1402.4,551.2,1405.6,551.2L1405.6,551.2z"/>
			</g>
		</g>
		<polygon class="st0" points="1487.1,602.5 1487.8,614.6 1480.9,604.7 1470.1,608.4 1478.8,599.5 1469.4,589.4 1482.1,595.9 
			1486.4,585.3 1486.4,596 1496.6,599.2 		"/>
		<polygon class="st0" points="1448.3,572.6 1446.3,576.3 1446.1,572.1 1442.2,571.2 1446.4,570.2 1445.5,565.5 1448.1,569.8 
			1451.3,567.4 1449.3,570.6 1451.7,573.4 		"/>
		<ellipse class="st0" cx="1503.4" cy="587.6" rx="0.4" ry="0.5"/>
		<ellipse class="st0" cx="1526.4" cy="557.5" rx="0.4" ry="0.5"/>
		<ellipse class="st0" cx="1532.4" cy="567.9" rx="0.4" ry="0.5"/>
	</g>
	<g>
		<g>
			<g>
				<path class="st0" d="M309.1,492.8c3.2,0,3.2-5,0-5C305.8,487.8,305.8,492.8,309.1,492.8L309.1,492.8z"/>
			</g>
		</g>
		<g>
			<g>
				<path class="st0" d="M438.4,525.1c3.2,0,3.2-5,0-5C435.2,520.1,435.1,525.1,438.4,525.1L438.4,525.1z"/>
			</g>
		</g>
		<g>
			<g>
				<path class="st0" d="M275.7,432.2c3.2,0,3.2-5,0-5C272.5,427.2,272.5,432.2,275.7,432.2L275.7,432.2z"/>
			</g>
		</g>
		<g>
			<g>
				<path class="st0" d="M299,441.3c3.2,0,3.2-5,0-5C295.7,436.3,295.7,441.3,299,441.3L299,441.3z"/>
			</g>
		</g>
		<g>
			<g>
				<path class="st0" d="M294.9,545.3c3.2,0,3.2-5,0-5C291.7,540.3,291.7,545.3,294.9,545.3L294.9,545.3z"/>
			</g>
		</g>
		<g>
			<g>
				<path class="st0" d="M153.5,409.9c3.2,0,3.2-5,0-5C150.3,404.9,150.3,409.9,153.5,409.9L153.5,409.9z"/>
			</g>
		</g>
		<polygon class="st0" points="234.9,461.3 235.6,473.3 228.7,463.4 218,467.2 226.7,458.3 217.2,448.2 230,454.7 234.3,444.1 
			234.3,454.8 244.5,457.9 		"/>
		<polygon class="st0" points="208.4,493.8 206.4,497.5 206.2,493.3 202.3,492.4 206.5,491.4 205.6,486.7 208.1,491 211.4,488.7 
			209.4,491.8 211.8,494.6 		"/>
		<polygon class="st0" points="411.9,518.3 411.1,519.8 411,518.1 409.5,517.8 411.2,517.3 410.8,515.5 411.8,517.2 413.1,516.2 
			412.3,517.5 413.3,518.6 		"/>
		<polygon class="st0" points="431.6,547.7 432,550.4 430.2,548.3 427.9,549.4 429.6,547.2 427.3,545.1 430.3,546.3 431,543.8 
			431.3,546.2 433.7,546.7 		"/>
		<polygon class="st0" points="196.2,431.4 194.2,435.1 194,430.9 190.1,430 194.3,429 193.4,424.3 195.9,428.5 199.2,426.2 
			197.2,429.4 199.6,432.2 		"/>
		<ellipse class="st0" cx="277.5" cy="512.9" rx="0.4" ry="0.5"/>
		<ellipse class="st0" cx="251.2" cy="446.4" rx="0.4" ry="0.5"/>
		<ellipse class="st0" cx="274.3" cy="416.3" rx="0.4" ry="0.5"/>
		<ellipse class="st0" cx="280.3" cy="426.7" rx="0.4" ry="0.5"/>
	</g>
	<g>
		<g>
			<g>
				<path class="st0" d="M660.9,430.6c3.2,0,3.2-5,0-5C657.7,425.6,657.7,430.6,660.9,430.6L660.9,430.6z"/>
			</g>
		</g>
		<g>
			<g>
				<path class="st0" d="M759.9,432.6c3.2,0,3.2-5,0-5C756.7,427.6,756.7,432.6,759.9,432.6L759.9,432.6z"/>
			</g>
		</g>
		<g>
			<g>
				<path class="st0" d="M627.6,369.9c3.2,0,3.2-5,0-5C624.4,364.9,624.4,369.9,627.6,369.9L627.6,369.9z"/>
			</g>
		</g>
		<g>
			<g>
				<path class="st0" d="M650.8,379c3.2,0,3.2-5,0-5C647.6,374,647.6,379,650.8,379L650.8,379z"/>
			</g>
		</g>
		<g>
			<g>
				<path class="st0" d="M646.8,483.1c3.2,0,3.2-5,0-5C643.6,478.1,643.6,483.1,646.8,483.1L646.8,483.1z"/>
			</g>
		</g>
		<g>
			<g>
				<path class="st0" d="M505.4,347.7c3.2,0,3.2-5,0-5C502.1,342.7,502.1,347.7,505.4,347.7L505.4,347.7z"/>
			</g>
		</g>
		<polygon class="st0" points="586.8,399.1 587.5,411.1 580.6,401.2 569.9,405 578.5,396.1 569.1,386 581.8,392.5 586.1,381.9 
			586.1,392.6 596.3,395.7 		"/>
		<polygon class="st0" points="560.2,431.6 558.2,435.3 558,431.1 554.2,430.2 558.4,429.2 557.5,424.5 560,428.8 563.2,426.4 
			561.3,429.6 563.7,432.4 		"/>
		<polygon class="st0" points="733.5,425.8 732.7,427.3 732.6,425.6 731,425.2 732.7,424.8 732.4,422.9 733.4,424.6 734.7,423.7 
			733.9,425 734.9,426.1 		"/>
		<polygon class="st0" points="753.1,455.2 753.6,457.9 751.8,455.8 749.4,456.9 751.2,454.7 748.8,452.6 751.9,453.8 752.6,451.3 
			752.8,453.7 755.2,454.2 		"/>
		<polygon class="st0" points="548,369.2 546,372.8 545.8,368.7 542,367.8 546.2,366.8 545.3,362 547.8,366.3 551,364 549,367.1 
			551.5,369.9 		"/>
		<ellipse class="st0" cx="629.4" cy="450.7" rx="0.4" ry="0.5"/>
		<ellipse class="st0" cx="603.1" cy="384.1" rx="0.4" ry="0.5"/>
		<ellipse class="st0" cx="626.2" cy="354.1" rx="0.4" ry="0.5"/>
		<ellipse class="st0" cx="632.1" cy="364.4" rx="0.4" ry="0.5"/>
	</g>
	<g>
		<g>
			<g>
				<path class="st0" d="M181.2,576.3c3.2,0,3.2-5,0-5C178,571.3,178,576.3,181.2,576.3L181.2,576.3z"/>
			</g>
		</g>
		<g>
			<g>
				<path class="st0" d="M204.4,585.4c3.2,0,3.2-5,0-5C201.2,580.4,201.2,585.4,204.4,585.4L204.4,585.4z"/>
			</g>
		</g>
		<g>
			<g>
				<path class="st0" d="M59,554.1c3.2,0,3.2-5,0-5C55.8,549.1,55.8,554.1,59,554.1L59,554.1z"/>
			</g>
		</g>
		<polygon class="st0" points="140.4,605.4 141.1,617.5 134.2,607.6 123.5,611.3 132.1,602.4 122.7,592.3 135.4,598.9 139.8,588.3 
			139.7,599 149.9,602.1 		"/>
		<polygon class="st0" points="101.7,575.5 99.6,579.2 99.4,575 95.6,574.1 99.8,573.1 98.9,568.4 101.4,572.7 104.6,570.4 
			102.7,573.5 105.1,576.3 		"/>
		<ellipse class="st0" cx="179.8" cy="560.5" rx="0.4" ry="0.5"/>
		<ellipse class="st0" cx="185.8" cy="570.8" rx="0.4" ry="0.5"/>
	</g>
	<g>
		<g>
			<g>
				<path class="st0" d="M1671.2,578.5c3.2,0,3.2-5,0-5C1668,573.5,1668,578.5,1671.2,578.5L1671.2,578.5z"/>
			</g>
		</g>
		<ellipse class="st0" cx="1792" cy="584.9" rx="0.4" ry="0.5"/>
	</g>
	<g>
		<g>
			<g>
				<path class="st0" d="M539.5,492.1c3.2,0,3.2-5,0-5C536.3,487.1,536.3,492.1,539.5,492.1L539.5,492.1z"/>
			</g>
		</g>
		<g>
			<g>
				<path class="st0" d="M1394.1,592.8c3.2,0,3.2-5,0-5C1390.9,587.8,1390.9,592.8,1394.1,592.8L1394.1,592.8z"/>
			</g>
		</g>
	</g>
	<g>
		<g>
			<g>
				<path class="st0" d="M891.1,569.2c3.2,0,3.2-5,0-5C887.9,564.2,887.9,569.2,891.1,569.2L891.1,569.2z"/>
			</g>
		</g>
		<g>
			<g>
				<path class="st0" d="M792.1,571.3c3.2,0,3.2-5,0-5C788.9,566.3,788.9,571.3,792.1,571.3L792.1,571.3z"/>
			</g>
		</g>
		<g>
			<g>
				<path class="st0" d="M924.5,508.6c3.2,0,3.2-5,0-5C921.3,503.6,921.2,508.6,924.5,508.6L924.5,508.6z"/>
			</g>
		</g>
		<g>
			<g>
				<path class="st0" d="M901.2,517.7c3.2,0,3.2-5,0-5C898,512.7,898,517.7,901.2,517.7L901.2,517.7z"/>
			</g>
		</g>
		<g>
			<g>
				<path class="st0" d="M1046.7,486.4c3.2,0,3.2-5,0-5C1043.5,481.4,1043.5,486.4,1046.7,486.4L1046.7,486.4z"/>
			</g>
		</g>
		<polygon class="st0" points="965.3,537.7 964.5,549.8 971.5,539.9 982.2,543.7 973.5,534.7 983,524.7 970.2,531.2 965.9,520.6 
			965.9,531.3 955.7,534.4 		"/>
		<polygon class="st0" points="991.8,570.3 993.8,574 994,569.8 997.9,568.9 993.7,567.9 994.6,563.2 992.1,567.5 988.8,565.1 
			990.8,568.3 988.4,571.1 		"/>
		<polygon class="st0" points="818.6,564.5 819.4,566 819.5,564.3 821,563.9 819.3,563.5 819.7,561.6 818.7,563.3 817.4,562.4 
			818.2,563.7 817.2,564.8 		"/>
		<polygon class="st0" points="1004,507.9 1006,511.5 1006.2,507.3 1010.1,506.5 1005.9,505.4 1006.8,500.7 1004.3,505 1001,502.7 
			1003,505.8 1000.6,508.6 		"/>
		<ellipse class="st0" cx="949" cy="522.8" rx="0.4" ry="0.5"/>
		<ellipse class="st0" cx="925.9" cy="492.8" rx="0.4" ry="0.5"/>
		<ellipse class="st0" cx="919.9" cy="503.1" rx="0.4" ry="0.5"/>
	</g>
	<g>
		<g>
			<g>
				<path class="st0" d="M408.1,362.9c3.2,0,3.2-5,0-5C404.8,357.9,404.8,362.9,408.1,362.9L408.1,362.9z"/>
			</g>
		</g>
		<g>
			<g>
				<path class="st0" d="M309.1,364.9c3.2,0,3.2-5,0-5C305.8,359.9,305.8,364.9,309.1,364.9L309.1,364.9z"/>
			</g>
		</g>
		<g>
			<g>
				<path class="st0" d="M441.4,302.3c3.2,0,3.2-5,0-5C438.2,297.3,438.2,302.3,441.4,302.3L441.4,302.3z"/>
			</g>
		</g>
		<g>
			<g>
				<path class="st0" d="M418.2,311.4c3.2,0,3.2-5,0-5C414.9,306.4,414.9,311.4,418.2,311.4L418.2,311.4z"/>
			</g>
		</g>
		<g>
			<g>
				<path class="st0" d="M422.2,415.4c3.2,0,3.2-5,0-5C419,410.4,419,415.4,422.2,415.4L422.2,415.4z"/>
			</g>
		</g>
		<g>
			<g>
				<path class="st0" d="M563.6,280c3.2,0,3.2-5,0-5C560.4,275,560.4,280,563.6,280L563.6,280z"/>
			</g>
		</g>
		<polygon class="st0" points="482.2,331.4 481.5,343.4 488.4,333.5 499.1,337.3 490.5,328.4 499.9,318.3 487.2,324.8 482.8,314.2 
			482.9,324.9 472.7,328 		"/>
		<polygon class="st0" points="508.7,363.9 510.8,367.6 511,363.4 514.8,362.5 510.6,361.5 511.5,356.8 509,361.1 505.8,358.8 
			507.7,361.9 505.3,364.7 		"/>
		<polygon class="st0" points="335.5,358.1 336.3,359.6 336.4,357.9 338,357.5 336.3,357.1 336.6,355.2 335.6,357 334.3,356 
			335.1,357.3 334.1,358.4 		"/>
		<polygon class="st0" points="315.9,387.5 315.4,390.2 317.2,388.1 319.6,389.2 317.8,387 320.2,384.9 317.1,386.1 316.4,383.6 
			316.2,386 313.8,386.5 		"/>
		<polygon class="st0" points="520.9,301.5 523,305.2 523.2,301 527,300.1 522.8,299.1 523.7,294.4 521.2,298.6 518,296.3 
			519.9,299.5 517.5,302.3 		"/>
		<ellipse class="st0" cx="439.6" cy="383" rx="0.4" ry="0.5"/>
		<ellipse class="st0" cx="465.9" cy="316.5" rx="0.4" ry="0.5"/>
		<ellipse class="st0" cx="442.8" cy="286.4" rx="0.4" ry="0.5"/>
		<ellipse class="st0" cx="436.9" cy="296.8" rx="0.4" ry="0.5"/>
	</g>
	<g>
		<g>
			<g>
				<path class="st0" d="M94.4,267.9c3.2,0,3.2-5,0-5C91.2,262.9,91.2,267.9,94.4,267.9L94.4,267.9z"/>
			</g>
		</g>
		<g>
			<g>
				<path class="st0" d="M9.2,217.5c3.2,0,3.2-5,0-5C6,212.5,6,217.5,9.2,217.5L9.2,217.5z"/>
			</g>
		</g>
		<g>
			<g>
				<path class="st0" d="M154.7,234c3.2,0,3.2-5,0-5C151.5,229,151.5,234,154.7,234L154.7,234z"/>
			</g>
		</g>
		<g>
			<g>
				<path class="st0" d="M130.2,229.5c3.2,0,3.2-5,0-5C127,224.5,127,229.5,130.2,229.5L130.2,229.5z"/>
			</g>
		</g>
		<g>
			<g>
				<path class="st0" d="M78.8,320c3.2,0,3.2-5,0-5C75.5,315,75.5,320,78.8,320L78.8,320z"/>
			</g>
		</g>
		<g>
			<g>
				<path class="st0" d="M270.3,279.6c3.2,0,3.2-5,0-5C267.1,274.6,267.1,279.6,270.3,279.6L270.3,279.6z"/>
			</g>
		</g>
		<polygon class="st0" points="172.7,279.9 165.8,289.7 176.9,285 184,293.8 181.3,281.7 194.7,278.1 180.4,276.9 182.3,265.6 
			176.7,274.7 166.4,272 		"/>
		<polygon class="st0" points="178.1,321.5 177.9,325.7 180.3,322.3 184,323.6 181,320.5 184.2,316.9 179.8,319.2 178.3,315.6 
			178.3,319.3 174.8,320.4 		"/>
		<polygon class="st0" points="34,225.3 33.9,227 34.9,225.6 36.4,226.1 35.1,224.8 36.4,223.4 34.7,224.4 34.1,222.9 34.1,224.4 
			32.6,224.8 		"/>
		<polygon class="st0" points="1.8,239.9 0,241.9 2.6,241.1 4.1,243.3 3.7,240.5 6.8,240 3.6,239.4 4.3,236.8 2.8,238.8 0.5,237.9 
					"/>
		<polygon class="st0" points="221.4,274.9 221.2,279.1 223.6,275.6 227.3,276.9 224.3,273.8 227.5,270.3 223.1,272.6 221.6,268.9 
			221.6,272.7 218.1,273.8 		"/>
		
			<ellipse transform="matrix(0.5271 -0.8498 0.8498 0.5271 -204.3222 235.3551)" class="st0" cx="109.3" cy="301.3" rx="0.5" ry="0.4"/>
		
			<ellipse transform="matrix(0.5271 -0.8498 0.8498 0.5271 -140.917 263.9728)" class="st0" cx="166.7" cy="258.6" rx="0.5" ry="0.4"/>
		
			<ellipse transform="matrix(0.5271 -0.8498 0.8498 0.5271 -110.6595 242.9524)" class="st0" cx="163" cy="220.9" rx="0.5" ry="0.4"/>
		
			<ellipse transform="matrix(0.5271 -0.8498 0.8498 0.5271 -120.4423 236.6687)" class="st0" cx="152.4" cy="226.6" rx="0.5" ry="0.4"/>
	</g>
	<g>
		<g>
			<g>
				<path class="st0" d="M1204.2,548.2c3.2,0,3.2-5,0-5C1201,543.2,1201,548.2,1204.2,548.2L1204.2,548.2z"/>
			</g>
		</g>
		<g>
			<g>
				<path class="st0" d="M1105.2,550.2c3.2,0,3.2-5,0-5C1102,545.2,1102,550.2,1105.2,550.2L1105.2,550.2z"/>
			</g>
		</g>
		<g>
			<g>
				<path class="st0" d="M1237.5,487.6c3.2,0,3.2-5,0-5C1234.3,482.6,1234.3,487.6,1237.5,487.6L1237.5,487.6z"/>
			</g>
		</g>
		<g>
			<g>
				<path class="st0" d="M1214.3,496.7c3.2,0,3.2-5,0-5C1211.1,491.7,1211.1,496.7,1214.3,496.7L1214.3,496.7z"/>
			</g>
		</g>
		<g>
			<g>
				<path class="st0" d="M1359.8,465.4c3.2,0,3.2-5,0-5C1356.6,460.4,1356.6,465.4,1359.8,465.4L1359.8,465.4z"/>
			</g>
		</g>
		<polygon class="st0" points="1278.3,516.7 1277.6,528.7 1284.5,518.8 1295.3,522.6 1286.6,513.7 1296,503.6 1283.3,510.1 
			1279,499.5 1279,510.2 1268.8,513.4 		"/>
		<polygon class="st0" points="1304.9,549.2 1306.9,552.9 1307.1,548.7 1311,547.9 1306.8,546.8 1307.7,542.1 1305.1,546.4 
			1301.9,544.1 1303.9,547.2 1301.5,550 		"/>
		<polygon class="st0" points="1131.7,543.4 1132.5,544.9 1132.6,543.2 1134.1,542.9 1132.4,542.5 1132.8,540.6 1131.8,542.3 
			1130.5,541.3 1131.3,542.6 1130.3,543.7 		"/>
		<polygon class="st0" points="1112,572.8 1111.6,575.5 1113.4,573.4 1115.7,574.5 1114,572.3 1116.3,570.2 1113.3,571.4 
			1112.5,568.9 1112.3,571.3 1109.9,571.8 		"/>
		<polygon class="st0" points="1317.1,486.8 1319.1,490.5 1319.3,486.3 1323.2,485.4 1319,484.4 1319.9,479.7 1317.3,483.9 
			1314.1,481.6 1316.1,484.8 1313.7,487.6 		"/>
		<ellipse class="st0" cx="1235.7" cy="568.3" rx="0.4" ry="0.5"/>
		<ellipse class="st0" cx="1262" cy="501.8" rx="0.4" ry="0.5"/>
		<ellipse class="st0" cx="1239" cy="471.7" rx="0.4" ry="0.5"/>
		<ellipse class="st0" cx="1233" cy="482.1" rx="0.4" ry="0.5"/>
	</g>
	<g>
		<g>
			<g>
				<path class="st0" d="M919.4,421.2c3.2,0,3.2-5,0-5C916.2,416.2,916.2,421.2,919.4,421.2L919.4,421.2z"/>
			</g>
		</g>
		<g>
			<g>
				<path class="st0" d="M820.4,423.2c3.2,0,3.2-5,0-5C817.2,418.2,817.2,423.2,820.4,423.2L820.4,423.2z"/>
			</g>
		</g>
		<g>
			<g>
				<path class="st0" d="M952.8,360.5c3.2,0,3.2-5,0-5C949.5,355.5,949.5,360.5,952.8,360.5L952.8,360.5z"/>
			</g>
		</g>
		<g>
			<g>
				<path class="st0" d="M929.5,369.6c3.2,0,3.2-5,0-5C926.3,364.6,926.3,369.6,929.5,369.6L929.5,369.6z"/>
			</g>
		</g>
		<g>
			<g>
				<path class="st0" d="M933.6,473.7c3.2,0,3.2-5,0-5C930.3,468.7,930.3,473.7,933.6,473.7L933.6,473.7z"/>
			</g>
		</g>
		<g>
			<g>
				<path class="st0" d="M1075,338.3c3.2,0,3.2-5,0-5C1071.8,333.3,1071.8,338.3,1075,338.3L1075,338.3z"/>
			</g>
		</g>
		<polygon class="st0" points="993.6,389.7 992.8,401.7 999.8,391.8 1010.5,395.6 1001.8,386.7 1011.2,376.6 998.5,383.1 
			994.2,372.5 994.2,383.2 984,386.3 		"/>
		<polygon class="st0" points="1020.1,422.2 1022.1,425.9 1022.3,421.7 1026.2,420.8 1022,419.8 1022.9,415.1 1020.3,419.4 
			1017.1,417 1019.1,420.2 1016.7,423 		"/>
		<polygon class="st0" points="846.9,416.4 847.7,417.9 847.8,416.2 849.3,415.8 847.6,415.4 848,413.5 847,415.2 845.7,414.3 
			846.5,415.6 845.5,416.7 		"/>
		<polygon class="st0" points="827.2,445.8 826.8,448.5 828.6,446.4 830.9,447.5 829.2,445.3 831.5,443.2 828.5,444.4 827.8,441.9 
			827.5,444.3 825.1,444.8 		"/>
		<polygon class="st0" points="1032.3,359.8 1034.3,363.4 1034.5,359.3 1038.4,358.4 1034.2,357.4 1035.1,352.6 1032.6,356.9 
			1029.3,354.6 1031.3,357.7 1028.9,360.5 		"/>
		<ellipse class="st0" cx="951" cy="441.3" rx="0.4" ry="0.5"/>
		<ellipse class="st0" cx="977.3" cy="374.7" rx="0.4" ry="0.5"/>
		<ellipse class="st0" cx="954.2" cy="344.7" rx="0.4" ry="0.5"/>
		<ellipse class="st0" cx="948.2" cy="355" rx="0.4" ry="0.5"/>
	</g>
	<g>
		<g>
			<g>
				<path class="st0" d="M657.9,589.9c3.2,0,3.2-5,0-5C654.7,584.9,654.7,589.9,657.9,589.9L657.9,589.9z"/>
			</g>
		</g>
		<g>
			<g>
				<path class="st0" d="M558.9,591.9c3.2,0,3.2-5,0-5C555.7,586.9,555.7,591.9,558.9,591.9L558.9,591.9z"/>
			</g>
		</g>
		<g>
			<g>
				<path class="st0" d="M691.3,529.2c3.2,0,3.2-5,0-5C688,524.2,688,529.2,691.3,529.2L691.3,529.2z"/>
			</g>
		</g>
		<g>
			<g>
				<path class="st0" d="M668,538.3c3.2,0,3.2-5,0-5C664.8,533.3,664.8,538.3,668,538.3L668,538.3z"/>
			</g>
		</g>
		<g>
			<g>
				<path class="st0" d="M813.5,507c3.2,0,3.2-5,0-5C810.3,502,810.3,507,813.5,507L813.5,507z"/>
			</g>
		</g>
		<polygon class="st0" points="732.1,558.4 731.3,570.4 738.3,560.5 749,564.3 740.3,555.4 749.7,545.3 737,551.8 732.7,541.2 
			732.7,551.9 722.5,555 		"/>
		<polygon class="st0" points="758.6,590.9 760.6,594.6 760.8,590.4 764.7,589.5 760.5,588.5 761.4,583.8 758.9,588.1 755.6,585.7 
			757.6,588.9 755.2,591.7 		"/>
		<polygon class="st0" points="585.4,585.1 586.2,586.6 586.3,584.9 587.8,584.5 586.1,584.1 586.5,582.2 585.5,583.9 584.2,583 
			585,584.3 584,585.4 		"/>
		<polygon class="st0" points="770.8,528.5 772.8,532.1 773,528 776.9,527.1 772.7,526.1 773.6,521.3 771.1,525.6 767.8,523.3 
			769.8,526.4 767.4,529.2 		"/>
		<ellipse class="st0" cx="715.8" cy="543.4" rx="0.4" ry="0.5"/>
		<ellipse class="st0" cx="692.7" cy="513.4" rx="0.4" ry="0.5"/>
		<ellipse class="st0" cx="686.7" cy="523.7" rx="0.4" ry="0.5"/>
	</g>
</g>
<g id="about">
</g>
<g id="圖層_4">
</g>
<g id="圖層_23">
</g>
<g id="圖層_3" class="st79">
</g>
<g id="圖層_19" class="st20">
</g>
<g id="圖層_10" class="st20">
</g>
<g id="圖層_37">
</g>
</svg>
